<?xml version="1.0" encoding="UTF-8"?>
<svg id="Layer_1" xmlns="http://www.w3.org/2000/svg" version="1.1" viewBox="0 0 180 60">
  <!-- Generator: Adobe Illustrator 30.3.0, SVG Export Plug-In . SVG Version: 2.1.3 Build 182)  -->
  <defs>
    <style>
      .st0 {
        fill: #f5db0a;
      }

      .st1 {
        fill: #6ee0d7;
      }

      .st2 {
        fill: #240e68;
      }
    </style>
  </defs>
  <rect class="st0" x="14.5" y="5.5" width="152.5" height="52.5" rx="7.8" ry="7.8"/>
  <rect class="st1" x="11.9" y="3.6" width="152.5" height="52.5" rx="7.8" ry="7.8"/>
  <rect class="st2" x="8.8" y="1.5" width="152.5" height="52.5" rx="7.8" ry="7.8"/>
  <g>
    <g>
      <path class="st1" d="M25.4,9.5l-.2,2h2.2s0,13.1,0,13.1h-4.4s0-6.6,0-6.6h-4.4s0,6.6,0,6.6h-4.4s0-13.1,0-13.1h2.2s0-2.1,0-2.1h8.9ZM18.7,11.6v4.4s4.4,0,4.4,0v-4.4s-4.4,0-4.4,0Z"/>
      <polygon class="st1" points="43.6 24.8 39.2 24.8 39.2 16 37.1 16 37.1 18.2 34.9 18.2 34.9 16 32.7 16 32.7 24.8 28.3 24.8 28.3 9.5 32.7 9.5 32.7 11.7 34.9 11.7 34.9 13.9 37.1 13.9 37.1 11.7 39.2 11.7 39.2 9.5 43.6 9.5 43.6 24.8"/>
      <path class="st1" d="M137.5,25.7h-4.4s0-4.4,0-4.4h-2.2s0-2.2,0-2.2h-2.2s0,6.6,0,6.6h-4.4s0-15.3,0-15.3h10.9s0,2.2,0,2.2h2.2s0,4.4,0,4.4h-2.2s0,4.4,0,4.4h2.2s0,4.4,0,4.4ZM128.7,12.6v4.4h4.4v-4.4h-4.4Z"/>
      <path class="st1" d="M57.6,24.8h-4.4s0-4.4,0-4.4h-2.2s0-2.2,0-2.2h-2.2s0,6.6,0,6.6h-4.4s0-15.3,0-15.3h10.9s0,2.2,0,2.2h2.2s0,4.4,0,4.4h-2.2s0,4.4,0,4.4h2.2s0,4.4,0,4.4ZM48.9,11.7v4.4h4.4v-4.4h-4.4Z"/>
      <polygon class="st1" points="108.9 23.5 106.8 23.5 106.8 25.7 98 25.7 98 23.5 95.8 23.5 95.8 10.4 100.2 10.4 100.2 23.5 104.6 23.5 104.6 10.4 108.9 10.4 108.9 23.5"/>
      <path class="st1" d="M92.5,25.7h-8.7s0-2.2,0-2.2h-2.2s0-10.9,0-10.9h2.2s0-2.2,0-2.2h8.7s0,2.2,0,2.2h2.2s0,10.9,0,10.9h-2.2s0,2.2,0,2.2ZM85.9,12.6v10.9s4.4,0,4.4,0v-10.9s-4.4,0-4.4,0Z"/>
      <polygon class="st1" points="121 25.7 112.3 25.7 112.3 23.5 110.1 23.5 110.1 21.3 114.5 21.3 114.5 23.5 118.8 23.5 118.8 21.3 116.6 21.3 116.7 19.1 112.3 19.1 112.3 17 110.1 16.9 110.1 12.6 112.3 12.6 112.3 10.4 121.1 10.4 121 12.6 123.2 12.6 123.2 14.7 118.8 14.8 118.8 12.6 114.5 12.6 114.5 14.7 116.7 14.8 116.6 16.9 121 16.9 121 19.1 123.2 19.1 123.2 23.5 121 23.5 121 25.7"/>
      <polygon class="st1" points="67.3 13.9 67.3 11.7 65.1 11.7 65.1 9.5 69.5 9.5 69.5 11.7 71.7 11.7 71.6 13.9 76 13.9 76 11.7 78.2 11.7 78.2 9.5 82.5 9.5 82.7 11.7 80.4 11.7 80.4 13.8 78.2 13.9 78.2 16 76 16 76 24.8 71.7 24.8 71.7 16 69.5 16 69.5 13.9 67.3 13.9"/>
      <polygon class="st1" points="138.6 13.9 138.6 11.7 136.4 11.7 136.4 9.5 140.8 9.5 140.8 11.7 143 11.7 143 13.9 147.4 13.9 147.3 11.7 149.5 11.7 149.5 9.5 153.8 9.5 154 11.7 151.7 11.7 151.7 13.8 149.5 13.9 149.5 16 147.3 16 147.3 24.8 143 24.8 143 16 140.8 16 140.8 13.9 138.6 13.9"/>
    </g>
    <g>
      <path class="st1" d="M70,37.8v1.1c-.1,0,1.1,0,1.1,0v7.1s-2.4,0-2.4,0v-3.5s-2.4,0-2.4,0v3.5s-2.4,0-2.4,0v-7.1s1.2,0,1.2,0v-1.1s4.8,0,4.8,0ZM66.4,38.9v2.4s2.4,0,2.4,0v-2.4s-2.4,0-2.4,0Z"/>
      <polygon class="st1" points="54.6 37.8 54.5 38.9 49.8 38.9 49.8 41.3 52.2 41.3 52.2 42.5 49.8 42.5 49.8 44.8 54.5 44.8 54.5 46 47.5 46 47.5 37.8 54.6 37.8"/>
      <polygon class="st1" points="137.4 37.8 137.3 38.9 132.6 38.9 132.6 41.3 134.9 41.3 134.9 42.5 132.6 42.5 132.6 44.8 137.3 44.8 137.3 46 130.2 46 130.2 37.8 137.4 37.8"/>
      <polygon class="st1" points="21.5 37.8 21.5 38.9 17.9 38.9 17.9 40.1 16.8 40.1 16.8 43.6 17.9 43.6 17.9 44.8 21.5 44.8 21.5 46 16.8 46 16.8 44.8 15.6 44.8 15.6 43.6 14.4 43.6 14.4 40.1 15.6 40.1 15.6 38.9 16.8 38.9 16.8 37.8 21.5 37.8"/>
      <path class="st1" d="M38,46h-2.4s0-2.4,0-2.4h-1.2s0-1.2,0-1.2h-1.2s0,3.5,0,3.5h-2.4s0-8.3,0-8.3h5.9s0,1.2,0,1.2h1.2s0,2.4,0,2.4h-1.2s0,2.4,0,2.4h1.2s0,2.4,0,2.4ZM33.3,39v2.4h2.4v-2.4h-2.4Z"/>
      <polygon class="st1" points="152.7 46 148 46 148 44.9 146.8 44.9 146.8 43.7 149.2 43.7 149.2 44.8 151.5 44.9 151.5 43.7 150.3 43.7 150.4 42.5 148 42.5 148 41.3 146.8 41.3 146.8 39 148 39 148 37.8 152.7 37.8 152.7 39 153.9 39 153.9 40.1 151.5 40.1 151.5 39 149.2 39 149.2 40.1 150.4 40.1 150.4 41.3 152.7 41.3 152.7 42.5 153.9 42.5 153.9 44.8 152.7 44.9 152.7 46"/>
      <polygon class="st1" points="119.6 44.8 118.4 44.9 118.4 46 116.1 46 116.1 44.9 114.9 44.8 114.9 42.5 113.7 42.5 113.7 37.8 116.1 37.8 116.1 42.5 118.4 42.5 118.4 37.8 120.8 37.8 120.8 42.5 119.6 42.5 119.6 44.8"/>
      <polygon class="st1" points="85.3 46 83 46 83 39 80.6 39 80.6 37.8 87.7 37.8 87.7 39 85.3 39 85.3 46"/>
      <polygon class="st1" points="103.1 46 98.3 46 98.3 44.9 99.5 44.8 99.5 39 98.3 39 98.3 37.8 103.1 37.8 103.1 39 101.9 39 101.9 44.8 103.1 44.9 103.1 46"/>
    </g>
  </g>
  <rect class="st1" x="34.8" y="134.5" width="26.6" height="31.8" rx="13.3" ry="13.3"/>
  <rect class="st0" x="64.9" y="132.5" width="26.6" height="31.8" rx="13.3" ry="13.3"/>
</svg>