<?xml version="1.0" encoding="UTF-8"?>
<svg id="Layer_1" xmlns="http://www.w3.org/2000/svg" version="1.1" viewBox="0 0 31.7 32">
  <!-- Generator: Adobe Illustrator 30.3.0, SVG Export Plug-In . SVG Version: 2.1.3 Build 182)  -->
  <defs>
    <style>
      .st0 {
        fill: #f5db0a;
      }

      .st1 {
        fill: #240e68;
      }

      .st2 {
        fill: #6ee0d7;
      }

      .st3 {
        display: none;
      }

      .st4 {
        fill: #784ad1;
      }
    </style>
  </defs>
  <g class="st3">
    <g id="CUSTOM-group">
      <rect class="st0" x="5" y="2.3" width="22.3" height="28.5"/>
      <rect class="st0" x="7.7" y="5.1" width="17" height="16.5"/>
      <g>
        <path class="st0" d="M28.4,4.3c0-1.6-1.3-2.9-2.9-2.9H6.7c-1.6,0-2.9,1.3-2.9,2.9v24.6c0,1.6,1.3,2.9,2.9,2.9h18.8c1.6,0,2.9-1.3,2.9-2.9V4.3ZM26.9,28.9c0,.8-.6,1.4-1.4,1.4H6.7c-.8,0-1.4-.6-1.4-1.4V4.3c0-.8.6-1.4,1.4-1.4h18.8c.8,0,1.4.6,1.4,1.4v24.6Z"/>
        <path class="st0" d="M25.6,5c0-.4-.3-.7-.7-.7H7.5c-.4,0-.7.3-.7.7v16.7c0,.4.3.7.7.7h17.4c.4,0,.7-.3.7-.7V5ZM24.1,21h-15.9V5.7s15.9,0,15.9,0v15.2Z"/>
      </g>
    </g>
    <g id="CUSTOM-group1" data-name="CUSTOM-group">
      <rect class="st2" x="4.3" y="1.8" width="22.3" height="28.5"/>
      <rect class="st2" x="7" y="4.6" width="17" height="16.5"/>
      <g>
        <path class="st2" d="M27.7,3.8c0-1.6-1.3-2.9-2.9-2.9H6c-1.6,0-2.9,1.3-2.9,2.9v24.6c0,1.6,1.3,2.9,2.9,2.9h18.8c1.6,0,2.9-1.3,2.9-2.9V3.8ZM26.2,28.4c0,.8-.6,1.4-1.4,1.4H6c-.8,0-1.4-.6-1.4-1.4V3.8c0-.8.6-1.4,1.4-1.4h18.8c.8,0,1.4.6,1.4,1.4v24.6Z"/>
        <path class="st2" d="M24.9,4.5c0-.4-.3-.7-.7-.7H6.8c-.4,0-.7.3-.7.7v16.7c0,.4.3.7.7.7h17.4c.4,0,.7-.3.7-.7V4.5ZM23.4,20.5H7.5V5.2s15.9,0,15.9,0v15.2Z"/>
      </g>
    </g>
    <g id="CUSTOM-group2" data-name="CUSTOM-group">
      <rect class="st4" x="3.4" y="1.2" width="22.3" height="28.5"/>
      <rect class="st2" x="6.1" y="4" width="17" height="16.5"/>
      <g>
        <path class="st1" d="M26.8,3.2c0-1.6-1.3-2.9-2.9-2.9H5c-1.6,0-2.9,1.3-2.9,2.9v24.6c0,1.6,1.3,2.9,2.9,2.9h18.8c1.6,0,2.9-1.3,2.9-2.9V3.2ZM25.3,27.8c0,.8-.6,1.4-1.4,1.4H5c-.8,0-1.4-.6-1.4-1.4V3.2c0-.8.6-1.4,1.4-1.4h18.8c.8,0,1.4.6,1.4,1.4v24.6Z"/>
        <path class="st1" d="M24,3.9c0-.4-.3-.7-.7-.7H5.8c-.4,0-.7.3-.7.7v16.7c0,.4.3.7.7.7h17.4c.4,0,.7-.3.7-.7V3.9ZM22.4,19.9H6.6V4.7s15.9,0,15.9,0v15.2Z"/>
      </g>
    </g>
    <g>
      <path class="st1" d="M10.7,15.8h-.4s0-1.2,0-1.2h-.8s0-.4,0-.4h-.4s0-2.5,0-2.5h.4s0-.4,0-.4h.4s0-2.9,0-2.9h.4s0-.8,0-.8h.4s0-.4,0-.4h.4s0-.4,0-.4h.4s0-.4,0-.4h.8s0-.4,0-.4h4.5s0,.4,0,.4h.8s0,.4,0,.4h.4s0,.4,0,.4h.4s0,.4,0,.4h.4s0,.8,0,.8h.4s0,2.9,0,2.9h.4s0,.4,0,.4h0s.4,0,.4,0v2.5s-.4,0-.4,0v.4s-.8,0-.8,0v1.2s-.4,0-.4,0v-1.7s0-.3,0-.3h.4s0,.4,0,.4h.4s0-.4,0-.4h.4s0-2.1,0-2.1h0s-.8,0-.8,0v.4s-.4,0-.4,0v-1.7s-.4,0-.4,0v-2.5s-.4,0-.4,0v-.4s-1.5,0-1.5,0v.4s-3.1,0-3.1,0v-.4s-1.6,0-1.6,0v.4s-.4,0-.4,0v2.5s-.4,0-.4,0v1.7s-.4,0-.4,0v-.4s-.8,0-.8,0v2.1s.4,0,.4,0v.4s.4,0,.4,0v-.4s.4,0,.4,0v2s0,0,0,0h.4s0,.8,0,.8h-.4s0-.8,0-.8h0ZM15.4,7.1v-.8s-.4,0-.4,0v.8s-.4,0-.4,0v.4s.4,0,.4,0v-.4s.4,0,.4,0h0ZM15.4,7.1v.4s.4,0,.4,0v-.4s.4,0,.4,0v-.8s-.4,0-.4,0v.8s-.4,0-.4,0h0Z"/>
      <path class="st1" d="M13.9,13.7h-.4s0-.4,0-.4h.4s0,.4,0,.4h0s1.5,0,1.5,0v-.4s.4,0,.4,0v.4s-.4,0-.4,0v.4s1.2,0,1.2,0v.4s.8,0,.8,0v-.4s.4,0,.4,0v.4s-.4,0-.4,0v1.2s-.4,0-.4,0v-.4s-.8,0-.8,0v.4s-.4,0-.4,0v.4s-2.3,0-2.3,0v-.4s-.4,0-.4,0v-.4s-.8,0-.8,0v.4s-.4,0-.4,0v-1.2s0,0,0,0h-.4s0-.4,0-.4h.4s0,.4,0,.4h0s.8,0,.8,0v-.4s1.2,0,1.2,0v-.4s0,0,0,0ZM16,15.4v-.4s-1.2,0-1.2,0v-.4s-.3,0-.3,0v.4s-1.2,0-1.2,0v.4s2.7,0,2.7,0Z"/>
      <polygon class="st1" points="11.9 17.4 11.5 17.4 11.5 17 11.9 17 11.9 17.4 11.9 17.4 12.7 17.4 12.7 17.8 13.1 17.8 13.2 18.3 16 18.3 16 17.8 16.9 17.8 16.9 18.3 16.5 18.3 16.5 18.7 12.7 18.7 12.7 18.3 12.3 18.3 12.3 17.8 11.9 17.8 11.9 17.4 11.9 17.4"/>
      <polygon class="st1" points="13.1 12.1 12.3 12.1 12.3 11.7 11.9 11.6 11.9 11.2 13.5 11.2 13.5 11.6 13.1 11.7 13.1 12.1"/>
      <polygon class="st1" points="17.4 11.7 17 11.6 17 12.1 16.2 12.1 16.2 11.6 15.9 11.6 15.8 11.2 17.4 11.2 17.4 11.7 17.4 11.7 17.8 11.7 17.8 12.1 17.4 12.1 17.4 11.7 17.4 11.7"/>
      <polygon class="st1" points="13.5 10.8 11.5 10.8 11.5 11.2 11.1 11.2 11.1 10.8 11.5 10.8 11.5 10.4 13.5 10.4 13.5 10.8 13.5 10.8 13.9 10.8 13.9 11.2 14 11.2 14.4 11.2 14.4 12.9 13.9 12.9 13.9 11.3 13.9 11.2 13.5 11.2 13.5 10.8 13.5 10.8"/>
      <polygon class="st1" points="17.7 10.8 15.8 10.8 15.9 10.4 17.7 10.4 17.7 10.8 17.7 10.8 18.1 10.8 18.1 11.2 17.7 11.2 17.7 10.8 17.7 10.8"/>
      <polygon class="st1" points="15.4 12.9 15 12.9 15 11.2 15.4 11.2 15.4 10.8 15.8 10.8 15.8 11.2 15.4 11.2 15.4 12.9"/>
      <rect class="st1" x="14.5" y="16.1" width=".4" height="1.5" transform="translate(-2.1 31.5) rotate(-90)"/>
      <rect class="st1" x="11.1" y="14.6" width=".4" height=".8"/>
      <rect class="st1" x="18.9" y="12.5" width=".4" height=".8"/>
      <rect class="st1" x="17.8" y="14.6" width=".4" height=".8" transform="translate(0 0) rotate(0)"/>
      <rect class="st1" x="17.9" y="16" width=".8" height=".4" transform="translate(2.1 34.5) rotate(-90)"/>
      <rect class="st1" x="9.9" y="12.5" width=".4" height=".8"/>
      <polygon class="st1" points="17.3 17.8 16.9 17.8 16.9 17.4 17.3 17.4 17.3 17 17.7 17 17.7 17.4 17.3 17.4 17.3 17.8"/>
      <rect class="st1" x="16.6" y="13.3" width=".4" height=".4" transform="translate(0 0) rotate(-.1)"/>
      <rect class="st1" x="11.9" y="13.7" width=".4" height=".4"/>
      <rect class="st1" x="17" y="13.7" width=".4" height=".4"/>
      <rect class="st1" x="11.5" y="11.7" width=".4" height=".4" transform="translate(0 0) rotate(-.2)"/>
      <rect class="st1" x="11.1" y="16.6" width=".4" height=".4"/>
      <rect class="st1" x="17.7" y="16.6" width=".4" height=".4" transform="translate(1.1 34.7) rotate(-90)"/>
    </g>
    <g>
      <path class="st2" d="M6.6,22.9v.3s.3,0,.3,0v1.8s-.6,0-.6,0v-.9s-.6,0-.6,0v.9s-.6,0-.6,0v-1.8s.3,0,.3,0v-.3s1.2,0,1.2,0ZM5.7,23.2v.6s.6,0,.6,0v-.6s-.6,0-.6,0Z"/>
      <polygon class="st2" points="9.1 24.9 8.5 24.9 8.5 23.8 8.2 23.8 8.2 24.1 7.9 24.1 7.9 23.8 7.6 23.8 7.6 24.9 7 24.9 7 22.9 7.6 22.9 7.6 23.2 7.9 23.2 7.9 23.5 8.2 23.5 8.2 23.2 8.5 23.2 8.5 22.9 9.1 22.9 9.1 24.9"/>
      <path class="st2" d="M21.7,25.1h-.6s0-.6,0-.6h-.3s0-.3,0-.3h-.3s0,.9,0,.9h-.6s0-2.1,0-2.1h1.5s0,.3,0,.3h.3s0,.6,0,.6h-.3s0,.6,0,.6h.3s0,.6,0,.6ZM20.5,23.3v.6h.6v-.6h-.6Z"/>
      <path class="st2" d="M11,24.9h-.6s0-.6,0-.6h-.3s0-.3,0-.3h-.3s0,.9,0,.9h-.6s0-2.1,0-2.1h1.5s0,.3,0,.3h.3s0,.6,0,.6h-.3s0,.6,0,.6h.3s0,.6,0,.6ZM9.8,23.2v.6h.6v-.6h-.6Z"/>
      <polygon class="st2" points="17.9 24.8 17.6 24.8 17.6 25.1 16.4 25.1 16.4 24.8 16.1 24.8 16.1 23 16.7 23 16.7 24.8 17.3 24.8 17.3 23 17.9 23 17.9 24.8"/>
      <path class="st2" d="M15.7,25.1h-1.2s0-.3,0-.3h-.3s0-1.5,0-1.5h.3s0-.3,0-.3h1.2s0,.3,0,.3h.3s0,1.5,0,1.5h-.3s0,.3,0,.3ZM14.8,23.3v1.5s.6,0,.6,0v-1.5s-.6,0-.6,0Z"/>
      <polygon class="st2" points="19.5 25.1 18.3 25.1 18.3 24.8 18 24.8 18 24.5 18.6 24.5 18.6 24.8 19.2 24.8 19.2 24.5 18.9 24.5 18.9 24.2 18.3 24.2 18.3 23.9 18 23.9 18 23.3 18.3 23.3 18.3 23 19.5 23 19.5 23.3 19.8 23.3 19.8 23.6 19.2 23.6 19.2 23.3 18.6 23.3 18.6 23.6 18.9 23.6 18.9 23.9 19.5 23.9 19.5 24.2 19.8 24.2 19.8 24.8 19.5 24.8 19.5 25.1"/>
      <polygon class="st2" points="12.3 23.5 12.3 23.2 12 23.2 12 22.9 12.6 22.9 12.6 23.2 12.9 23.2 12.8 23.5 13.4 23.5 13.4 23.2 13.7 23.2 13.7 22.9 14.3 22.9 14.3 23.2 14 23.2 14 23.5 13.7 23.5 13.7 23.8 13.4 23.8 13.4 24.9 12.8 24.9 12.9 23.8 12.6 23.8 12.6 23.5 12.3 23.5"/>
      <polygon class="st2" points="21.9 23.5 21.9 23.2 21.6 23.2 21.6 22.9 22.2 22.9 22.2 23.2 22.5 23.2 22.5 23.5 23.1 23.5 23.1 23.2 23.4 23.2 23.4 22.9 23.9 22.9 24 23.2 23.6 23.2 23.6 23.5 23.4 23.5 23.4 23.8 23.1 23.8 23.1 24.9 22.5 24.9 22.5 23.8 22.2 23.8 22.2 23.5 21.9 23.5"/>
    </g>
    <g>
      <path class="st2" d="M12.6,26.6h0c0,.1.2.2.2.2v1s-.3,0-.3,0v-.5s-.3,0-.3,0v.5s-.3,0-.3,0v-1s.2,0,.2,0h0c0-.1.6-.1.6-.1ZM12.2,26.7v.3s.3,0,.3,0v-.3s-.3,0-.3,0Z"/>
      <polygon class="st2" points="10.6 26.6 10.5 26.7 9.9 26.7 9.9 27 10.2 27 10.2 27.2 9.9 27.2 9.9 27.5 10.6 27.5 10.6 27.7 9.6 27.7 9.6 26.6 10.6 26.6"/>
      <polygon class="st2" points="21.7 26.6 21.7 26.7 21.1 26.7 21.1 27 21.4 27 21.4 27.2 21.1 27.2 21.1 27.5 21.7 27.5 21.7 27.7 20.8 27.7 20.8 26.6 21.7 26.6"/>
      <polygon class="st2" points="6.1 26.6 6.1 26.7 5.6 26.7 5.6 26.9 5.5 26.9 5.5 27.4 5.6 27.4 5.6 27.5 6.1 27.5 6.1 27.7 5.5 27.7 5.5 27.5 5.3 27.5 5.3 27.4 5.1 27.4 5.1 26.9 5.3 26.9 5.3 26.7 5.5 26.7 5.5 26.6 6.1 26.6"/>
      <path class="st2" d="M8.3,27.7h-.3s0-.3,0-.3h-.2s0-.2,0-.2h-.2s0,.5,0,.5h-.3s0-1.1,0-1.1h.8s0,.2,0,.2h.2s0,.3,0,.3h-.2s0,.3,0,.3h.2s0,.3,0,.3ZM7.7,26.7v.3h.3v-.3h-.3Z"/>
      <polygon class="st2" points="23.8 27.7 23.2 27.7 23.2 27.5 23 27.5 23 27.4 23.3 27.4 23.3 27.5 23.6 27.5 23.6 27.4 23.5 27.4 23.5 27.2 23.2 27.2 23.2 27 23 27 23 26.7 23.2 26.7 23.2 26.6 23.8 26.6 23.8 26.7 24 26.7 24 26.9 23.6 26.9 23.6 26.7 23.3 26.7 23.3 26.9 23.5 26.9 23.5 27 23.8 27 23.8 27.2 24 27.2 24 27.5 23.8 27.5 23.8 27.7"/>
      <polygon class="st2" points="19.3 27.5 19.2 27.5 19.2 27.7 18.9 27.7 18.9 27.5 18.7 27.5 18.7 27.2 18.5 27.2 18.5 26.6 18.9 26.6 18.9 27.2 19.2 27.2 19.2 26.6 19.5 26.6 19.5 27.2 19.3 27.2 19.3 27.5"/>
      <polygon class="st2" points="14.7 27.7 14.4 27.7 14.4 26.7 14.1 26.7 14.1 26.6 15 26.6 15 26.7 14.7 26.7 14.7 27.7"/>
      <polygon class="st2" points="17.1 27.7 16.5 27.7 16.5 27.5 16.6 27.5 16.6 26.7 16.5 26.7 16.5 26.6 17.1 26.6 17.1 26.7 16.9 26.7 16.9 27.5 17.1 27.5 17.1 27.7"/>
    </g>
  </g>
  <g class="st3">
    <rect class="st0" x="3" y="5.6" width="59.8" height="21.1" rx="3.1" ry="3.1" transform="translate(.2 -.3) rotate(.6)"/>
    <rect class="st2" x="1.5" y="3.6" width="60.3" height="21.9" rx="2.9" ry="2.9"/>
    <g>
      <rect class="st4" x="1" y="3.3" width="58.6" height="20.2" rx="3.5" ry="3.5"/>
      <path class="st1" d="M57,24.5H3.5c-1.9,0-3.5-1.6-3.5-3.5V5.8C0,3.9,1.5,2.3,3.5,2.3h53.6c1.9,0,3.5,1.6,3.5,3.5v15.2c0,1.9-1.6,3.5-3.5,3.5ZM3.5,4.3c-.8,0-1.5.7-1.5,1.5v15.2c0,.8.7,1.5,1.5,1.5h53.6c.8,0,1.5-.7,1.5-1.5V5.8c0-.8-.7-1.5-1.5-1.5H3.5Z"/>
    </g>
    <g>
      <g>
        <rect class="st2" x="4.7" y="6.3" width="18.4" height="14.2" rx="1.6" ry="1.6"/>
        <path class="st1" d="M21.6,21.1H6.2c-1.2,0-2.1-.9-2.1-2.1V7.8c0-1.2.9-2.1,2.1-2.1h15.4c1.2,0,2.1.9,2.1,2.1v11.2c0,1.2-.9,2.1-2.1,2.1ZM6.2,6.9c-.5,0-.9.4-.9.9v11.2c0,.5.4.9.9.9h15.4c.5,0,.9-.4.9-.9V7.8c0-.5-.4-.9-.9-.9H6.2Z"/>
      </g>
      <g>
        <path class="st1" d="M10.3,16.6h-.4s0-1.1,0-1.1h-.7s0-.4,0-.4h-.4s0-2.2,0-2.2h.4s0-.4,0-.4h.4s0-2.6,0-2.6h.4s0-.7,0-.7h.4s0-.4,0-.4h.4s0-.4,0-.4h.4s0-.4,0-.4h.7s0-.4,0-.4h4.1s0,.4,0,.4h.7s0,.4,0,.4h.4s0,.4,0,.4h.4s0,.4,0,.4h.4s0,.7,0,.7h.4s0,2.6,0,2.6h.4s0,.4,0,.4h0s.4,0,.4,0v2.2s-.4,0-.4,0v.4s-.7,0-.7,0v1.1s-.4,0-.4,0v-1.5s0-.3,0-.3h.4s0,.4,0,.4h.4s0-.4,0-.4h.4s0-1.9,0-1.9h0s-.7,0-.7,0v.4s-.4,0-.4,0v-1.5s-.4,0-.4,0v-2.2s-.4,0-.4,0v-.4s-1.3,0-1.3,0v.4s-2.8,0-2.8,0v-.4s-1.4,0-1.4,0v.4s-.4,0-.4,0v2.2s-.4,0-.4,0v1.5s-.4,0-.4,0v-.4s-.7,0-.7,0v1.9s.4,0,.4,0v.4s.4,0,.4,0v-.4s.4,0,.4,0v1.8s0,0,0,0h.4s0,.7,0,.7h-.4s0-.7,0-.7h0ZM14.6,8.7v-.7s-.4,0-.4,0v.7s-.4,0-.4,0v.4s.4,0,.4,0v-.4s.4,0,.4,0h0ZM14.6,8.7v.4s.4,0,.4,0v-.4s.4,0,.4,0v-.7s-.4,0-.4,0v.7s-.4,0-.4,0h0Z"/>
        <path class="st1" d="M13.2,14.7h-.3s0-.4,0-.4h.4s0,.4,0,.4h0s1.3,0,1.3,0v-.4s.4,0,.4,0v.4s-.4,0-.4,0v.4s1.1,0,1.1,0v.4s.7,0,.7,0v-.4s.4,0,.4,0v.4s-.4,0-.4,0v1.1s-.4,0-.4,0v-.4s-.7,0-.7,0v.4s-.4,0-.4,0v.4s-2.1,0-2.1,0v-.4s-.4,0-.4,0v-.4s-.7,0-.7,0v.4s-.4,0-.4,0v-1.1s0,0,0,0h-.4s0-.4,0-.4h.4s0,.4,0,.4h0s.7,0,.7,0v-.4s1.1,0,1.1,0v-.3s0,0,0,0ZM15.1,16.2v-.4s-1.1,0-1.1,0v-.4s-.3,0-.3,0v.4s-1.1,0-1.1,0v.4s2.4,0,2.4,0Z"/>
        <polygon class="st1" points="11.4 18 11 18 11 17.7 11.4 17.7 11.4 18 11.4 18 12.1 18 12.1 18.4 12.5 18.4 12.5 18.8 15.1 18.8 15.1 18.4 15.8 18.4 15.8 18.8 15.5 18.8 15.5 19.2 12.1 19.2 12.1 18.8 11.8 18.8 11.8 18.4 11.4 18.4 11.4 18 11.4 18"/>
        <polygon class="st1" points="12.5 13.2 11.8 13.2 11.8 12.8 11.4 12.8 11.4 12.5 12.8 12.5 12.8 12.8 12.5 12.8 12.5 13.2"/>
        <polygon class="st1" points="16.3 12.8 16 12.8 16 13.2 15.3 13.2 15.3 12.8 14.9 12.8 14.9 12.5 16.4 12.5 16.4 12.8 16.4 12.8 16.7 12.8 16.7 13.2 16.4 13.2 16.4 12.8 16.3 12.8"/>
        <polygon class="st1" points="12.8 12.1 11 12.1 11 12.5 10.7 12.5 10.7 12.1 11 12.1 11 11.7 12.8 11.7 12.8 12.1 12.9 12.1 13.2 12.1 13.2 12.5 13.2 12.5 13.6 12.5 13.6 14 13.2 14 13.2 12.5 13.2 12.5 12.8 12.5 12.8 12.1 12.8 12.1"/>
        <polygon class="st1" points="16.6 12.1 14.9 12.1 14.9 11.7 16.6 11.7 16.6 12.1 16.6 12.1 17 12.1 17 12.5 16.6 12.5 16.6 12.1 16.6 12.1"/>
        <polygon class="st1" points="14.6 14 14.2 14 14.2 12.5 14.5 12.5 14.5 12.1 14.9 12.1 14.9 12.5 14.6 12.5 14.6 14"/>
        <rect class="st1" x="13.7" y="16.8" width=".4" height="1.3" transform="translate(-3.6 31.4) rotate(-90)"/>
        <rect class="st1" x="10.7" y="15.4" width=".4" height=".7"/>
        <rect class="st1" x="17.7" y="13.6" width=".4" height=".7"/>
        <rect class="st1" x="16.7" y="15.4" width=".4" height=".7" transform="translate(0 0) rotate(0)"/>
        <rect class="st1" x="16.8" y="16.7" width=".7" height=".4" transform="translate(.2 34.1) rotate(-90)"/>
        <rect class="st1" x="9.5" y="13.6" width=".4" height=".7"/>
        <polygon class="st1" points="16.2 18.4 15.9 18.4 15.8 18 16.2 18 16.2 17.7 16.6 17.7 16.6 18 16.2 18 16.2 18.4"/>
        <rect class="st1" x="15.6" y="14.3" width=".4" height=".4" transform="translate(0 0) rotate(-.1)"/>
        <rect class="st1" x="11.4" y="14.7" width=".4" height=".4"/>
        <rect class="st1" x="16" y="14.7" width=".4" height=".4"/>
        <rect class="st1" x="11" y="12.8" width=".4" height=".4" transform="translate(0 0) rotate(-.2)"/>
        <rect class="st1" x="10.7" y="17.3" width=".4" height=".4"/>
        <rect class="st1" x="16.6" y="17.3" width=".4" height=".4" transform="translate(-.7 34.3) rotate(-90)"/>
      </g>
    </g>
    <g>
      <g>
        <path class="st2" d="M27.7,9.2v.5s.5,0,.5,0v3s-1,0-1,0v-1.5s-1,0-1,0v1.5s-1,0-1,0v-3s.5,0,.5,0v-.5s2,0,2,0ZM26.1,9.7v1s1,0,1,0v-1s-1,0-1,0Z"/>
        <polygon class="st2" points="31.9 12.7 30.9 12.7 30.9 10.7 30.4 10.7 30.4 11.2 29.9 11.2 29.9 10.7 29.4 10.7 29.4 12.7 28.4 12.7 28.4 9.2 29.4 9.2 29.4 9.7 29.9 9.7 29.9 10.2 30.4 10.2 30.4 9.7 30.9 9.7 30.9 9.2 31.9 9.2 31.9 12.7"/>
        <path class="st2" d="M53.5,12.9h-1s0-1,0-1h-.5s0-.5,0-.5h-.5s0,1.5,0,1.5h-1s0-3.5,0-3.5h2.5s0,.5,0,.5h.5s0,1,0,1h-.5s0,1,0,1h.5s0,1,0,1ZM51.5,9.9v1h1v-1h-1Z"/>
        <path class="st2" d="M35.1,12.7h-1s0-1,0-1h-.5s0-.5,0-.5h-.5s0,1.5,0,1.5h-1s0-3.5,0-3.5h2.5s0,.5,0,.5h.5s0,1,0,1h-.5s0,1,0,1h.5s0,1,0,1ZM33.1,9.7v1h1v-1h-1Z"/>
        <polygon class="st2" points="46.9 12.4 46.4 12.4 46.4 12.9 44.4 12.9 44.4 12.4 43.9 12.4 43.9 9.4 44.9 9.4 44.9 12.4 45.9 12.4 45.9 9.4 47 9.4 46.9 12.4"/>
        <path class="st2" d="M43.2,12.9h-2s0-.5,0-.5h-.5s0-2.5,0-2.5h.5s0-.5,0-.5h2s0,.5,0,.5h.5s0,2.5,0,2.5h-.5s0,.5,0,.5ZM41.6,9.9v2.5s1,0,1,0v-2.5s-1,0-1,0Z"/>
        <polygon class="st2" points="49.7 12.9 47.7 12.9 47.7 12.4 47.2 12.4 47.2 11.9 48.2 11.9 48.2 12.4 49.2 12.4 49.2 11.9 48.7 11.9 48.7 11.4 47.7 11.4 47.7 10.9 47.2 10.9 47.2 9.9 47.7 9.9 47.7 9.4 49.7 9.4 49.7 9.9 50.2 9.9 50.2 10.4 49.2 10.4 49.2 9.9 48.2 9.9 48.2 10.4 48.7 10.4 48.7 10.9 49.7 10.9 49.7 11.4 50.2 11.4 50.2 12.4 49.7 12.4 49.7 12.9"/>
        <polygon class="st2" points="37.3 10.2 37.3 9.7 36.8 9.7 36.8 9.2 37.9 9.2 37.8 9.7 38.4 9.7 38.3 10.2 39.4 10.2 39.4 9.7 39.9 9.7 39.9 9.2 40.8 9.2 40.9 9.7 40.4 9.7 40.4 10.2 39.9 10.2 39.9 10.7 39.4 10.7 39.4 12.7 38.3 12.7 38.4 10.7 37.8 10.7 37.8 10.2 37.3 10.2"/>
        <polygon class="st2" points="53.8 10.2 53.8 9.7 53.3 9.7 53.3 9.2 54.3 9.2 54.3 9.7 54.8 9.7 54.8 10.2 55.8 10.2 55.8 9.7 56.3 9.7 56.3 9.2 57.3 9.2 57.3 9.7 56.8 9.7 56.8 10.2 56.3 10.2 56.3 10.7 55.8 10.7 55.8 12.7 54.8 12.7 54.8 10.7 54.3 10.7 54.3 10.2 53.8 10.2"/>
      </g>
      <g>
        <path class="st2" d="M38,15.7v.3s.3,0,.3,0v1.6s-.5,0-.5,0v-.8s-.5,0-.5,0v.8s-.5,0-.5,0v-1.6s.3,0,.3,0v-.3s1.1,0,1.1,0ZM37.1,16v.5s.5,0,.5,0v-.5s-.5,0-.5,0Z"/>
        <polygon class="st2" points="34.4 15.7 34.4 16 33.3 16 33.3 16.5 33.9 16.5 33.9 16.8 33.3 16.8 33.3 17.3 34.4 17.3 34.4 17.6 32.8 17.6 32.8 15.7 34.4 15.7"/>
        <polygon class="st2" points="53.5 15.7 53.5 16 52.4 16 52.4 16.5 52.9 16.5 52.9 16.8 52.4 16.8 52.4 17.3 53.5 17.3 53.5 17.6 51.9 17.6 51.9 15.7 53.5 15.7"/>
        <polygon class="st2" points="26.8 15.7 26.8 16 26 16 26 16.2 25.7 16.2 25.7 17.1 26 17.1 26 17.3 26.8 17.3 26.8 17.6 25.7 17.6 25.7 17.3 25.4 17.3 25.4 17.1 25.1 17.1 25.1 16.2 25.4 16.2 25.4 16 25.7 16 25.7 15.7 26.8 15.7"/>
        <path class="st2" d="M30.6,17.6h-.5s0-.5,0-.5h-.3s0-.3,0-.3h-.3s0,.8,0,.8h-.5s0-1.9,0-1.9h1.4s0,.3,0,.3h.3s0,.5,0,.5h-.3s0,.5,0,.5h.3s0,.5,0,.5ZM29.5,16v.5h.5v-.5h-.5Z"/>
        <polygon class="st2" points="57 17.6 56 17.6 56 17.3 55.7 17.3 55.7 17.1 56.2 17.1 56.2 17.3 56.8 17.3 56.8 17.1 56.5 17.1 56.5 16.8 56 16.8 56 16.5 55.7 16.5 55.7 16 56 16 56 15.7 57 15.7 57 16 57.3 16 57.3 16.2 56.8 16.2 56.8 16 56.2 16 56.2 16.2 56.5 16.2 56.5 16.5 57 16.5 57 16.8 57.3 16.8 57.3 17.3 57 17.3 57 17.6"/>
        <polygon class="st2" points="49.4 17.3 49.1 17.3 49.1 17.6 48.6 17.6 48.6 17.3 48.3 17.3 48.3 16.8 48 16.8 48 15.7 48.6 15.7 48.6 16.8 49.1 16.8 49.1 15.7 49.7 15.7 49.7 16.8 49.4 16.8 49.4 17.3"/>
        <polygon class="st2" points="41.5 17.6 41 17.6 41 16 40.4 16 40.4 15.7 42 15.7 42 16 41.5 16 41.5 17.6"/>
        <polygon class="st2" points="45.6 17.6 44.5 17.6 44.5 17.3 44.8 17.3 44.8 16 44.5 16 44.5 15.7 45.6 15.7 45.6 16 45.3 16 45.3 17.3 45.6 17.3 45.6 17.6"/>
      </g>
    </g>
  </g>
  <rect class="st0" x="3.8" y="1.5" width="25" height="29.8" rx="3.6" ry="3.6"/>
  <rect class="st2" x="2.6" y=".6" width="25" height="29.8" rx="3.6" ry="3.6"/>
  <g>
    <path class="st1" d="M7.5,22.3h-.8s0-2.4,0-2.4h-1.6s0-.8,0-.8h-.8s0-4.8,0-4.8h.8s0-.8,0-.8h.8s0-5.7,0-5.7h.8s0-1.6,0-1.6h.8s0-.8,0-.8h.8s0-.8,0-.8h.8s0-.8,0-.8h1.6s0-.8,0-.8h8.9s0,.8,0,.8h1.6s0,.8,0,.8h.8s0,.8,0,.8h.8s0,.8,0,.8h.8s0,1.6,0,1.6h.8s0,5.7,0,5.7h.8s0,.8,0,.8h0s.8,0,.8,0v4.9s-.8,0-.8,0v.8s-1.6,0-1.6,0v2.4s-.8,0-.8,0v-3.3s0-.7,0-.7h.8s0,.8,0,.8h.8s0-.8,0-.8h.8s0-4,0-4h0s-1.6,0-1.6,0v.8s-.8,0-.8,0v-3.2s-.8,0-.8,0v-4.8s-.8,0-.8,0v-.8s-2.8,0-2.8,0v.8s-6.1,0-6.1,0v-.8s-3.1,0-3.1,0v.8s-.8,0-.8,0v4.8s-.8,0-.8,0v3.2s-.8,0-.8,0v-.8s-1.6,0-1.6,0v4s.8,0,.8,0v.8s.8,0,.8,0v-.8s.8,0,.8,0v4s0,0,0,0h.8s0,1.6,0,1.6h-.8s0-1.6,0-1.6h0ZM16.7,5.4v-1.6s-.8,0-.8,0v1.6s-.8,0-.8,0v.8s.8,0,.8,0v-.8s.8,0,.8,0h0ZM16.7,5.4v.8s.8,0,.8,0v-.8s.8,0,.8,0v-1.6s-.8,0-.8,0v1.6s-.8,0-.8,0h0Z"/>
    <path class="st1" d="M13.8,18.3h-.7s0-.8,0-.8h.8s0,.8,0,.8h0s2.9,0,2.9,0v-.8s.8,0,.8,0v.8s-.8,0-.8,0v.8s2.3,0,2.3,0v.8s1.6,0,1.6,0v-.8s.8,0,.8,0v.8s-.8,0-.8,0v2.4s-.8,0-.8,0v-.8s-1.5,0-1.5,0v.8s-.8,0-.8,0v.8s-4.5,0-4.5,0v-.8s-.8,0-.8,0v-.8s-1.6,0-1.6,0v.8s-.8,0-.8,0v-2.4s0,0,0,0h-.8s0-.8,0-.8h.8s0,.8,0,.8h0s1.6,0,1.6,0v-.8s2.3,0,2.3,0v-.8s0,0,0,0ZM17.9,21.5v-.8s-2.3,0-2.3,0v-.8s-.7,0-.7,0v.8s-2.3,0-2.3,0v.8s5.2,0,5.2,0Z"/>
    <polygon class="st1" points="9.9 25.5 9.1 25.5 9.1 24.7 9.9 24.7 9.9 25.5 9.9 25.5 11.5 25.5 11.5 26.3 12.3 26.3 12.3 27.1 17.9 27.1 17.9 26.3 19.5 26.3 19.5 27.1 18.7 27.1 18.7 27.9 11.5 27.9 11.5 27.1 10.7 27.1 10.7 26.3 9.9 26.3 9.9 25.5 9.9 25.5"/>
    <polygon class="st1" points="12.2 15.1 10.7 15.1 10.7 14.2 9.9 14.2 9.9 13.4 13 13.4 13 14.2 12.2 14.3 12.2 15.1"/>
    <polygon class="st1" points="20.6 14.2 19.8 14.2 19.8 15.1 18.3 15.1 18.3 14.2 17.5 14.2 17.5 13.4 20.6 13.4 20.6 14.2 20.6 14.2 21.4 14.2 21.4 15 20.6 15 20.6 14.3 20.6 14.2"/>
    <polygon class="st1" points="13 12.6 9.1 12.6 9.1 13.4 8.3 13.4 8.3 12.6 9.1 12.6 9.1 11.8 13 11.8 13 12.6 13 12.6 13.8 12.6 13.8 13.4 13.8 13.4 14.6 13.4 14.6 16.7 13.8 16.7 13.8 13.5 13.8 13.4 13 13.4 13 12.7 13 12.6"/>
    <polygon class="st1" points="21.1 12.6 17.5 12.6 17.5 11.8 21.2 11.8 21.2 12.6 21.2 12.6 22 12.6 22 13.4 21.2 13.4 21.2 12.7 21.1 12.6"/>
    <polygon class="st1" points="16.7 16.7 15.9 16.7 15.9 13.4 16.7 13.4 16.7 12.6 17.5 12.6 17.5 13.4 16.7 13.4 16.7 16.7"/>
    <rect class="st1" x="14.8" y="22.9" width=".8" height="2.9" transform="translate(-9.1 39.6) rotate(-90)"/>
    <rect class="st1" x="8.3" y="19.9" width=".8" height="1.6"/>
    <rect class="st1" x="23.6" y="15.9" width=".8" height="1.6"/>
    <rect class="st1" x="21.4" y="19.9" width=".8" height="1.6" transform="translate(0 0) rotate(0)"/>
    <rect class="st1" x="21.5" y="22.7" width="1.6" height=".8" transform="translate(-.8 45.5) rotate(-90)"/>
    <rect class="st1" x="5.9" y="15.9" width=".8" height="1.6"/>
    <polygon class="st1" points="20.3 26.3 19.5 26.3 19.5 25.5 20.3 25.5 20.3 24.7 21.1 24.7 21.1 25.5 20.3 25.5 20.3 26.3"/>
    <rect class="st1" x="19" y="17.5" width=".8" height=".8" transform="translate(0 0) rotate(-.1)"/>
    <rect class="st1" x="9.9" y="18.3" width=".8" height=".8"/>
    <rect class="st1" x="19.8" y="18.3" width=".8" height=".8"/>
    <rect class="st1" x="9.1" y="14.2" width=".8" height=".8" transform="translate(0 0) rotate(-.2)"/>
    <rect class="st1" x="8.3" y="23.9" width=".8" height=".8"/>
    <rect class="st1" x="21.1" y="23.9" width=".8" height=".8" transform="translate(-2.8 45.8) rotate(-90)"/>
  </g>
</svg>