<?xml version="1.0" encoding="UTF-8"?>
<svg id="Layer_1" xmlns="http://www.w3.org/2000/svg" version="1.1" xmlns:xlink="http://www.w3.org/1999/xlink" viewBox="0 0 197.4 192.5">
  <!-- Generator: Adobe Illustrator 30.3.0, SVG Export Plug-In . SVG Version: 2.1.3 Build 182)  -->
  <defs>
    <style>
      .st0 {
        display: none;
      }

      .st0, .st1, .st2 {
        isolation: isolate;
      }

      .st3, .st1, .st2 {
        fill: #fff;
      }

      .st1 {
        opacity: .2;
      }

      .st2 {
        opacity: .4;
      }
    </style>
  </defs>
  <image class="st0" width="250" height="250" transform="translate(118.6 -120.8) scale(.8)" xlink:href="../../../../Downloads/thumb_clogo_2022-08-08-00-22-55_JgDxAfPmlS5bYUpDKM6EcQXX.webp"/>
  <g>
    <g>
      <g>
        <path class="st3" d="M166.8,121.8h0l-1,.7c0,0,0,0,0,0v-.6s0,0,0-.1l1-.7s0,0,.1,0h.5c0,0,0,0,0,0v5.8c0,0,0,0-.1,0h-.6c0,0,0,0,0,0v-4.9Z"/>
        <path class="st3" d="M171.9,124.3h0c0,0-.1,0-.3,0-.1,0-.2,0-.4,0-.2,0-.5,0-.7-.1-.2,0-.4-.2-.5-.4-.2-.2-.3-.3-.4-.6,0-.2-.1-.5-.1-.7,0-.3,0-.6.1-.8s.2-.4.4-.6c.2-.2.4-.3.6-.4s.5-.1.7-.1.5,0,.7.1c.2,0,.4.2.6.4.2.2.3.3.4.6,0,.2.1.5.1.8,0,.2,0,.5-.1.7s-.2.4-.3.7l-1.5,2.8s0,0-.1,0h-.6c0,0,0,0,0,0l1.3-2.5ZM171.4,123.8c.3,0,.6-.1.8-.3s.3-.5.3-.8,0-.6-.3-.8c-.2-.2-.5-.3-.8-.3s-.6.1-.8.3-.3.5-.3.8,0,.6.3.8c.2.2.4.3.8.3Z"/>
        <path class="st3" d="M174.3,125.2c0-.2,0-.5.1-.7s.2-.4.3-.7l1.5-2.8s0,0,.1,0h.6c0,0,0,0,0,0l-1.3,2.5h0c0,0,.1,0,.3,0,.1,0,.2,0,.4,0,.2,0,.5,0,.7.1.2,0,.4.2.5.4.2.2.3.3.4.6,0,.2.1.5.1.7s0,.6-.1.8-.2.4-.4.6c-.2.2-.4.3-.6.4-.2,0-.5.1-.7.1s-.5,0-.7-.1c-.2,0-.4-.2-.6-.4-.2-.2-.3-.3-.4-.6,0-.2-.1-.5-.1-.8ZM175.1,125.2c0,.3,0,.6.3.8.2.2.5.3.8.3s.6-.1.8-.3.3-.5.3-.8,0-.6-.3-.8c-.2-.2-.5-.3-.8-.3s-.6.1-.8.3c-.2.2-.3.5-.3.8Z"/>
        <path class="st3" d="M180.7,121.9h0l-1,.7c0,0,0,0,0,0v-.6s0,0,0-.1l1-.7s0,0,.1,0h.5c0,0,0,0,0,0v5.8c0,0,0,0-.1,0h-.6c0,0,0,0,0,0v-4.9Z"/>
      </g>
      <g>
        <path class="st3" d="M194.6,120.8c-.2,0-.5,0-.7-.1-6.3-2.2-12.5-5.9-18.5-10.8-7.4,4.6-14.9,8.2-22.2,10.7-.6.2-1.3.1-1.9-.3-.5-.4-.9-1-.9-1.7v-45.5c0-4.2,3.4-7.6,7.6-7.6h31.1c4.2,0,7.6,3.4,7.6,7.6v45.7c0,.7-.3,1.3-.9,1.7-.4.3-.8.4-1.2.4ZM151.9,116.8s0,0,0,0c0,0,0,0,0,0ZM178.8,107.6c4.6,3.6,9.2,6.5,13.9,8.4v-43c0-2-1.6-3.7-3.7-3.7h-31.1c-2,0-3.7,1.6-3.7,3.7v42.9c5.9-2.2,12-5.2,17.9-8.8-7.9-7.1-13.1-14.5-15.1-17.5l-.8-1.1,8.6-11.8,1.6,1.4c5.2,4.7,10.3,7.9,15.4,9.9l6.9-1.6,1.6,12.2-.8.7c-1.5,1.3-5.3,4.5-10.9,8.1ZM161.2,88.7c2.2,3.2,7.3,10,14.5,16.3,5-3.3,8.7-6.2,10.6-7.8l-.8-5.9-3.8.9-.6-.2c-5.2-2-10.3-5.1-15.5-9.5l-4.5,6.1Z"/>
        <path class="st2" d="M174.3,108.9c.4.3.7.6,1.1.9-1.3.8-2.6,1.6-3.9,2.3-1-.9-2.1-1.8-3.1-2.7,1.3-.7,2.6-1.5,3.8-2.2.7.6,1.3,1.2,2,1.8Z"/>
        <path class="st1" d="M182.5,105.1c-1.1.8-2.3,1.6-3.7,2.5-.7-.5-1.4-1.1-2-1.7-.4-.3-.7-.6-1.1-.9,1.3-.8,2.5-1.7,3.6-2.5,0,0,.1.1.2.2,1,.8,2,1.6,2.9,2.4Z"/>
      </g>
    </g>
    <g>
      <g>
        <g>
          <g>
            <polygon class="st3" points="19.7 93.6 18.8 92.6 17.8 93.6 18.8 94.5 19.7 93.6"/>
            <polygon class="st3" points="22 93.6 21 92.6 20.1 93.6 21 94.5 22 93.6"/>
            <path class="st3" d="M34.6,98.7c-.2-.3-.5-.5-.8-.7s-.6-.3-.9-.3-.8.1-1.2.4-.7.7-1,1.3l-.9,1.5c-.1.2-.2.4-.3.5-.1.1-.2.2-.4.3s-.3.1-.4.2-.3,0-.5,0h-4.6c-.5,0-.9,0-1.1-.3s-.3-.5-.3-.9v-5.2c0,0-1.2.2-1.2.2v.9c-1.2.3-2.2.7-2.9,1.2s-1,1.2-1,2,0,.6.2.9c.1.3.3.5.5.7.2.2.5.3.8.4s.6.1,1,.1c.6,0,1.1-.1,1.5-.4.2,1.2,1,1.7,2.5,1.7h4.6c.5,0,.9,0,1.2-.3.3-.2.7-.5.9-.9.3.4.7.7,1.1.9.4.2.9.3,1.5.3.7,0,1.3-.2,1.8-.7.4-.4.6-1.1.6-1.9s0-.9-.2-1.3c-.1-.4-.3-.7-.5-1ZM19.7,100.7c-.2,0-.4,0-.6,0-.2,0-.4,0-.5-.2s-.3-.2-.4-.3-.1-.3-.1-.5,0-.4.2-.6c.2-.2.4-.4.6-.5.3-.1.6-.3.9-.4.3,0,.7-.2,1.1-.2v2.5c-.3.1-.8.2-1.3.2ZM34,101.8c-.2.2-.5.3-.9.3s-.8,0-1.2-.3c-.4-.2-.7-.4-.9-.7l.5-.9c.4-.7.8-1.1,1.4-1.1s.4,0,.6.1.3.2.5.4.2.4.3.6c0,.2.1.5.1.7,0,.4-.1.7-.3.9Z"/>
            <path class="st3" d="M57.1,101.2c0,.1,0,.3-.2.4s-.2.2-.4.2c-.2,0-.4.1-.6.1-.2,0-.4,0-.6,0-.5,0-1,0-1.4,0-.4,0-.8-.1-1.2-.2.6-.5,1.1-1,1.4-1.4s.5-.9.5-1.3-.3-.9-.8-1.2-1.3-.4-2.3-.4-1.2,0-1.7.2c-.5.1-1,.4-1.3.6l-.2,1.1c.3.5.6.9.9,1.3.3.4.7.7,1,1-.4,0-.8.2-1.2.2s-.9,0-1.4,0h-8c-.5,0-.9,0-1.1-.3s-.3-.5-.3-.9v-7.3c0,0-1.2.2-1.2.2v7.6c0,1.4.9,2.2,2.6,2.2h8c1.6,0,2.9-.3,3.9-.9.6.3,1.2.5,1.8.7.6.1,1.3.2,2,.2h0c.4,0,.7,0,1.1-.1.3,0,.7-.2.9-.4.3-.2.5-.4.7-.7s.3-.7.3-1.1v-7.6c0,0-1.2.2-1.2.2v7.5ZM51.6,101.3c-.2-.1-.4-.2-.6-.4-.2-.2-.4-.3-.6-.5-.2-.2-.4-.4-.5-.6-.2-.2-.3-.4-.4-.6.2-.1.5-.3.8-.3.4,0,.8-.1,1.2-.1s.5,0,.8,0,.5,0,.6.1c.2,0,.3.1.4.2.1,0,.2.2.2.3s0,.2-.2.4c-.1.2-.3.4-.5.5s-.4.4-.7.6c-.2.2-.5.3-.7.4Z"/>
            <polygon class="st3" points="60.2 93.7 60.3 103.4 61.4 103.4 61.5 93.4 60.2 93.7"/>
            <polygon class="st3" points="77.7 93.7 77.8 103.4 78.9 103.4 79 93.4 77.7 93.7"/>
          </g>
          <path class="st3" d="M71.1,101.1c0,.7-.2,1.3-.7,1.8s-1.1.7-1.9.7-1.5-.2-2-.6-.7-1-.7-1.8,0-1,.2-1.4c.1-.4.3-.8.6-1.2.2-.3.5-.6.8-.8.3-.2.7-.3,1-.3s.7,0,1,.3.6.5.8.8c.2.3.4.7.6,1.2.1.5.2.9.2,1.5ZM67.3,96.1l-1-1,1-1,1,1-1,1ZM70.1,101.2c0-.4,0-.7-.1-1,0-.3-.2-.6-.3-.8-.1-.2-.3-.4-.5-.5-.2-.1-.4-.2-.6-.2s-.4,0-.6.2-.4.3-.5.4c-.1.2-.3.4-.3.6,0,.2-.1.5-.1.8,0,.4.1.8.4,1s.7.3,1.2.3.4,0,.6,0c.2,0,.4-.1.5-.2.1,0,.3-.2.3-.3,0-.1.1-.2.1-.3ZM69.6,96.1l-1-1,1-1,1,1-1,1Z"/>
          <path class="st3" d="M71.4,105.2c.6-.2,1.1-.4,1.5-.7.5-.3.9-.5,1.2-.8.3-.3.6-.6.8-.9s.3-.6.3-.8,0-.4-.1-.6-.2-.5-.3-.8c-.1-.3-.3-.6-.5-.9-.2-.3-.4-.6-.6-1l1.1-.6c.4.6.8,1.2,1,1.9s.4,1.3.4,2c0,1-.4,1.9-1.1,2.7-.7.8-1.8,1.5-3.1,1.9l-.7-1.2Z"/>
          <path class="st3" d="M80.4,101.9c.3,0,.6,0,.9.1s.6,0,.9,0,.6,0,.9,0c.3,0,.6,0,.8-.1.2,0,.4-.1.5-.2s.2-.1.2-.2c0-.2,0-.5-.2-.8-.1-.3-.3-.6-.5-1s-.5-.7-.8-1-.6-.7-.9-.9l1-.9c.4.3.7.7,1,1.1s.6.8.8,1.2c.2.4.4.8.5,1.2s.2.8.2,1.1c0,.7-.3,1.2-.8,1.5-.5.3-1.4.5-2.7.5s-.5,0-.7,0-.5,0-.7,0l-.3-1.4Z"/>
          <path class="st3" d="M86.9,102c.2-.2.5-.4.7-.6.2-.2.5-.5.7-.7.2-.3.5-.5.7-.8.2-.3.4-.5.6-.8-.5-.6-1.1-1.2-1.7-1.7s-1.2-1.1-1.8-1.5l.9-1c.3.2.5.5.8.7.3.3.6.5.9.8.3.3.6.6.8.9s.5.6.7.8c.3-.6.5-1.2.6-1.9.1-.7.2-1.5.2-2.4l1.2-.2c0,1-.1,1.9-.4,2.8-.2.9-.6,1.7-1,2.5.6.7,1,1.3,1.2,1.7.2.5.4.9.4,1.2,0,.6-.3,1-.8,1.3-.5.3-1.2.4-2.2.4s-.9,0-1.3,0-.8-.2-1-.3l-.2-1.1ZM88.7,106.9c-.8,0-1.6.2-2.4.5l-.2-.6.8-.3c-.3-.2-.5-.5-.5-.8s.1-.6.4-.8c.2-.2.5-.3.8-.3s.6.1.9.4l-.3.4c-.2,0-.3-.1-.5-.1s-.3,0-.5.1c-.1,0-.2.2-.2.4s0,.3.2.4c.2.1.4.2.6.2.2,0,.3,0,.5,0,.2,0,.3,0,.4,0v.7ZM91.3,101.6c0,0,0-.2,0-.3,0-.1-.1-.3-.2-.4s-.2-.3-.3-.5-.3-.4-.4-.5c-.3.4-.6.8-.9,1.2-.3.4-.7.7-1,1.1.2,0,.4,0,.6,0,.2,0,.4,0,.6,0,.5,0,1,0,1.3-.2.3-.1.5-.3.5-.5Z"/>
          <path class="st3" d="M94.3,103.4v-9.7c0,0,1.1-.2,1.1-.2v9.9h-1.1Z"/>
          <path class="st3" d="M140.3,99.7c-.1-.4-.3-.7-.5-1-.2-.3-.5-.5-.8-.7s-.6-.3-.9-.3-.8.1-1.2.4-.7.7-1,1.3l-.9,1.5c-.1.2-.2.4-.3.5-.1.1-.2.2-.4.3s-.3.1-.4.2c-.2,0-.3,0-.5,0-.5,0-1,0-1.4,0-.4,0-.8-.1-1.2-.2.6-.5,1.1-1,1.4-1.4.3-.5.5-.9.5-1.3s-.3-.9-.8-1.2c-.6-.3-1.3-.4-2.3-.4s-1.2,0-1.7.2-1,.4-1.3.6l-.2,1.1c.3.5.6.9.9,1.3.3.4.7.7,1,1-.4,0-.8.2-1.2.2-.4,0-.9,0-1.4,0h-5.2c.4-.5.7-1.1.7-1.8s0-.7-.2-1.1c-.1-.3-.3-.7-.4-.9s-.4-.5-.6-.6c-.2-.2-.5-.2-.7-.2s-.7.1-1,.4-.6.6-.9,1.1c-.3.4-.5.9-.7,1.5s-.3,1.1-.4,1.7h-9.4c-.4,0-.8,0-1-.2s-.4-.4-.5-.7c-.5-1.3-1.1-2.6-1.6-4.1l-1.2.6c.2.5.4,1,.5,1.4.2.4.3.8.4,1.1.1.3.3.6.4.9.1.3.2.5.3.7-.3.1-.6.2-1,.3s-.9.1-1.4.1-.6,0-.9,0-.6,0-.9-.1l.3,1.4c.2,0,.4,0,.7,0s.5,0,.7,0c.8,0,1.5,0,2-.2.5-.1.9-.3,1.1-.6.2.2.5.4.8.5s.7.2,1.1.2h9c.1,0,.3,0,.4,0,0,.5.2.9.3,1.3.2.4.4.8.6,1s.6.5.9.7c.3.2.7.2,1.1.2s.7,0,.9-.2c.3-.1.5-.2.7-.4.2-.2.4-.4.5-.7.1-.3.2-.5.2-.8,0-.5-.1-.9-.4-1.2h4.5c1.6,0,2.9-.3,3.9-.9.6.3,1.2.5,1.8.7.6.1,1.3.2,2,.2s.9,0,1.2-.3c.3-.2.7-.5.9-.9.3.4.7.7,1.1.9.4.2.9.3,1.5.3.7,0,1.3-.2,1.8-.7.4-.4.6-1.1.6-1.9,0-.4,0-.9-.2-1.3ZM117.5,100.7c.1-.4.3-.7.5-1,.2-.3.4-.5.6-.7s.4-.3.6-.3.3,0,.4.1.2.2.3.3c0,.1.2.3.2.5s0,.4,0,.6c0,.5-.2.9-.7,1.2-.5.3-1.2.4-2.3.5,0-.4.1-.8.3-1.2ZM120.2,105c-.2.2-.5.3-.9.3-.6,0-1-.2-1.3-.5-.3-.3-.6-.8-.7-1.5.7,0,1.3-.2,1.8-.4,1,.2,1.5.7,1.5,1.5,0,.3-.1.5-.3.7ZM129.6,101.3c-.2-.1-.4-.2-.6-.4-.2-.2-.4-.3-.6-.5s-.4-.4-.5-.6-.3-.4-.4-.6c.2-.1.5-.3.8-.3.4,0,.8-.1,1.2-.1s.5,0,.8,0,.5,0,.6.1c.2,0,.3.1.4.2.1,0,.2.2.2.3s0,.2-.2.4c-.1.2-.3.4-.5.5s-.4.4-.7.6c-.2.2-.5.3-.7.4ZM139.2,101.8c-.2.2-.5.3-.9.3s-.8,0-1.2-.3c-.4-.2-.7-.4-.9-.7l.5-.9c.4-.7.8-1.1,1.4-1.1s.4,0,.6.1.3.2.5.4.2.4.3.6.1.5.1.7c0,.4-.1.7-.3.9Z"/>
        </g>
        <g>
          <path class="st3" d="M.8,110.3h.9v6.7h-.9v-6.7Z"/>
          <path class="st3" d="M5.4,112.1c.6,0,1,.2,1.3.5s.5.8.5,1.4v2.9h-.8v-2.9c0-.4-.1-.7-.3-.9-.2-.2-.5-.3-.9-.3s-.7.1-1,.4-.4.7-.4,1.2v2.5h-.8v-4.8h.8v.7c.3-.5.9-.8,1.6-.8Z"/>
          <path class="st3" d="M9.1,113.5c0,.2,0,.3.3.4.2.1.4.2.7.3.3,0,.5.2.8.2s.5.2.7.4c.2.2.3.5.3.8s-.2.8-.5,1c-.3.3-.8.4-1.3.4s-.9-.1-1.2-.3c-.3-.2-.6-.5-.7-.8l.7-.4c0,.2.2.4.4.5s.5.2.8.2.5,0,.7-.2c.2-.1.3-.3.3-.5s0-.3-.3-.4-.4-.2-.7-.3-.5-.2-.8-.2-.5-.2-.7-.4c-.2-.2-.3-.5-.3-.8s.2-.8.5-1,.7-.4,1.2-.4.7,0,1,.3c.3.2.5.4.7.7l-.7.4c-.2-.4-.5-.6-1-.6s-.4,0-.6.2c-.2.1-.2.3-.2.5Z"/>
          <path class="st3" d="M15.2,113h-1.3v2.6c0,.2,0,.4.1.5,0,0,.2.1.4.2s.4,0,.7,0v.7c-.7,0-1.3,0-1.6-.2-.3-.2-.5-.6-.5-1.2v-2.6h-.9v-.8h.9v-1.1l.8-.2v1.3h1.3v.8h0Z"/>
          <path class="st3" d="M16.6,111.3c-.2,0-.3,0-.4-.2s-.2-.2-.2-.4,0-.3.2-.4.2-.2.4-.2.3,0,.4.2c.1.1.2.2.2.4s0,.3-.2.4c-.1.1-.2.2-.4.2ZM16.1,117v-4.8h.8v4.8h-.8Z"/>
          <path class="st3" d="M20.8,113h-1.3v2.6c0,.2,0,.4.1.5,0,0,.2.1.4.2s.4,0,.7,0v.7c-.7,0-1.3,0-1.6-.2-.3-.2-.5-.6-.5-1.2v-2.6h-.9v-.8h.9v-1.1l.8-.2v1.3h1.3v.8h0Z"/>
          <path class="st3" d="M25.1,112.2h.8v4.8h-.8v-.7c-.3.5-.9.8-1.5.8s-1-.2-1.3-.5-.5-.8-.5-1.4v-2.9h.8v2.9c0,.4.1.7.3.9.2.2.5.3.9.3s.7-.1,1-.4.4-.7.4-1.2c0,0,0-2.5,0-2.5Z"/>
          <path class="st3" d="M29.8,113h-1.3v2.6c0,.2,0,.4.1.5,0,0,.2.1.4.2.2,0,.4,0,.7,0v.7c-.7,0-1.3,0-1.6-.2-.3-.2-.5-.6-.5-1.2v-2.6h-.9v-.8h.9v-1.1l.8-.2v1.3h1.3v.8h0Z"/>
          <path class="st3" d="M31.2,115c0,.4.3.8.6,1s.7.4,1.1.4,1.1-.2,1.4-.7l.7.4c-.5.7-1.2,1.1-2.1,1.1s-1.4-.2-1.8-.7c-.5-.5-.7-1.1-.7-1.8s.2-1.3.7-1.8,1.1-.7,1.8-.7,1.3.2,1.7.7.7,1.1.7,1.8,0,.2,0,.4h-4ZM32.8,112.9c-.4,0-.8.1-1.1.4s-.5.6-.5,1h3.2c0-.5-.2-.8-.5-1-.3-.2-.6-.4-1-.4Z"/>
          <path class="st3" d="M42.5,116.4c-.5.5-1.1.7-1.8.7s-1.3-.2-1.8-.7c-.5-.5-.7-1.1-.7-1.8s.2-1.3.7-1.8c.5-.5,1.1-.7,1.8-.7s1.3.2,1.8.7c.5.5.7,1.1.7,1.8s-.2,1.3-.7,1.8ZM40.8,116.3c.5,0,.9-.2,1.2-.5s.5-.7.5-1.2-.2-.9-.5-1.2c-.3-.3-.7-.5-1.2-.5s-.9.2-1.2.5-.5.7-.5,1.2.2.9.5,1.2c.3.3.7.5,1.2.5Z"/>
          <path class="st3" d="M46.5,111c-.8,0-1.3.3-1.3,1.1h0c0,.1,1.3.1,1.3.1v.8h-1.3v4h-.8v-4h-.8v-.8h.8c0-.8.2-1.3.5-1.6.4-.3.9-.5,1.6-.4v.8Z"/>
          <path class="st3" d="M52.1,110.3c.6,0,1.1.2,1.5.6s.6.9.6,1.5-.2,1.1-.6,1.5c-.4.4-.9.6-1.5.6h-1.5v2.4h-.9v-6.7h2.4ZM52.1,113.8c.4,0,.7-.1.9-.4s.4-.6.4-.9-.1-.7-.4-.9c-.2-.2-.5-.4-.9-.4h-1.5v2.6h1.5Z"/>
          <path class="st3" d="M58.5,112.2h.8v4.8h-.8v-.7c-.3.5-.9.8-1.5.8s-1-.2-1.3-.5-.5-.8-.5-1.4v-2.9h.8v2.9c0,.4.1.7.3.9.2.2.5.3.9.3s.7-.1,1-.4.4-.7.4-1.2v-2.5Z"/>
          <path class="st3" d="M63.2,112.1c.7,0,1.2.2,1.7.7.5.5.7,1.1.7,1.8s-.2,1.3-.7,1.8c-.5.5-1,.7-1.7.7s-1.4-.3-1.8-.9v.8h-.8v-6.7h.8v2.7c.4-.6,1-.9,1.8-.9ZM63.1,116.3c.5,0,.9-.2,1.2-.5.3-.3.5-.7.5-1.2s-.2-.9-.5-1.2-.7-.5-1.2-.5-.9.2-1.2.5c-.3.3-.5.7-.5,1.2s.2.9.5,1.2c.3.3.7.5,1.2.5Z"/>
          <path class="st3" d="M66.6,117v-7h.8v7h-.8Z"/>
          <path class="st3" d="M69.1,111.3c-.2,0-.3,0-.4-.2s-.2-.2-.2-.4,0-.3.2-.4.2-.2.4-.2.3,0,.4.2.2.2.2.4,0,.3-.2.4c-.1.1-.2.2-.4.2ZM68.7,117v-4.8h.8v4.8h-.8Z"/>
          <path class="st3" d="M73,117.1c-.7,0-1.3-.2-1.8-.7s-.7-1.1-.7-1.8.2-1.3.7-1.8c.5-.5,1.1-.7,1.8-.7s.9.1,1.3.3.7.5.8.9l-.7.4c-.1-.3-.3-.5-.6-.6s-.5-.2-.9-.2c-.5,0-.9.2-1.2.5s-.5.7-.5,1.2.2.9.5,1.2.7.5,1.2.5.6,0,.9-.2.4-.3.6-.6l.7.4c-.2.4-.5.7-.9.9-.4.2-.8.3-1.3.3Z"/>
          <path class="st3" d="M82.9,117l-.5-1.5h-3l-.5,1.5h-.9l2.5-6.7h1l2.5,6.7h-.9ZM79.6,114.7h2.4l-1.2-3.3-1.2,3.3Z"/>
          <path class="st3" d="M88.4,110.3h.8v6.7h-.8v-.8c-.4.6-1,.9-1.8.9s-1.2-.2-1.7-.7c-.5-.5-.7-1.1-.7-1.8s.2-1.3.7-1.8c.5-.5,1-.7,1.7-.7s1.4.3,1.8.9v-2.7ZM86.7,116.3c.5,0,.9-.2,1.2-.5.3-.3.5-.7.5-1.2s-.2-.9-.5-1.2c-.3-.3-.7-.5-1.2-.5s-.9.2-1.2.5c-.3.3-.5.7-.5,1.2s.2.9.5,1.2c.3.3.7.5,1.2.5Z"/>
          <path class="st3" d="M95.6,112.1c.5,0,1,.2,1.3.5s.5.8.5,1.4v3h-.8v-2.9c0-.4,0-.7-.3-.9-.2-.2-.4-.3-.8-.3s-.6.1-.9.4-.3.6-.3,1.1v2.7h-.8v-2.9c0-.4,0-.7-.3-.9-.2-.2-.4-.3-.7-.3s-.6.1-.9.4c-.2.2-.3.6-.3,1.1v2.7h-.8v-4.8h.8v.6c.3-.5.8-.8,1.4-.8s1.1.3,1.4.8c.3-.5.8-.8,1.5-.8Z"/>
          <path class="st3" d="M99,111.3c-.2,0-.3,0-.4-.2s-.2-.2-.2-.4,0-.3.2-.4.2-.2.4-.2.3,0,.4.2.2.2.2.4,0,.3-.2.4c-.1.1-.2.2-.4.2ZM98.6,117v-4.8h.8v4.8h-.8Z"/>
          <path class="st3" d="M103,112.1c.6,0,1,.2,1.3.5.3.4.5.8.5,1.4v2.9h-.8v-2.9c0-.4-.1-.7-.3-.9-.2-.2-.5-.3-.9-.3s-.7.1-1,.4-.4.7-.4,1.2v2.5h-.8v-4.8h.8v.7c.3-.5.9-.8,1.6-.8Z"/>
          <path class="st3" d="M106.5,111.3c-.2,0-.3,0-.4-.2s-.2-.2-.2-.4,0-.3.2-.4.2-.2.4-.2.3,0,.4.2.2.2.2.4,0,.3-.2.4c-.1.1-.2.2-.4.2ZM106.1,117v-4.8h.8v4.8h-.8Z"/>
          <path class="st3" d="M108.9,113.5c0,.2,0,.3.3.4.2.1.4.2.7.3.3,0,.5.2.8.2.3,0,.5.2.7.4.2.2.3.5.3.8s-.2.8-.5,1c-.3.3-.8.4-1.3.4s-.9-.1-1.2-.3c-.3-.2-.6-.5-.7-.8l.7-.4c0,.2.2.4.4.5s.5.2.8.2.5,0,.7-.2c.2-.1.3-.3.3-.5s0-.3-.3-.4-.4-.2-.7-.3-.5-.2-.8-.2c-.3,0-.5-.2-.7-.4-.2-.2-.3-.5-.3-.8s.2-.8.5-1,.7-.4,1.2-.4.7,0,1,.3c.3.2.5.4.7.7l-.7.4c-.2-.4-.5-.6-1-.6s-.4,0-.6.2c-.2.1-.2.3-.2.5Z"/>
          <path class="st3" d="M114.9,113h-1.3v2.6c0,.2,0,.4.1.5,0,0,.2.1.4.2s.4,0,.7,0v.7c-.7,0-1.3,0-1.6-.2-.3-.2-.5-.6-.5-1.2v-2.6h-.9v-.8h.9v-1.1l.8-.2v1.3h1.3v.8h0Z"/>
          <path class="st3" d="M116.8,113c.3-.6.8-.9,1.5-.9v.9c-.4,0-.8,0-1,.3-.3.2-.4.6-.4,1.1v2.5h-.8v-4.8h.8v.8Z"/>
          <path class="st3" d="M122.8,112.2h.8v4.8h-.8v-.8c-.4.6-1,.9-1.8.9s-1.2-.2-1.7-.7c-.5-.5-.7-1.1-.7-1.8s.2-1.3.7-1.8c.5-.5,1-.7,1.7-.7s1.4.3,1.8.9v-.8ZM121.1,116.3c.5,0,.9-.2,1.2-.5.3-.3.5-.7.5-1.2s-.2-.9-.5-1.2c-.3-.3-.7-.5-1.2-.5s-.9.2-1.2.5c-.3.3-.5.7-.5,1.2s.2.9.5,1.2c.3.3.7.5,1.2.5Z"/>
          <path class="st3" d="M127.4,113h-1.3v2.6c0,.2,0,.4.1.5,0,0,.2.1.4.2s.4,0,.7,0v.7c-.7,0-1.3,0-1.6-.2-.3-.2-.5-.6-.5-1.2v-2.6h-.9v-.8h.9v-1.1l.8-.2v1.3h1.3v.8h0Z"/>
          <path class="st3" d="M128.8,111.3c-.2,0-.3,0-.4-.2s-.2-.2-.2-.4,0-.3.2-.4.2-.2.4-.2.3,0,.4.2.2.2.2.4,0,.3-.2.4c-.1.1-.2.2-.4.2ZM128.4,117v-4.8h.8v4.8h-.8Z"/>
          <path class="st3" d="M134.6,116.4c-.5.5-1.1.7-1.8.7s-1.3-.2-1.8-.7-.7-1.1-.7-1.8.2-1.3.7-1.8c.5-.5,1.1-.7,1.8-.7s1.3.2,1.8.7c.5.5.7,1.1.7,1.8s-.2,1.3-.7,1.8ZM132.8,116.3c.5,0,.9-.2,1.2-.5s.5-.7.5-1.2-.2-.9-.5-1.2c-.3-.3-.7-.5-1.2-.5s-.9.2-1.2.5-.5.7-.5,1.2.2.9.5,1.2c.3.3.7.5,1.2.5Z"/>
          <path class="st3" d="M138.6,112.1c.6,0,1,.2,1.3.5.3.4.5.8.5,1.4v2.9h-.8v-2.9c0-.4-.1-.7-.3-.9-.2-.2-.5-.3-.9-.3s-.7.1-1,.4-.4.7-.4,1.2v2.5h-.8v-4.8h.8v.7c.3-.5.9-.8,1.6-.8Z"/>
        </g>
        <g>
          <path class="st3" d="M95.2,69.5v18.4h3.4v-18.4h-3.4Z"/>
          <path class="st3" d="M111.6,69.5h-7.7v18.4h3.4v-5.6h4.5c5.1,0,7.6-2,7.6-6.4,0-4.4-2.5-6.4-7.8-6.4ZM111.5,79.3h-4.2v-6.8h4.2c3,0,4.4,1.1,4.4,3.4s-1.4,3.4-4.4,3.4Z"/>
          <path class="st3" d="M132.8,69.5h-4.5l-7.7,18.4h3.9l6.1-14.9,6.1,14.9h3.9l-7.8-18.4Z"/>
        </g>
      </g>
      <path class="st3" d="M6.8,93.3c-3.3,0-6,2.7-6,6s2.7,6,6,6,6-2.7,6-6-2.7-6-6-6ZM11,100c-.6,0-1.2,0-1.7.1-.3,0-.5.2-.7.3-.2,0-.3.2-.5.2-.1,0-.2.1-.3.2-.3.2-.5.4-.7.6.3.2.5.5.7.7.1.1.2.2.3.3.2.2.3.3.5.4,0,0,.1,0,.2,0,0-.1.2-.2.4-.1,0,0,.1,0,.2,0,0,0,0,.1.1.2,0,.1,0,.3,0,.3,0,0,0,0,0,0-.2.2-.5.2-.7,0-.1,0-.3-.2-.5-.3-.1,0-.2-.2-.3-.3-.3-.3-.6-.6-.9-.9,0,0-.1-.1-.2-.2,0,0-.1.1-.2.2-.7.7-1.3,1.3-1.8,1.5-.3.1-.5,0-.7,0,0,0-.1-.2,0-.3,0-.1.1-.3.3-.3.2,0,.3,0,.4.1,0,0,0,0,0,0,.4-.2.9-.8,1.6-1.4-.5-.4-1-.8-1.6-1.1-.4-.2-.9-.3-1.4-.4-.4,0-.9,0-1.4.1,0,0,0,0-.1,0,0,0,0,0,0,0,0,0,0,0,.1,0,.3-.1.8-.3,1.4-.4.4,0,.9,0,1.4.2,0,0,.1,0,.2,0,.5.2,1,.5,1.5.9.3-1.7.1-3.2,0-3.9,0,0,0,0,0,0-.6.4-.4,1.4-.3,1.7,0,0,0,0,0,0-.7-.9-.4-1.8-.2-2.1,0,0,0,0,0,0-.7.5-.6,1.2-.6,1.6,0,0,0,0,0,0-.3-.5-.3-1.4.5-2.1,0,0,0,0,0,0-.7.2-1,.9-1,1.4h0s0,0,0,0c-.1-.4,0-.7,0-.9.2-.6.8-.8,1.1-.8,0,0,0,0,0,0-.5,0-.9.1-1.1.3-.1.1-.2.2-.2.3,0,0,0,0,0,0,0-.2,0-.4.2-.5.3-.4.9-.5,1.3-.3,0,0,0,0,0,0-.3-.4-.8-.4-1-.3,0,0,0,0,0,0,.4-.5,1.1-.5,1.4,0,0,0,0,0,0,0,0,0,0-.1.1-.2,0-.2.1-.4.2-.6,0,0,0,0,0,0,0,.2.1.4.2.6,0,0,0,.2.1.2,0,0,0,0,0,0,.2-.3.5-.4.8-.4.1,0,.2,0,.3.1.1,0,.2.1.3.2,0,0,0,0,0,0,0,0-.2,0-.3,0-.1,0-.2,0-.3,0-.2,0-.3.1-.4.3,0,0,0,0,0,0,.1,0,.3,0,.4,0,.1,0,.2,0,.3,0,.2,0,.3.1.5.2.2.1.3.4.3.6,0,0,0,0,0,0,0,0-.1-.2-.3-.3-.1,0-.3-.1-.5-.2,0,0-.2,0-.3,0,0,0-.1,0-.2,0,0,0,0,0,0,0,0,0,.1,0,.2,0,0,0,.2,0,.3.1.2,0,.3.2.5.4.2.3.3.7.1,1.2,0,0,0,0,0,0,0-.2,0-.4-.1-.6,0-.2-.2-.5-.5-.6,0,0-.2-.1-.3-.2,0,0,0,0-.1,0,0,0,0,0,0,0,0,0,0,0,.1.1.1.1.3.3.3.5.3.6.2,1.2,0,1.5h0s0,0,0,0c0,0,0,0,0,0,0-.1,0-.3,0-.4,0-.3-.1-.6-.3-.9,0,0-.2-.2-.3-.3,0,0,0,0,0,0,.2.2.5,1.2-.2,2.1,0,0,0,0,0,0,.1-.3.3-1.3-.3-1.7,0,0,0,0,0,0,0,.8-.2,2.3,0,3.9.2-.2.5-.4.7-.5.1,0,.2-.1.3-.2.1,0,.3-.1.4-.2,0,0,0,0,0,0,.3,0,.5-.2.7-.2.7-.1,1.3,0,1.7.1.3,0,.5.2.6.3,0,0,0,0,0,0-.2,0-.4-.1-.6-.1Z"/>
    </g>
  </g>
</svg>