<?xml version="1.0" encoding="UTF-8"?>
<svg id="Layer_1" xmlns="http://www.w3.org/2000/svg" version="1.1" viewBox="0 0 180 60">
  <!-- Generator: Adobe Illustrator 30.3.0, SVG Export Plug-In . SVG Version: 2.1.3 Build 182)  -->
  <defs>
    <style>
      .st0, .st1 {
        fill: #fff;
      }

      .st1 {
        font-family: Arial-BoldMT, Arial;
        font-size: 18px;
        font-weight: 700;
        isolation: isolate;
      }

      .st1, .st2 {
        display: none;
      }

      .st2 {
        fill: none;
      }
    </style>
  </defs>
  <rect class="st2" width="180" height="60"/>
  <text class="st1" transform="translate(42 38)"><tspan x="0" y="0">BE GROUP</tspan></text>
  <g>
    <path class="st0" d="M77,36.2c1.7,5.3,6.4,9.1,12,9.6v-2.3c-1.6-.2-3.1-.7-4.5-1.5V12.7s2.2-2.2,2.2-2.2v15.4s0,14.8,0,14.8c.7.2,1.5.4,2.2.5V.5s2.5,2.6,2.5,2.6v42.7s0,2.5,0,2.5c0,0,0,0,0,0-4.6.4-9.1-1.2-12.5-4.3s-5.1-7.2-5.2-11.7,3.2-11.7,8.7-14.7h0s0,0,0,0v2.7c-2.7,1.7-4.6,4.4-5.6,7.4s-.9,5.7,0,8.4Z"/>
    <path class="st0" d="M93.8,45.3c1.5-.4,2.9-1.1,4.2-1.9v-5.4s-4.3,0-4.3,0v-8.5s6.5,0,6.5,0v6.2s3.3,0,3.3,0c1.3-4.7,0-9.7-3.2-13.2v5.4s-6.7,0-6.7,0V10.3c0,0,0,0,0,0l2.4,2.5v13.2s2,0,2,0v-8.3c3.3,1.8,5.8,4.6,7.3,8s1.7,8.3.2,12.3h-5.1s0,3.4,0,3.4v3.5c-1.9,1.5-4.1,2.5-6.4,3.1v-2.7ZM95.9,31.9v3.8s2,0,2,0v-3.8s-2,0-2,0Z"/>
    <path class="st0" d="M86.4,56.8c-.8.3-1.8.3-2.6,0s-1.7-1.4-1.7-2.5.6-2,1.6-2.5,2.4-.4,3.3.2,1.2,1.4,1.2,2.4-.7,2.1-1.7,2.5ZM85.1,55.6c.5,0,.9-.3,1.1-.8s.1-.9,0-1.3-.7-.6-1.1-.6-.8.3-1,.8-.1.7,0,1.1.6.8,1.1.8Z"/>
    <path class="st0" d="M104.3,56h-2s-.4.9-.4.9h-1.8s2.3-5.4,2.3-5.4h1.8s2.3,5.4,2.3,5.4h-1.9s-.4-.9-.4-.9ZM103.8,54.7l-.5-1.3-.5,1.3h1Z"/>
    <polygon class="st0" points="95.7 51.6 97.5 51.6 95.2 56.9 93.4 56.9 91.2 51.6 93.1 51.6 94.4 54.7 95.7 51.6"/>
    <path class="st0" d="M75.4,54.8c.2.7,1,1,1.7.7s.5-.3.6-.5l1.1,1c-.8,1-2.2,1.3-3.5.9-1.2-.4-1.9-1.4-1.9-2.7s.7-2.2,1.9-2.6c1.2-.4,2.7-.2,3.5.9l-1.1,1-.3-.3c-.3-.2-.7-.3-1-.3s-.8.3-.9.7-.2.8,0,1.1Z"/>
    <rect class="st0" x="80.4" y="29.6" width="2.2" height="4.3"/>
    <path class="st0" d="M95.2,59.5v-1.4s-.7,1.2-.7,1.2l-.7-1.2v1.4s-.1,0-.1,0v-1.7c0,0,.1,0,.1,0l.7,1.2.7-1.3h.1s0,1.6,0,1.6h-.1Z"/>
    <path class="st0" d="M75.1,58.6c0,.5-.3.8-.8.8h-.8s0-1.7,0-1.7h.8c.4,0,.8.4.8.8ZM75,58.6c0-.4-.3-.7-.6-.7h-.7s0,1.4,0,1.4h.7c.4,0,.6-.3.6-.7Z"/>
    <path class="st0" d="M101.2,59.5c0,0-.1,0-.1,0l-1.1-1.4v1.4s-.1,0-.1,0v-1.7c0,0,.1,0,.2,0l1.1,1.4v-1.4s.1,0,.1,0v1.6Z"/>
    <path class="st0" d="M89.1,58.6c0,.5-.4.9-.9.9s-.9-.4-.9-.9.4-.9.9-.9.9.4.9.9ZM89,58.6c0-.4-.3-.7-.7-.7s-.7.3-.7.7.3.7.7.7.7-.3.7-.7Z"/>
    <polygon class="st0" points="77.7 58.7 76.8 58.7 76.8 59.4 77.8 59.4 77.8 59.5 76.7 59.5 76.7 57.8 77.8 57.8 77.8 57.9 76.8 57.9 76.8 58.6 77.7 58.6 77.7 58.7"/>
    <polygon class="st0" points="83.2 58.7 82.3 58.7 82.3 59.4 83.4 59.4 83.4 59.5 82.2 59.5 82.2 57.8 83.3 57.8 83.3 57.9 82.3 57.9 82.3 58.6 83.2 58.6 83.2 58.7"/>
    <polygon class="st0" points="98 58.7 97.1 58.7 97.1 59.4 98.2 59.4 98.2 59.5 97 59.5 97 57.8 98.1 57.8 98.1 57.9 97.1 57.9 97.1 58.6 98 58.6 98 58.7"/>
    <path class="st0" d="M90.8,58.9v.5s-.1,0-.1,0v-1.7s.7,0,.7,0c.3,0,.6.2.6.5s-.2.5-.5.6h-.6ZM91.8,58.4c0-.2-.2-.4-.4-.4h-.6s0,.9,0,.9h.6c.2,0,.4-.2.4-.4Z"/>
    <path class="st0" d="M106.3,59.4c-.5.3-1,0-1-.1h0c.2.1.6.2.8,0s.2-.2.2-.3,0-.2-.2-.3h-.5c-.2-.2-.3-.3-.3-.5s0-.3.3-.4c.3-.1.6,0,.8,0h0c-.2,0-.5,0-.7,0s-.2.2-.2.3,0,.2.2.3h.5c.2.2.3.3.3.5s0,.3-.2.4Z"/>
    <path class="st0" d="M80.7,57.8h.1s-.7,1.6-.7,1.6c0,0-.1,0-.1,0l-.7-1.6h.1s.7,1.5.7,1.5l.7-1.5Z"/>
    <polygon class="st0" points="103.4 59.5 103.2 59.5 103.2 57.9 102.6 57.9 102.6 57.8 104 57.8 104 57.9 103.4 57.9 103.4 59.5"/>
    <polygon class="st0" points="86.1 59.4 86.1 59.5 85 59.5 85 57.8 85.1 57.8 85.1 59.4 86.1 59.4"/>
  </g>
</svg>