<?xml version="1.0" encoding="UTF-8"?>
<svg id="Layer_1" data-name="Layer 1" xmlns="http://www.w3.org/2000/svg" viewBox="0 0 197.45 148.57">
  <defs>
    <style>
      .cls-1, .cls-2 {
        fill: #fff;
      }

      .cls-2 {
        fill-rule: evenodd;
      }
    </style>
  </defs>
  <path class="cls-2" d="M110.15,79.32c-.89-.89-2.13-1.45-3.5-1.45s-2.6.55-3.5,1.45c-.89.89-1.45,2.13-1.45,3.5s.55,2.6,1.45,3.5c.89.89,2.13,1.45,3.5,1.45s2.6-.55,3.5-1.45c.89-.89,1.45-2.13,1.45-3.5s-.55-2.6-1.45-3.5h0ZM184.36,84.26h-4.14v29.5h4.14v-29.5h0ZM105.43,109.61l-5.21-9.05c-.1-.17-.17-.36-.17-.59,0-.32.11-.56.32-.74.22-.18.48-.27.79-.27h11.49c.32,0,.57.09.77.3.2.2.3.46.3.77,0,.24-.08.42-.18.59l-5.21,9h-2.9ZM36.06,114.65v-30.39h-4.14v30.39c0,.23-.09.44-.27.62-.17.17-.38.26-.62.26h-7.1c-.95,0-1.82-.18-2.64-.53-.81-.35-1.53-.85-2.15-1.48-.64-.64-1.13-1.35-1.48-2.16-.35-.81-.53-1.69-.53-2.64v-7.4h-4.14v7.4c0,1.51.29,2.92.86,4.27.57,1.34,1.35,2.5,2.34,3.49.99.99,2.15,1.77,3.49,2.34,1.34.57,2.76.86,4.26.86h7.1c1.38,0,2.57-.49,3.56-1.48.99-.99,1.48-2.17,1.48-3.55h0ZM48.5,84.26h-4.14v29.5h4.14v-29.5h0ZM59.8,84.45l-2.96,2.96,2.96,2.9,2.9-2.9-2.9-2.96h0ZM62.12,94.81h-4.14v19.24c0,1.82-.44,3.09-1.31,3.82-.87.73-2,1.09-3.38,1.09-.75,0-1.55-.08-2.42-.23-.87-.16-1.75-.41-2.67-.77-.03,0-.15.19-.32.59-.18.39-.35.83-.53,1.31-.18.47-.35.9-.5,1.27-.16.37-.21.55-.18.5,2.73,1.06,5.17,1.6,7.34,1.6,2.53,0,4.51-.77,5.95-2.33,1.44-1.56,2.16-3.94,2.16-7.13h110.11v-29.5h-4.14v25.36h-54.95c.44-.75.93-1.54,1.48-2.37.55-.83,1.06-1.66,1.54-2.51.48-.85.88-1.68,1.22-2.49.33-.81.5-1.55.5-2.22,0-1.46-.51-2.69-1.51-3.69-1.01-1.01-2.24-1.51-3.7-1.51h-11.49c-1.46,0-2.69.51-3.7,1.51-1,1-1.51,2.24-1.51,3.69,0,.71.17,1.47.5,2.28.34.81.74,1.63,1.22,2.46.47.83.97,1.66,1.51,2.49.53.83,1.02,1.62,1.45,2.37h-38.51v-14.8h0Z"/>
  <path class="cls-2" d="M111.6,52.2c-2.19.16-4.47.55-6.8,1.16-2.49.66-1.92.54-.55-1.83.91-1.57.43-1.81,2.09-2.4,2.05-.74,3.89-1.26,6.13-1.74,4.65-.98,7.34-2.51,5.12,1.84-2.14,4.18-1.32,2.63-5.99,2.97h0Z"/>
  <path class="cls-2" d="M120.52,52.92c-2.73-.71-1.41-1.23,0-4.3,1.13-2.47.54-2.33,3.27-2.25,3.09.09,2.88-.25,1.43,2.21-1.78,3.03-1.71,5.12-4.69,4.34h0Z"/>
  <path class="cls-2" d="M127.31,56.14c-2.47-1.87-3.02-.8-1.6-3.48l2.14-4.04c1.41-2.66,2.23-1.76,5.43-.87,4.17,1.16,2.97,1.06.09,4.02l-3,3.08c-1.62,1.66-1.48,2.49-3.06,1.29h0Z"/>
  <path class="cls-2" d="M131.43,60.68c-1.59-2.59-1.45-1.62.93-4.29l4.03-4.53c2.2-2.46,1.62-2.66,4.61-.78,1.44.91,2.77,1.95,3.97,3.15,2.27,2.26,2.05,1.85-.48,3.16l-9.67,4.99c-2.86,1.48-1.7,1.03-3.39-1.72h0Z"/>
  <path class="cls-2" d="M134.11,68.82c-.37-3.31-1.03-2.3,2.12-4.11l8.61-4.94c4.49-2.58,4.68-.35,5.97,5.19,1.26,5.44,1.39,5.4-3.19,6.22l-9.98,1.8c-4.9.88-2.99.76-3.54-4.15h0Z"/>
  <path class="cls-2" d="M146.62,88.35c-4.96-1.12-9.92-2.23-14.89-3.35.66-1.88,1.18-3.69,1.58-5.41.88-3.84.09-2.88,4.25-3.82l9.02-2.04c4.94-1.12,5.25-2.24,4.11,3.14-.76,3.57-2.11,7.4-4.07,11.48h0Z"/>
  <path class="cls-2" d="M113.81,82.02c12.58,3.24,27.71,6.94,34.34,9.09-6.92-.93-22.06-3.37-34.91-5.39.39-.89.61-1.87.61-2.91,0-.27-.01-.53-.04-.79h0ZM88.71,63.32c2.35,4.15,6.45,10.12,8.73,14.2.96.31,2.11.66,3.4,1.03-.88,1.19-1.4,2.67-1.4,4.27,0,.27.01.53.04.79-1.5-.22-2.84-.41-3.96-.56l-10.71-18.77c.5-.15,1.03-.27,1.6-.35.57-.1.76-.19,1.24-.29.43-.13.76-.23,1.05-.32h0Z"/>
  <path class="cls-2" d="M67.09,43.94c.67,0,4.29-2.19,5.14-2.67,3.14-1.81,6.48-4.19,8.48-7.14.57-.86,1.05-1.24,1.62-2.29,5.68-8.35,6.47-9.64,7.58-19.94,0-.82.22-9.51-.67-4.19-3.02,11.46-4.15,14.46-10.81,24.03l-2.76,3.62c-.57.95-2.48,2.76-3.05,3.33-1.43,1.71-1.71,1.71-3.33,3.14-.76.76-2,1.52-2.19,2.1h0Z"/>
  <path class="cls-2" d="M56.14,66.14c.67.19,4.1-.86,4.86-1.24,1.71-.76,2.57-1.33,3.71-2.57,1.71-1.71,1.81-1.33,4.57-1.81.67-.19,1.71-.48,2-1.05.29-.48.86-1.71.67-2.38-1.43-.76-3.91-.1-5.05.57-1.24.67-2.29,2.1-3.24,3.14-.95,1.14-2.19,2.1-3.43,2.95-.48.38-1.43.95-2,1.24-.38.19-.57.29-1.05.57-.76.48-.76.29-1.05.57h0Z"/>
  <path class="cls-2" d="M70.92,80.34c1.01,5.7,6.74,15.34,13.06,16.6-.17-.67-5.48-8.39-6.79-12.93-2.77-9.66-1.69-20.26,8.28-21.68.57-.1.76-.19,1.24-.29,1.52-.48,1.81-.48,3.52-1.24,2.86-1.24,5.24-2.95,7.33-5.24,1.14-1.14,1.81-2.29,2.76-3.62.67-1.05,1.62-3.24,1.91-4.29.29-1.24,1.05-3.81.86-5.05-.1-.76.1.38-.1-.29-.1-.57-2.57-.95-3.24-1.05-4.48-.48-8.76.86-11.72,4.38-1.43,1.71-2.1,3.05-3.05,5.05-.19.57-.95,2.67-.95,3.33.38-.19.48-.48.76-.86.57-.95,1.24-1.91,2-2.67.57-.57,1.05-1.14,1.62-1.62,2.1-1.81,5.05-2.95,7.91-2.86,1.33,0,.48,1.14-.38,3.05-.67,1.24-1.24,1.71-1.91,2.76-.38.57-.95,1.14-1.52,1.62-2,1.71-4.67,3.14-7.24,3.62-1.43.19-2.86.38-4,.76-2.48.76-.67-.1-2.67-2.86-.57-.76-1.14-1.24-1.81-1.71-.29-.19-.57-.29-.95-.29.86,3.14.38,6.86-1.14,9.72-.95,1.91-1.33,3.71-2.1,5.62-.48,1.24-1.14,2-2.38,2.48-1.81.76-6.48.1-8.48-.38-.48-.1-.86-.1-1.33-.29-1.43-.29-1.05-.29-2.29.38-.29.19-.67.38-1.05.57-4.57,2.38-6.86.19-6.57-.57.29-.38.67-.48,1.05-.86.48-.48.57-.57.76-1.24.48-1.71-.48-1.52,1.24-2.57.38-.29.67-.57,1.05-.95.38-.29.76-.57,1.14-.86,2.29-1.81,4.29-3.81,6-6.19,1.62-2.19,1.33-2.29,4-4.1,1.81-1.33,4.48-2.29,6.67-3.33,3.33-1.62,8.48-4.86,11.05-7.24l4.19-3.81,5.43-6.57c6.82-10.44,9.35-15.66,9.28-28.42-.03-5.06-.97-1.07-1.74,2.77-1.49,7.39-3.8,15.51-8.86,21.26-1.91,2.17-4.46,4.57-8.39,8.68-.95.95-1.91,1.71-2.95,2.48-3.05,2.48-6.38,4.57-9.91,6.29l-5.72,2.29c-1.24.57-2.38,1.43-3.33,2.19-.29.29-.38.19-.76.57-.67.67-1.33,1.24-1.91,2.1-1.33,2.1-3.05,4.1-4.95,5.72-.67.57-1.43,1.43-2.19,1.91-1.33.86-2.48,2.1-4,2.76-.48.29-1.05.67-1.62,1.05-.29.19-.57.38-.86.57-.38.19-.48.19-.86.48-2.1,1.62.67,6.95,2,8.57.48.48.67.95,1.24,1.43.38.19.48.38.76.57,2.57,1.71,6,1.62,8.76.76l1.91-.76c.95-.48.95-.67,2-.38,9.08,2.72,8.59-4.72,9.93,4.68h0Z"/>
  <path class="cls-1" d="M73.7,127.8h-2.03l-.81-2.12h-3.74l-.78,2.12h-2l3.62-9.33h2l3.74,9.33h0ZM70.24,124.1l-1.3-3.45-1.26,3.45h2.56ZM81.72,127.8v-9.25h1.89v7.67h4.68v1.58h-6.57ZM100.93,124.37v-1.58h4.05v3.72c-.39.38-.96.72-1.71,1.01-.75.29-1.5.44-2.27.44-.97,0-1.82-.2-2.55-.61-.72-.41-1.27-1-1.63-1.76-.36-.76-.55-1.59-.55-2.49,0-.97.2-1.84.61-2.59.41-.76,1-1.34,1.79-1.74.6-.31,1.34-.46,2.23-.46,1.16,0,2.06.24,2.71.73.65.49,1.07,1.16,1.25,2.02l-1.88.35c-.13-.46-.38-.82-.74-1.09-.36-.26-.81-.4-1.35-.4-.82,0-1.47.26-1.96.78-.48.52-.73,1.3-.73,2.33,0,1.11.25,1.94.74,2.49.49.55,1.14.83,1.93.83.39,0,.79-.08,1.18-.23.4-.15.74-.34,1.02-.56v-1.18h-2.15ZM113.69,127.8v-9.33h1.89v3.67h3.67v-3.67h1.89v9.33h-1.89v-4.08h-3.67v4.08h-1.89ZM138.47,127.8h-2.03l-.81-2.12h-3.74l-.78,2.12h-2l3.62-9.33h2l3.74,9.33h0ZM135.02,124.1l-1.3-3.45-1.26,3.45h2.56ZM145.62,127.8v-1.69l4.92-6.06h-4.36v-1.58h6.83v1.46l-5.11,6.29h5.3v1.58h-7.58ZM169.77,127.8h-2.03l-.81-2.12h-3.74l-.78,2.12h-2l3.62-9.33h2l3.74,9.33h0ZM166.31,124.1l-1.3-3.45-1.26,3.45h2.56ZM177.79,127.8v-9.25h1.89v7.67h4.68v1.58h-6.57Z"/>
  <g>
    <path class="cls-1" d="M116.81,139.52v3.25c0,1.11-.62,1.77-1.71,1.77h-4.01c-2.34,0-3.52-1.04-3.52-3.13v-1.89h1.23v1.89c0,.72.21,1.23.63,1.51.33.23.84.35,1.51.35h3.03c.56,0,.95-.07,1.16-.21.31-.2.46-.59.46-1.15v-2.4h1.22ZM111.73,139.51h-1.2v-1.23h1.2v1.23ZM113.83,139.51h-1.2v-1.23h1.2v1.23Z"/>
    <path class="cls-1" d="M119.19,144.53h-1.23v-7.14h1.23v7.14Z"/>
    <path class="cls-1" d="M122.78,139.52v4.03c0,1.99-.87,2.82-2.77,2.82v-1.06c1.03,0,1.54-.51,1.54-1.57v-4.22h1.24Z"/>
    <path class="cls-1" d="M127.18,144.53h-1.45c-.6,0-1.05-.19-1.37-.57-.3-.35-.44-.83-.44-1.44v-5.12h1.23v4.62c0,.54.12.9.35,1.06.17.12.49.19.95.19h.73v1.26Z"/>
    <path class="cls-1" d="M127.92,146.96h-1.22v-1.24h1.22v1.24ZM131.86,144.53h-5.1v-1.26h1.18c.36,0,.62-.12.75-.38.09-.17.13-.45.13-.84v-2.54h1.23v2.48c0,.65-.09,1.07-.28,1.28h2.08v1.26ZM130.01,146.96h-1.22v-1.24h1.22v1.24Z"/>
    <path class="cls-1" d="M134.01,144.53h-2.44v-1.26h2.44v1.26Z"/>
    <path class="cls-1" d="M136.2,144.53h-2.44v-1.26h2.44v1.26Z"/>
    <path class="cls-1" d="M135.87,144.53v-1.26h1.13c.63,0,.94-.43.94-1.3v-2.45h1.25v2.41c0,.65-.07,1.07-.2,1.28v.07h1.15c.63,0,.94-.41.94-1.23v-2.53h1.25v2.41c0,.72-.09,1.17-.25,1.35h1.2c.63,0,.94-.41.94-1.22v-2.54h1.25v2.39c0,.52-.09.97-.28,1.37h1.89v1.26h-11.21Z"/>
    <path class="cls-1" d="M149.86,142.53c0,1.34-.62,2-1.86,2h-1.3v-1.26h1.05c.41,0,.66-.12.78-.36.06-.13.09-.4.09-.8v-4.71h1.24v5.13Z"/>
    <path class="cls-1" d="M152.23,144.53h-1.23v-7.14h1.23v7.14Z"/>
    <path class="cls-1" d="M160.37,144.53h-1.98c-.19,1.18-1.19,1.84-2.7,1.84v-1.06c1.03,0,1.54-.51,1.54-1.57v-4.22h1.24v3.76h1.9v1.26Z"/>
    <path class="cls-1" d="M161.09,146.96h-1.22v-1.24h1.22v1.24ZM165.03,144.53h-5.1v-1.26h1.18c.36,0,.62-.12.75-.38.09-.17.13-.45.13-.84v-2.54h1.23v2.48c0,.65-.09,1.07-.28,1.28h2.08v1.26ZM163.18,146.96h-1.22v-1.24h1.22v1.24Z"/>
    <path class="cls-1" d="M172.45,143.76v.77h-7.78v-1.26h6.44c0-.69-.19-1.27-.58-1.76-.45-.56-1.09-.84-1.9-.84-.28,0-.59.07-.93.21-.4.17-.73.4-.99.7-.12-.23-.32-.55-.6-.97.34-.32.73-.59,1.18-.78.49-.21.97-.31,1.46-.31.82,0,1.53.2,2.12.61,1.05.7,1.57,1.9,1.57,3.64ZM169.35,146.97h-1.22v-1.24h1.22v1.24Z"/>
    <path class="cls-1" d="M175.13,136.83h-1.91v-.51h.44c-.07-.21-.1-.33-.1-.39,0-.52.39-.9.86-.9.31,0,.54.17.7.49l-.4.21c-.03-.17-.14-.24-.31-.24-.23,0-.38.21-.38.42,0,.19.07.33.2.41h.9v.51ZM176.85,144.53h-1.45c-.6,0-1.05-.19-1.37-.57-.3-.35-.44-.83-.44-1.44v-5.12h1.23v4.62c0,.54.12.9.35,1.06.17.12.49.19.95.19h.73v1.26Z"/>
    <path class="cls-1" d="M177.6,138.49h-1.22v-1.23h1.22v1.23ZM181.56,144.53h-5.11v-1.26h1.15c.36,0,.61-.12.74-.38.09-.17.13-.45.13-.84v-2.54h1.23v2.48c0,.65-.09,1.07-.27,1.28h2.12v1.26ZM179.7,138.49h-1.22v-1.23h1.22v1.23Z"/>
    <path class="cls-1" d="M184.36,142.53c0,1.34-.62,2-1.86,2h-1.3v-1.26h1.05c.41,0,.66-.12.78-.36.06-.13.09-.4.09-.8v-4.71h1.24v5.13Z"/>
  </g>
  <g>
    <path class="cls-1" d="M18.53,142.03l1.52.48c-.46,1.67-1.53,2.5-3.22,2.5-1.11,0-1.98-.39-2.62-1.16-.6-.72-.9-1.65-.9-2.78,0-1.2.3-2.16.9-2.89.65-.79,1.56-1.18,2.73-1.18.94,0,1.71.28,2.31.84.35.33.62.81.79,1.43l-1.55.37c-.09-.4-.28-.72-.57-.95-.29-.23-.64-.35-1.06-.35-1.29,0-1.93.87-1.93,2.62s.63,2.72,1.9,2.72c.89,0,1.46-.55,1.71-1.64Z"/>
    <path class="cls-1" d="M29.41,144.88h-1.7l-.68-1.76h-3.1l-.63,1.76h-1.66l3.02-7.74h1.66l3.1,7.74ZM26.52,141.81l-1.06-2.88-1.05,2.88h2.11Z"/>
    <path class="cls-1" d="M31.28,144.88v-7.74h3.29c.68,0,1.19.04,1.5.12.54.13.94.41,1.2.83.23.36.34.76.34,1.22,0,1.24-.68,1.96-2.04,2.15.39.22.72.5.99.83.16.2.41.56.73,1.08l.95,1.51h-1.87l-1.13-1.69c-.34-.5-.53-.78-.56-.82-.27-.35-.51-.56-.74-.64-.16-.06-.43-.09-.79-.09h-.32v3.24h-1.56ZM32.84,140.41h1.16c.58,0,.91,0,.99-.02.42-.05.7-.18.86-.41.11-.16.16-.35.16-.58,0-.54-.27-.85-.8-.94-.11-.02-.5-.02-1.14-.02h-1.22v1.97Z"/>
    <path class="cls-1" d="M44.98,144.88v-7.74h3.29c.68,0,1.19.04,1.5.12.54.13.94.41,1.2.83.23.36.34.76.34,1.22,0,1.24-.68,1.96-2.04,2.15.39.22.72.5.99.83.16.2.41.56.73,1.08l.95,1.51h-1.87l-1.13-1.69c-.34-.5-.53-.78-.56-.82-.27-.35-.51-.56-.74-.64-.16-.06-.43-.09-.79-.09h-.32v3.24h-1.56ZM46.54,140.41h1.16c.58,0,.91,0,.99-.02.42-.05.7-.18.86-.41.11-.16.16-.35.16-.58,0-.54-.27-.85-.8-.94-.11-.02-.5-.02-1.14-.02h-1.22v1.97Z"/>
    <path class="cls-1" d="M53.82,144.88v-7.74h5.74v1.31h-4.18v1.71h3.89v1.31h-3.89v2.11h4.33v1.3h-5.89Z"/>
    <path class="cls-1" d="M62.09,144.88v-7.74h1.52l3.17,5.17v-5.17h1.45v7.74h-1.57l-3.12-5.05v5.05h-1.45Z"/>
    <path class="cls-1" d="M72.66,144.88v-6.44h-2.3v-1.31h6.15v1.31h-2.3v6.44h-1.56Z"/>
    <path class="cls-1" d="M85.55,144.88h-1.7l-.68-1.76h-3.1l-.63,1.76h-1.66l3.02-7.74h1.66l3.1,7.74ZM82.67,141.81l-1.06-2.88-1.05,2.88h2.11Z"/>
    <path class="cls-1" d="M87.45,144.88v-7.69h1.57v6.38h3.89v1.3h-5.45Z"/>
  </g>
  <rect class="cls-1" x="98.05" y="133.9" width="1.23" height="14.21"/>
</svg>