<?xml version="1.0" encoding="UTF-8"?>
<svg id="Layer_1" data-name="Layer 1" xmlns="http://www.w3.org/2000/svg" viewBox="0 0 197.45 148.57">
  <defs>
    <style>
      .cls-1 {
        fill: #fff;
      }
    </style>
  </defs>
  <g id="surface1">
    <path class="cls-1" d="M84.02,56.82c.36.27.63.59.89.92,1.19,1.5,2.23,3.1,3.18,4.77.09.16.31.37.14.54-.18.18-.41-.02-.59-.12-.21-.11-.39-.26-.6-.38-.08-.05-.19-.13-.27-.03-.04.05-.04.16-.03.24.09.48.32.89.62,1.26.52.64,1.08,1.26,1.6,1.91,1.64,2.12,1.36,5.54-.59,7.4-.59.56-1.36.81-2.07,1.15-.23.11-.63.15-.63.41,0,.22.4.25.63.33.6.23,1.22.41,1.79.71,2.32,1.2,3.08,3.49,1.93,5.83-.79,1.6-2.02,2.79-3.51,3.71-.45.28-.63.58-.66,1.11-.07,1.46.03,2.9.39,4.32.69,2.74,3.54,4.1,6.08,3.38,2.11-.6,3.76-1.89,5.24-3.44,2.63-2.75,5.11-5.65,7.9-8.25,3.22-3,6.94-5.15,11.21-6.29,1.07-.29,2.17-.38,3.26-.07,1.24.36,2.06,1.37,2.16,2.66.04.52.16,1.04.04,1.57-.09.39-.29.51-.66.36-.05-.02-.1-.03-.14-.05-2.62-1.44-5.19-.85-7.69.31-3.28,1.52-6.05,3.76-8.63,6.26-1.9,1.84-3.51,3.94-5.42,5.77-1.53,1.47-3.15,2.83-5.11,3.7-2.75,1.22-5.07.78-7.18-1.35-1.63-1.64-2.27-3.67-2.31-5.94-.02-1.06.05-2.12.21-3.24-8.74,4.19-18.1,5.63-27.5,6.9-.03-.07-.07-.13-.09-.19.46-.86.99-1.68,1.36-2.57.39-.93.99-1.2,1.97-1.31,7.89-.94,15.58-2.71,22.93-5.79.95-.4,1.88-.85,2.8-1.31.59-.29,1.16-.66,1.14-1.41-.02-.72-.62-1.01-1.16-1.28-2.13-1.06-4.4-1.62-6.74-1.96-1.12-.16-2.25-.29-3.37-.43-.34-.04-.53-.14-.47-.56.11-.8.11-1.62.29-2.41.07-.29.21-.42.51-.45,3.19-.34,6.3-1.03,9.35-2.04.53-.18,1.05-.38,1.52-.69.47-.32.6-.68.44-1.22-.19-.67-.62-1.19-1.05-1.72-.63-.77-1.37-1.45-1.95-2.27-.82-1.16-1.24-2.47-1.48-3.85-.07-.43-.14-.87-.43-1.23-.09-.12-.11-.25-.08-.38.21-1.03.39-2.06.72-3.06.02-.07.08-.14.13-.22"/>
    <path class="cls-1" d="M154.58,63.14c.07.06.14.12.21.2,1.64,1.64,3.27,3.29,4.91,4.93.19.19.2.29,0,.48-.75.73-1.5,1.47-2.23,2.23-.21.21-.33.19-.52-.01-.71-.73-1.44-1.43-2.14-2.16-.22-.23-.34-.23-.56,0-.69.72-1.4,1.43-2.12,2.12-.25.24-.2.37.02.59,1.6,1.58,3.2,3.18,4.77,4.78.25.25.37.2.59-.02,1.57-1.59,3.16-3.16,4.73-4.75.28-.28.43-.29.71,0,2.45,2.48,4.92,4.95,7.4,7.4.27.27.31.41.01.7-1.58,1.55-3.14,3.14-4.72,4.69-.29.29-.27.44.01.71.69.65,1.36,1.32,2.01,2.01.25.27.38.23.62-.01,1.57-1.59,3.16-3.16,4.73-4.75.25-.26.4-.3.67-.01.68.73,1.4,1.43,2.12,2.12.21.2.26.32.02.56-2.53,2.52-5.05,5.05-7.57,7.59-.23.23-.35.21-.56,0-2.52-2.53-5.04-5.06-7.58-7.58-.23-.23-.21-.34,0-.56,1.6-1.58,3.19-3.18,4.8-4.76.28-.27.3-.43,0-.71-.67-.62-1.32-1.27-1.94-1.94-.28-.29-.43-.34-.74-.02-1.55,1.59-3.14,3.14-4.69,4.72-.27.28-.41.26-.67,0-1.86-1.88-3.73-3.74-5.6-5.61-1.51-1.51-3.02-3.01-4.55-4.5-.26-.25-.3-.39-.02-.68,2.52-2.49,5.01-5,7.52-7.5.1-.08.18-.21.34-.23"/>
    <path class="cls-1" d="M195.41,72.76c-.14-.13-.28-.28-.44-.4-.17-.12-.23.08-.32.15-.16.13-.29.29-.43.43-.73.68-.72.67-.02,1.38.15.15.46.24.23.61-.12.19.22.33.35.48.15.16.24-.02.32-.1.36-.35.72-.72,1.08-1.07.32-.33.3-.57-.1-.76-.33-.16-.41.2-.58.35-.22.19-.35.36-.65.06-.31-.32-.03-.42.11-.59.14-.16.34-.27.44-.53M189.5,81.96c-.1-.09-.19-.17-.27-.25-.72-.72-1.42-1.45-2.16-2.15-.27-.25-.18-.38.03-.59,1.58-1.56,3.13-3.14,4.72-4.7.3-.29.3-.44,0-.74-7.82-7.8-15.62-15.61-23.44-23.41-.34-.34-.38-.52,0-.86.68-.61,1.32-1.27,1.94-1.94.28-.3.43-.33.74-.01,1.4,1.44,2.84,2.86,4.26,4.28,7.3,7.29,14.59,14.59,21.89,21.87.31.31.37.47.02.81-2.47,2.44-4.92,4.9-7.37,7.36-.1.1-.22.2-.34.31"/>
    <path class="cls-1" d="M186.82,73.86c-.04.18-.18.27-.29.37-1.57,1.57-3.14,3.14-4.72,4.69-.27.27-.31.42-.01.71,1.59,1.55,3.15,3.13,4.73,4.68.25.25.32.38.03.66-2.52,2.48-5.02,4.98-7.53,7.49-.2.2-.32.27-.55.02-.72-.76-1.47-1.5-2.23-2.23-.19-.19-.17-.28.01-.47,1.59-1.57,3.16-3.16,4.76-4.73.3-.3.35-.45.02-.78-2.43-2.4-4.84-4.84-7.27-7.23-.4-.39-.35-.59.02-.93.66-.61,1.3-1.24,1.9-1.9.3-.33.47-.27.74.02.66.7,1.37,1.36,2.04,2.06.2.21.31.26.54.02.69-.72,1.39-1.43,2.12-2.12.26-.25.21-.38-.02-.6-.72-.7-1.41-1.42-2.13-2.11-.23-.22-.21-.35,0-.56.74-.72,1.47-1.45,2.19-2.19.21-.21.32-.19.52,0,1.62,1.63,3.26,3.26,4.89,4.88.08.09.16.18.23.25"/>
    <path class="cls-1" d="M.91,74.23c.65.34,1.21.81,1.75,1.29,4.92,4.38,10.61,7.43,16.78,9.65,5.22,1.88,10.61,3.07,16.11,3.78.87.11.88.11.41.87-.51.82-1.02,1.64-1.52,2.46-.11.19-.22.29-.47.26-7.12-1.01-14.11-2.52-20.64-5.67-2.33-1.13-4.6-2.37-6.48-4.21-1.56-1.53-2.84-3.27-4.01-5.09-.69-1.06-1.39-2.12-1.98-3.24.03-.02.05-.05.07-.08"/>
    <path class="cls-1" d="M154.58,84.67c.1.09.21.2.32.3,4.21,4.21,8.43,8.42,12.63,12.65.37.37.56.38.92,0,1.52-1.57,3.09-3.09,4.62-4.64.23-.23.36-.24.59,0,.7.73,1.43,1.44,2.15,2.16.19.18.25.29.03.51-2.54,2.53-5.08,5.07-7.61,7.61-.22.22-.32.17-.51-.02-5.2-5.21-10.41-10.42-15.62-15.62-.21-.21-.25-.33-.01-.56.74-.71,1.46-1.46,2.2-2.18.08-.08.15-.19.3-.2"/>
    <path class="cls-1" d="M126.03,97.14c.18-.97.37-1.92.53-2.89.32-1.97.21-3.95.07-5.92-.2-2.97-.44-5.94-.67-8.9-.21-2.7-.6-5.38-.97-8.06-.46-3.25-.81-6.51-1.18-9.77-.38-3.28-.42-6.58-.59-9.87-.02-.34-.03-.68-.13-1-.24-.8.02-1.46.47-2.09.27-.38.56-.76.87-1.19.72,1.57,1.42,3.08,2.12,4.59.59,1.26.98,2.59,1.41,3.9.04.11.03.23.04.35,0,.16-.05.32-.2.38-.17.07-.29-.06-.37-.19-.26-.38-.5-.77-.76-1.14-.16-.23-.33-.52-.68-.43-.36.09-.48.41-.53.73-.12.78.02,1.55.09,2.32.56,5.69,1.45,11.34,2.26,16.99.71,4.92.9,9.86.74,14.83-.05,1.78-.29,3.54-.97,5.2-.34.83-.79,1.6-1.51,2.18l-.03-.03Z"/>
    <path class="cls-1" d="M94.71,47.95c1.15,2.73,2.48,5.31,3.2,8.12.03.14.06.26.02.4-.03.11-.06.24-.19.28-.13.04-.23-.05-.29-.15-.23-.36-.44-.72-.68-1.07-.16-.23-.31-.53-.67-.43-.33.09-.39.38-.45.67-.14.63-.02,1.25.04,1.87.52,5.25,1.23,10.48,2.01,15.7.45,3.04.66,6.08.33,9.15-.14,1.21-.3,2.42-.56,3.61-.26,1.2-.9,2.21-1.69,3.17.06-.24.11-.48.17-.72.05-.25.1-.5.14-.75.47-2.69.35-5.39.15-8.1-.39-5.4-1.33-10.74-1.86-16.13-.32-3.25-.65-6.5-.66-9.77,0-.99-.05-1.99-.26-2.98-.1-.47,0-.91.25-1.32.31-.5.64-.99,1.01-1.55"/>
    <path class="cls-1" d="M173.35,71.2c-.07.08-.12.15-.18.21-.77.77-1.54,1.52-2.29,2.3-.26.27-.36.07-.52-.08-1.53-1.53-3.06-3.06-4.59-4.6-2.72-2.72-5.43-5.44-8.16-8.14-.38-.38-.34-.56.02-.89.7-.64,1.36-1.32,2.01-2.01.22-.23.33-.22.55,0,4.29,4.3,8.59,8.6,12.88,12.9.09.1.18.2.27.31"/>
    <path class="cls-1" d="M114.66,69.53c-.14,0-.19-.11-.25-.18-1.25-1.4-2.49-2.81-3.74-4.2-.15-.16-.15-.26.02-.4,1.46-1.21,2.91-2.42,4.36-3.64.2-.17.31-.1.45.06,1.23,1.4,2.47,2.78,3.7,4.17.13.14.2.25,0,.41-1.47,1.22-2.93,2.45-4.4,3.67-.05.04-.11.07-.15.1"/>
    <path class="cls-1" d="M42.9,86.47c.07.09.11.18.18.25,1.22,1.38,2.44,2.76,3.67,4.13.19.21.19.33-.04.52-1.42,1.17-2.84,2.35-4.25,3.54-.22.18-.34.18-.53-.04-1.22-1.39-2.43-2.77-3.67-4.14-.19-.21-.15-.32.05-.48,1.44-1.2,2.88-2.4,4.32-3.6.07-.05.14-.09.26-.18"/>
    <path class="cls-1" d="M114.28,58.5c-.03.16-.15.21-.23.29-1.41,1.18-2.83,2.36-4.24,3.55-.19.16-.3.18-.48-.02-1.22-1.4-2.46-2.79-3.7-4.17-.19-.21-.15-.31.04-.47,1.43-1.19,2.86-2.38,4.29-3.57.17-.14.29-.19.46,0,1.24,1.41,2.49,2.81,3.74,4.21.05.06.09.13.13.18"/>
    <path class="cls-1" d="M56.34,90.96c0,.15-.11.19-.18.25-1.44,1.21-2.88,2.41-4.32,3.62-.2.17-.3.13-.45-.04-1.24-1.41-2.48-2.81-3.73-4.21-.16-.18-.12-.26.04-.4,1.46-1.21,2.91-2.42,4.37-3.64.17-.14.27-.14.41.03,1.24,1.41,2.49,2.81,3.73,4.21.05.07.1.14.14.18"/>
    <path class="cls-1" d="M105.14,69.7c-.06-.09-.11-.18-.18-.26-1.22-1.38-2.45-2.76-3.68-4.13-.18-.2-.16-.32.04-.49,1.43-1.19,2.86-2.38,4.28-3.58.17-.15.28-.18.45.01,1.23,1.4,2.47,2.79,3.7,4.17.14.15.23.27.01.45-1.46,1.21-2.91,2.43-4.37,3.64-.07.05-.14.09-.27.18"/>
    <path class="cls-1" d="M63.09,98.29c.13-.56.24-1.02.34-1.48.06-.3.34-.26.53-.32,4.28-1.24,8.57-2.46,12.85-3.69,1.67-.47,3.33-.96,5.09-1.46-.13.58-.23,1.08-.36,1.58-.05.21-.27.19-.42.23-4.21,1.2-8.41,2.4-12.62,3.6-1.77.5-3.54,1-5.41,1.53"/>
    <path class="cls-1" d="M72.49,61.33c-.39-.23-.78-.39-1.1-.67-.64-.56-.84-1.26-.44-2,.72-1.34,1.76-2.44,2.97-3.35.45-.34,1.01-.4,1.52-.03s.5.89.38,1.42c-.08.38-.26.73-.44,1.08-.11.2-.21.24-.38.08-.1-.09-.21-.16-.32-.25-.82-.66-1.11-.66-1.93.04-.67.58-.66.57-.03,1.21.79.81,1.69.99,2.73.55.95-.4,1.8-.98,2.77-1.47.17.77-.07,1.37-.62,1.83-.36.3-.77.55-1.17.8-1.76,1.11-3.52,2.22-5.29,3.31-.2.13-.47.41-.66.22-.2-.19.02-.51.14-.74.36-.68.88-1.24,1.49-1.71.12-.1.25-.2.4-.32"/>
    <path class="cls-1" d="M121.83,94.32c-.28-.21-.56-.41-.81-.63-.41-.36-.8-.35-1.24-.06-1.1.7-1.12,1.08-.07,1.86.67.5,1.38.57,2.16.29.83-.3,1.57-.79,2.34-1.2.19-.1.38-.21.61-.33.16.63.02,1.14-.36,1.59-.22.26-.5.46-.78.64-1.98,1.24-3.95,2.48-5.93,3.72-.2.12-.46.41-.65.23-.2-.2.02-.51.14-.74.43-.85,1.12-1.47,1.9-2.05-.38-.21-.75-.37-1.06-.62-.68-.55-.9-1.31-.49-2.08.71-1.31,1.73-2.38,2.89-3.29.53-.42,1.17-.39,1.61-.06.42.32.53.82.32,1.53-.12.43-.29.83-.56,1.21"/>
    <path class="cls-1" d="M85.78,55.08c-.29-.71-.57-1.43-.88-2.14-.27-.62-.59-1.22-1.09-1.69-.33-.31-.71-.43-1.16-.31-.79.21-1.69-.56-1.58-1.35.07-.55.11-1.17.74-1.4s1.05.22,1.46.61c.97.93,1.61,2.07,2.15,3.29.07.15.14.29.26.56.16-1.27.3-2.41.45-3.55.08-.57.23-1.13.53-1.63.37-.63.96-.89,1.58-.71.54.16.83.68.8,1.42,0,.12-.02.24-.04.35q-.11.7-.72.34c-.77-.46-1.21-.29-1.36.6-.25,1.43-.45,2.87-.68,4.3-.07.44-.21.88-.32,1.31-.05,0-.09,0-.13,0"/>
    <path class="cls-1" d="M165.31,52.37c.09.08.16.14.23.21.74.74,1.48,1.49,2.23,2.22.21.21.18.33-.01.52-.75.73-1.49,1.47-2.22,2.23-.19.19-.3.19-.48,0-.73-.75-1.47-1.49-2.23-2.22-.22-.21-.18-.33.02-.52.75-.73,1.49-1.48,2.23-2.22.07-.08.15-.14.24-.22"/>
    <path class="cls-1" d="M170.68,57.74c.08.07.16.14.23.2.75.75,1.5,1.51,2.26,2.25.19.19.18.31,0,.49-.76.74-1.52,1.49-2.25,2.26-.2.21-.31.15-.48-.02-.73-.75-1.48-1.49-2.22-2.22-.14-.13-.28-.24-.07-.45.79-.78,1.58-1.58,2.37-2.36.04-.05.09-.09.17-.14"/>
    <path class="cls-1" d="M178.74,65.82c-.06.08-.11.16-.18.23-.76.77-1.53,1.52-2.29,2.3-.19.2-.29.13-.45-.03-.74-.76-1.49-1.51-2.26-2.25-.2-.19-.17-.31.01-.49.76-.74,1.51-1.5,2.26-2.25.13-.13.23-.23.41-.05.78.8,1.57,1.58,2.36,2.37.05.05.09.1.14.17"/>
    <path class="cls-1" d="M151.85,81.96c-.07.08-.13.15-.2.22-.75.75-1.51,1.5-2.25,2.26-.19.19-.3.18-.48,0-.74-.76-1.49-1.51-2.26-2.25-.2-.2-.16-.31.02-.48.75-.73,1.49-1.48,2.23-2.22.14-.14.24-.28.45-.07.78.8,1.57,1.58,2.36,2.37.05.05.09.11.14.18"/>
    <path class="cls-1" d="M146.45,76.58c-.06.07-.11.14-.17.19-.77.77-1.53,1.53-2.29,2.3-.18.18-.28.16-.44,0-.76-.77-1.52-1.54-2.3-2.29-.17-.17-.13-.25.02-.4.77-.76,1.53-1.53,2.3-2.29.1-.1.18-.26.36-.08.79.81,1.6,1.6,2.4,2.41.05.05.08.11.12.17"/>
    <path class="cls-1" d="M108.69,90.19c-.52,1.07-1.1,2.11-1.56,3.21-.47,1.12-.94,2.25-1,3.48-.02.44-.07.92.39,1.18.5.27.98.14,1.43-.18.3-.21.59-.43.93-.61-.44.9-.86,1.83-1.68,2.45-.42.32-.93.52-1.47.26-.63-.31-.86-.88-.91-1.53-.11-1.28.27-2.47.76-3.63.73-1.75,1.87-3.22,3.12-4.64"/>
    <path class="cls-1" d="M115.88,88.82c.02-1.28-.18-2.43,0-3.57.05-.3.12-.59.27-.86.25-.43.61-.61,1.1-.53.45.08.63.42.73.81.03.13.04.27.04.4,0,.65,0,.66-.6.43s-.89-.05-.94.61c-.1,1.35.09,2.7-.08,4.05-.02.2,0,.4-.14.62-.34-.56-.64-1.1-.97-1.63-.27-.43-.57-.84-.98-1.15-.33-.26-.66-.35-1.08-.16-.51.23-1.26-.22-1.37-.76-.04-.2-.04-.4,0-.61.14-.82.62-1.06,1.34-.62.99.6,1.69,1.49,2.32,2.44.09.14.18.28.34.54"/>
    <path class="cls-1" d="M125.29,97.27c.34.79.09,1.26-.61,1.72-1.79,1.16-3.51,2.42-5.26,3.63-.12.09-.25.16-.43.27-.05-.34-.08-.63-.13-.92-.03-.17.04-.28.18-.38,2.05-1.43,4.1-2.87,6.16-4.3.03-.02.07-.02.1-.02"/>
    <path class="cls-1" d="M171.03,81.59c-.25.28-.38.4-.48.54-.13.16.05.23.13.33.07.09.16.18.25.25.26.2.31.36.04.64-.27.27-.4.16-.6-.05-.36-.38-.74-.74-1.11-1.12-.09-.09-.26-.19-.09-.32.17-.14.27-.51.52-.36.28.18.35-.01.49-.14.27-.24.47-.72.81-.69.27.03.51.45.76.7.09.09.16.17.25.25.22.19.37.33.07.63-.3.29-.46.16-.63-.07-.14-.18-.25-.37-.39-.59"/>
    <path class="cls-1" d="M.74,74.23c.06-.05.11-.04.17,0-.02.03-.04.06-.06.09l-.11-.09h0Z"/>
    <path class="cls-1" d="M126.06,97.18s-.05.04-.07.06c.01-.03.02-.06.04-.09l.03.03"/>
    <path class="cls-1" d="M.74,74.22v-.02s0,.03,0,.03h0"/>
    <path class="cls-1" d="M195.41,72.76c-.09.26-.3.36-.43.53-.15.18-.43.28-.11.59.3.3.43.13.65-.06.17-.14.25-.51.58-.35.4.19.42.43.1.76-.36.36-.71.72-1.08,1.07-.09.08-.18.26-.32.1-.14-.15-.47-.29-.35-.48.23-.37-.08-.46-.23-.61-.7-.71-.71-.7.02-1.38.15-.14.28-.29.43-.43.09-.07.15-.27.32-.15.16.12.29.27.43.4"/>
  </g>
</svg>