<?xml version="1.0" encoding="UTF-8"?>
<svg id="Layer_1" data-name="Layer 1" xmlns="http://www.w3.org/2000/svg" viewBox="0 0 197.33 72.82">
  <defs>
    <style>
      .cls-1 {
        fill: #fff;
        fill-rule: evenodd;
      }
    </style>
  </defs>
  <g id="Logo">
    <path id="Union" class="cls-1" d="M68.24,20.48c0,.3.1.59.3.84.2.25.49.39.79.39s.54-.15.74-.39c.2-.2.3-.49.34-.79,0-.3-.1-.59-.3-.84-.2-.25-.49-.34-.79-.39-.3,0-.54.15-.74.34-.2.2-.3.49-.3.79l-.05.05ZM18.41,21.37c-.2.2-.49.34-.79.34s-.54-.2-.74-.39-.3-.49-.3-.79.1-.59.3-.84c.2-.2.49-.34.79-.39.3,0,.59.15.79.39.2.2.3.49.3.79s-.15.59-.34.79v.1ZM52.43,31.81c-.54.2-1.08.3-1.62.25-.89-.05-1.72-.05-2.61,0h-13.1c-.2,0-.39,0-.59.15-.15.1-.3.3-.34.49-.2.84-.69,1.53-1.38,2.02-.69.49-1.53.69-2.36.59h-3.79c-.54,0-.79-.1-.74-.69v-.59c0-.34,0-.54.1-.64.1-.1.34-.1.79-.1h3.84c.39,0,.74-.1,1.08-.3.3-.2.54-.49.69-.89.05-.2.15-.44,0-.54-.1-.1-.25,0-.34,0,0,0-.1,0-.15.05-1.53.44-3.2.44-4.73,0-.94-.3-1.72-.94-2.22-1.77s-.64-1.82-.44-2.76c.15-.94.59-1.77,1.28-2.36.69-.59,1.62-.94,2.51-.89h2.12c.49,0,1.03.05,1.53.25s.94.44,1.28.84c.39.34.69.79.89,1.28.2.49.3.98.3,1.53v1.48c-.05.64.15.84.84.84h10.93c.25,0,.49,0,.74-.15.25-.1.44-.25.64-.39.2-.2.34-.39.44-.64s.15-.49.15-.74,0-.54-.1-.79-.2-.49-.39-.69c-.2-.2-.39-.34-.64-.44-.25-.1-.49-.15-.79-.15h-6.89c-.64,0-.89-.15-.84-.84v-.44c0-.39,0-.59.1-.69.1-.1.3-.1.64-.05h6.79c.64,0,1.23.1,1.82.39.54.25,1.03.64,1.43,1.13.39.49.64,1.08.74,1.67.1.59.05,1.23-.1,1.82-.3.94-.2.94.39.94h.3c1.87,0,2.56-.64,2.56-2.51v-1.28h0v-5.91c0-.59.1-.89.79-.84h.3c.44,0,.79,0,.79.84-.1,2.51-.05,5.07,0,7.58,0,.54-.1,1.13-.3,1.62-.2.49-.54.98-.94,1.38-.39.39-.89.69-1.38.89v.05ZM29.93,29.84h.94c.49-.05.94-.3,1.23-.69.34-.39.49-.84.49-1.33s-.2-.94-.49-1.28c-.34-.34-.79-.59-1.23-.64-.94-.05-1.82-.05-2.76,0-.49,0-.98.3-1.28.69-.34.39-.49.89-.44,1.38,0,.49.25.94.59,1.28s.84.54,1.28.54h1.67v.05ZM92.56,24.13h2.41c.54,0,1.03.05,1.53.25s.94.49,1.33.84c.39.39.69.84.89,1.28s.3,1.03.3,1.53c0,1.08-.39,2.07-1.13,2.86-.74.74-1.77,1.18-2.81,1.18-2.86-.05-5.66,0-8.52,0h-15.95c-.64,0-.74-.2-.74-.79v-3.74h0v-.84c0-.34,0-.64-.15-.94s-.34-.54-.59-.79c-.3-.2-.59-.3-.94-.34-.34,0-.69.05-.98.2s-.54.39-.69.69c-.15.3-.25.64-.25.94v2.31h0v1.28h0v1.33c0,.49-.15.69-.64.69h-.05c-.59,0-.84,0-.98-.15s-.15-.44-.15-.98v-4.43c0-.74.2-1.53.59-2.17s.98-1.13,1.72-1.43c.54-.25,1.18-.3,1.77-.25.59.05,1.18.3,1.67.64.49.34.89.79,1.18,1.33.3.54.39,1.13.39,1.72v3c0,.49.1.64.64.64h4.58c.59,0,.79-.1.59-.74-.3-.84-.3-1.77,0-2.66.3-.84.89-1.58,1.67-2.07.54-.34,1.13-.49,1.77-.49h4.83c.54,0,.59.2.59.69h0q0,1.38-1.33,1.38h-3.89c-.25,0-.54,0-.79.1s-.49.25-.64.39c-.2.2-.34.39-.44.64s-.1.49-.1.79c0,.25,0,.54.1.79s.25.49.44.64.39.34.69.44c.25.1.49.15.79.1h7.58c.59,0,.64-.15.49-.69-.34-.98-.3-2.07.1-3.05.44-.94,1.23-1.72,2.22-2.07.34-.1.69-.2,1.03-.2l-.15.15ZM92.71,30.13h2.41c.49,0,.98-.25,1.33-.59s.54-.84.59-1.33c0-.25,0-.49-.1-.74s-.2-.44-.39-.64-.39-.34-.64-.44c-.25-.1-.49-.15-.74-.15h-2.46c-.25,0-.49,0-.74.15-.25.1-.44.25-.64.44s-.3.39-.39.64-.1.49-.1.74,0,.49.1.74.25.44.39.64c.2.2.39.34.64.44.25.1.49.15.74.15v-.05ZM22.11,28.06c0-.49-.05-.98-.25-1.48s-.44-.89-.79-1.28c-.34-.34-.74-.64-1.23-.89-.44-.2-.94-.3-1.48-.34h-2.17c-.64,0-1.28.1-1.87.39-.59.3-1.08.69-1.48,1.23s-.64,1.13-.74,1.77c-.1.64,0,1.28.2,1.92.2.54.1.64-.44.64H3.84c-.25,0-.54,0-.79-.15-.25-.1-.44-.25-.64-.44s-.34-.39-.44-.64c-.1-.25-.15-.49-.15-.79,0-.25,0-.54.15-.79.1-.25.25-.44.44-.64s.44-.3.69-.39c.25-.1.49-.1.79-.1h3.84c.44,0,.2,0,.3,0h0c.64,0,.94,0,1.03-.15.1-.1.1-.25.1-.54h0v-.69c0-.54-.2-.69-.69-.64h-4.18c-.54,0-1.03,0-1.58.15-.89.3-1.62.94-2.12,1.72s-.69,1.72-.54,2.66c.1.94.54,1.82,1.23,2.46s1.62.98,2.56,1.03h14.62c.49,0,.98-.15,1.43-.34.44-.2.84-.54,1.18-.89.34-.39.59-.84.74-1.28.15-.49.25-.98.2-1.48l.1-.05ZM18.26,30.13h-2.26c-.25,0-.54,0-.79-.15-.25-.1-.44-.25-.64-.44s-.34-.39-.44-.64-.15-.49-.15-.79c0-.25,0-.54.1-.79s.25-.49.44-.64c.2-.2.39-.34.64-.44s.49-.15.79-.1h2.22c.25,0,.54,0,.79.1s.49.25.64.44c.2.2.34.39.44.64.1.25.15.49.1.79,0,.25,0,.54-.15.79-.1.25-.25.49-.44.64s-.39.34-.64.44c-.25.1-.49.15-.79.15h.15ZM115.46,31.76c-.49.2-.98.3-1.48.3h-9.35c-.98,0-1.97-.39-2.66-1.08-.74-.69-1.13-1.62-1.13-2.66v-8.17c0-.49.2-.64.64-.64h.3c.49,0,.74,0,.84.15.05.1.05.25.05.49h0v6.2h0v1.58c0,.3,0,.54.15.84.1.25.25.49.44.69s.44.34.69.44c.25.1.54.15.84.1h9.06c.3,0,.54,0,.84-.1.25-.1.49-.25.69-.39.2-.2.34-.39.44-.69.1-.25.15-.54.15-.79,0-.3,0-.54-.15-.79-.1-.25-.25-.49-.49-.69-.2-.2-.44-.34-.69-.39-.25-.1-.54-.1-.84-.05h-5.91c-.54,0-.79-.1-.79-.74v-.1h0c0-.59,0-.89.2-1.03.15-.15.44-.15,1.08-.15h5.71c.54,0,1.03.1,1.53.3s.89.49,1.28.89c.34.39.64.84.79,1.33.15.49.2,1.03.15,1.53,0,.49-.05,1.03-.25,1.48-.2.49-.44.89-.79,1.28-.34.34-.79.64-1.23.84l-.1.05ZM117.77,43.62c0-.44-.15-.59-.54-.54h-.69c-.49-.05-.64.15-.59.59v2.02c0,1.23-.69,2.12-1.72,2.12-.25,0-.54-.1-.74-.2-.25-.1-.44-.3-.59-.49-.15-.2-.3-.44-.34-.69-.1-.25-.1-.49-.05-.79v-2.12c0-.34-.1-.49-.49-.49h0c-.64,0-.98-.05-1.18.1-.15.15-.15.49-.15,1.13h0v1.13c-.1.64,0,1.28.2,1.87s.64,1.13,1.13,1.53c.49.39,1.13.64,1.77.74.64.1,1.28,0,1.87-.25h.05c.15-.05.25-.1.3.15.15,1.23-.2,2.56-1.82,2.61h-1.62c-.59-.05-.84.15-.74.74v.54c-.05.44.15.59.59.59h1.87c.49,0,.94-.1,1.38-.25.44-.2.84-.44,1.18-.79.34-.34.59-.74.79-1.18s.25-.89.25-1.38v-2.17h0v-2.86h0v-1.67h-.1ZM45.1,40.96h.54c.44-.05.59.15.59.59v2.17h0v3.84c0,.94-.39,1.82-1.08,2.51-.69.64-1.58,1.03-2.51,1.03s-1.87-.34-2.51-.98c-.69-.64-1.08-1.53-1.08-2.46v-3.69h0v-2.41c0-.39.1-.64.54-.59h.54c.59-.1.84.1.79.74v3.84h0v1.62c0,.25,0,.49.05.74.1.25.2.49.34.69.15.2.39.34.59.44.25.1.49.15.74.2.25,0,.49-.05.74-.2.25-.1.44-.25.59-.44.15-.2.3-.44.34-.69.05-.25.1-.49.05-.74v-1.87h0v-3.69c0-.59.2-.74.74-.69v.05ZM95.71,46.67c-.39-.15-.74-.25-1.13-.34-.79-.15-1.53-.39-2.26-.74-.39-.2-.54-.49-.1-.79.49-.3,1.82-.3,2.12.15.39.64.94.64,1.48.59h.44c.59,0,.59-.2.39-.69-.3-.64-.74-1.18-1.38-1.48-.59-.34-1.33-.44-2.02-.34-.94-.1-1.87.15-2.61.69-.25.2-.49.44-.64.69-.15.3-.2.59-.2.94,0,.3.1.64.25.89.15.3.39.49.64.69.64.39,1.38.69,2.12.89.49.15,1.03.25,1.53.44.1,0,.2.1.3.2.05.1.1.2.1.3,0,.15-.05.25-.15.34-.1.1-.2.2-.3.2-.44.2-.98.25-1.43.1-.49-.15-.89-.44-1.13-.89h0c-.05-.1-.1-.2-.25-.2-.64-.05-1.33,0-1.97.1.05.64.34,1.23.74,1.67.05.05.1.1.15.15.89.54,1.87.84,2.9.84s2.07-.34,2.9-.89c.3-.25.49-.54.64-.89s.15-.69.1-1.08c-.05-.34-.25-.69-.44-.98-.25-.3-.54-.49-.89-.59l.1.05ZM73.26,44.75c.39-.64.98-1.13,1.72-1.43s1.53-.34,2.31-.2c.79.15,1.48.54,2.02,1.08.59.79.94,1.77.89,2.81,0,.39-.2.44-.49.44h-4.53c-.49,0-.54.2-.44.59.05.34.2.64.44.89.2.25.49.39.84.49.34.15.74.15,1.13.05.34-.1.69-.3.98-.54.25-.2.59-.34.89-.39.34-.1.64-.1.98,0,.25.1.2.3.15.44h0v.05c-.1.34-.3.69-.59.94-.25.3-.54.49-.89.64-1.13.54-2.46.59-3.64.15-.74-.34-1.38-.89-1.77-1.58s-.54-1.53-.44-2.31c0-.74.15-1.48.59-2.12h-.15ZM76.81,46.23h.89c.44,0,.49-.2.39-.54-.1-.3-.25-.54-.49-.69-.25-.2-.49-.3-.79-.3-.34-.1-.69-.05-1.03.05s-.64.34-.84.59v.05c-.15.2-.25.39-.2.64.1.25.3.2.44.2h1.62ZM14.62,42.88c-.89-.15-1.77,0-2.51.44s-1.33,1.18-1.62,2.02c-.39.98-.39,2.02-.1,3,.34.98.98,1.82,1.87,2.36h.05c.59.3,1.23.44,1.92.39.64-.05,1.28-.3,1.82-.69.54-.39.94-.89,1.23-1.48.25-.59.34-1.28.3-1.92.1-.94-.15-1.87-.69-2.61s-1.33-1.28-2.26-1.48v-.05ZM15.02,48.84c-.25.2-.54.3-.89.34-.34,0-.64,0-.94-.15s-.54-.34-.74-.59-.3-.59-.34-.89v-1.03c0-.49.2-.94.49-1.28.34-.34.79-.54,1.28-.54.25,0,.49,0,.74.1s.44.25.59.39c.15.2.3.39.39.59.1.25.1.49.1.74v.34c.1.34.05.74-.05,1.08s-.34.64-.59.89h-.05ZM55.59,46.77v3.74c0,.44-.15.59-.54.54h-.54c-.54.05-.79-.1-.74-.74v-3.35c0-.25,0-.49-.1-.74s-.2-.49-.39-.69c-.15-.2-.39-.34-.59-.44-.25-.1-.49-.2-.74-.2s-.49.1-.74.2c-.25.1-.44.3-.59.44s-.3.39-.39.64-.1.49-.1.74v3.35c0,.64-.2.79-.79.74h-.54c-.44.05-.59-.15-.59-.59v-1.82h0v-1.92c0-.98.44-1.92,1.13-2.56s1.62-1.08,2.61-1.08,1.87.44,2.51,1.13,1.03,1.62,1.03,2.56l.1.05ZM26.44,43.08h-.59c-.59-.1-.74.15-.74.69v3.59c0,.49-.2.94-.49,1.28-.34.34-.79.54-1.28.59-.25,0-.49,0-.74-.15-.25-.1-.44-.25-.59-.39-.15-.2-.3-.39-.39-.59-.1-.25-.15-.49-.1-.74v-2.07h0v-1.48h0c0-.39,0-.59-.1-.69-.1-.1-.25-.1-.59-.1h-.54c-.49,0-.59.15-.59.59v1.38h0v1.33h0v1.23c0,.94.44,1.77,1.08,2.41.69.64,1.58.98,2.46.98s1.77-.3,2.46-.94c.69-.59,1.08-1.43,1.18-2.36v-2.66h0v-1.58c0-.39-.15-.54-.54-.49l.1.15ZM69.42,43.03h.74c.34,0,.54,0,.59.15.05.1,0,.3-.2.69v.1c-.89,1.82-1.67,3.69-2.51,5.51l-.3.69v.1c-.2.44-.39.84-1.03.79h-.39c-.54,0-.98,0-1.28-.79-.69-1.67-1.43-3.35-2.17-4.97h0c-.25-.49-.44-1.03-.69-1.53-.25-.54-.15-.74.49-.74h.1q1.28,0,1.82,1.23c.34.84.69,1.67.98,2.51h0c.15.39.3.74.44,1.13.05.3.2.54.44.74.49-.84.89-1.72,1.18-2.61.3-.64.59-1.28.79-1.92,0-.2.1-.34.2-.49s.2-.3.34-.39c.15-.1.3-.15.49-.2h-.05ZM8.07,42.05c0-.54,0-.79-.15-.94s-.39-.15-.89-.15h-.1c-.54,0-.74.1-.69.69v5.71c0,.25,0,.49-.1.74s-.2.44-.39.64-.39.34-.59.39c-.25.1-.49.15-.74.15s-.49-.05-.69-.15c-.25-.1-.44-.25-.59-.44-.15-.2-.3-.39-.34-.64-.1-.25-.1-.49-.1-.74,0-.59-.15-.84-.74-.74h-.59c-.34,0-.49.1-.49.44-.05.49,0,.98.15,1.48.15.49.39.94.69,1.28.3.39.69.69,1.13.89.44.25.94.34,1.43.39.49,0,.98,0,1.48-.2.44-.15.89-.44,1.23-.79.34-.34.64-.74.84-1.23.2-.44.3-.94.25-1.43v-1.87h0v-3.54.05ZM33.87,40.96c.2,0,.34.1.34.34h0v.25c.03.82-.36,1.25-1.18,1.28-.44-.05-.84.05-1.23.3-.34.25-.64.59-.74.98-.15.49-.1.79.54.74h.98c1.18,0,1.38.3,1.18,1.48-.05.34-.25.34-.49.34h-1.48c-.64-.1-.79.2-.79.79v2.95c0,.49-.15.64-.64.64h-.05c-.59,0-.89,0-1.03-.15s-.15-.44-.15-1.08v-3.35h0v-1.87c0-.59.15-1.13.39-1.67s.64-.98,1.08-1.33.98-.59,1.58-.74c.54-.1,1.13-.1,1.72,0l-.05.1ZM107.58,49.24c-.3,0-.54,0-.84-.05-.25-.1-.49-.25-.69-.44s-.34-.44-.44-.69c-.1-.25-.1-.54-.1-.84v-.69c0-1.05.53-1.59,1.58-1.62h.1c.2,0,.34,0,.44-.25.3-1.03-.05-1.58-1.13-1.58h-.15c-.69.1-.89-.15-.89-.84v-.59h0c0-.34,0-.49-.05-.59-.1-.1-.3-.1-.74-.1h-.54c-.49,0-.59.15-.59.59v2.95h0v1.03h0v2.07c0,.54.15,1.03.39,1.53s.54.89.98,1.23c.39.34.89.59,1.38.69.49.15,1.03.15,1.58.05h0c.1,0,.2,0,.2-.1.15-.49.15-1.03,0-1.53,0-.25-.3-.2-.49-.2h-.2l.2-.05ZM59.13,27.62v3.69c0,.54-.1.79-.69.74h-.44c-.39,0-.54,0-.64-.1s-.1-.3-.1-.64v-11.08c0-.74.34-.74.74-.74h.25c.49,0,.89,0,.84.69v7.39h0l.05.05ZM87.54,43.47c0-.3-.15-.39-.39-.39-.98-.15-1.97.1-2.76.64-.79.59-1.33,1.43-1.48,2.41-.05.79-.1,1.58,0,2.41h-.05v1.87h0c0,.34,0,.49.1.59s.3.1.69.1h.44c.49,0,.64-.15.64-.64v-1.38h0v-1.87c-.05-.3,0-.64.05-.94.1-.3.25-.59.49-.84s.49-.39.79-.49.64-.15.94-.1c.44.1.64-.15.59-.59v-.84l-.05.05ZM58.54,43.08h.44c.59-.1.69.2.69.74v2.31h0v1.97h0v2.41c0,.49-.15.59-.59.59h-.54c-.39,0-.59,0-.69-.1s-.1-.3-.1-.64h0v-3.15h0v-3.4c0-.59.15-.84.74-.74h.05ZM101.13,43.62c0-.44-.15-.59-.59-.54h-.59c-.54-.05-.69.15-.69.64v6.65c0,.54.15.74.69.69h.59c.39,0,.59-.1.54-.54v-6.89h.05ZM65.48,21.32c-.2-.2-.3-.49-.25-.79,0-.15,0-.3.05-.44,0-.15.15-.3.25-.39.1-.1.25-.2.34-.25.15-.05.3-.1.44-.1s.3,0,.44.1c.15.05.25.15.34.25s.2.25.2.39.05.3.05.44c0,.3-.1.59-.34.79-.2.2-.49.34-.79.34s-.54-.15-.74-.39v.05ZM44.31,34.22c0-.2-.1-.39-.2-.59-.15-.2-.3-.3-.49-.39-.2-.1-.39-.1-.64,0-.2,0-.39.15-.54.3-.15.15-.25.34-.3.54,0,.2,0,.44.05.64.1.2.25.34.39.49.2.1.39.2.59.2.3,0,.54-.15.74-.34.2-.2.3-.49.3-.79l.1-.05ZM112.16,33.78c0,.15.05.3.05.44s0,.3-.05.44c0,.15-.15.25-.25.39-.1.1-.25.2-.34.25-.15.05-.3.1-.44.1s-.3,0-.44-.1c-.15-.05-.25-.15-.34-.25s-.2-.25-.25-.39c0-.15-.05-.3-.05-.44s0-.3.05-.44c0-.15.15-.25.25-.39.1-.1.25-.2.34-.25.15-.05.3-.1.44-.1s.3,0,.44.1c.15.05.25.15.34.25s.2.25.25.39ZM58.64,39.83c-.15,0-.3,0-.39.1-.15.05-.25.15-.34.25s-.2.25-.25.34c-.05.15-.05.3-.05.39,0,.15,0,.3.1.39.05.15.15.25.25.34s.25.15.34.2c.15,0,.3.05.39.05.3,0,.54-.15.74-.34.2-.2.3-.49.3-.74s-.15-.54-.34-.74-.49-.3-.74-.3v.05ZM99.4,40.13c.2-.2.44-.3.74-.34.15,0,.3,0,.39.1.15.05.25.15.34.25s.2.2.25.34c.05.15.1.25.1.39s0,.3-.1.39c-.05.15-.15.25-.25.34s-.2.2-.34.25c-.15.05-.25.1-.39.1-.3,0-.54-.15-.74-.34-.2-.2-.3-.49-.3-.74,0-.3.15-.54.34-.74h-.05Z"/>
    <path id="Union_2" data-name="Union 2" class="cls-1" d="M128.06,40.47v-.1c-.69-.74-1.08-1.62-1.13-2.61-.05-.98.2-1.92.74-2.71h0v-.05c.3-.64.79-1.23,1.33-1.62,1.67-1.48,3.59-2.56,5.71-3.25h0c.44-.3.98-.44,1.53-.54h0c.2-.15.44-.25.74-.25h.15c1.97-.69,3.99-1.18,6.06-1.48,3.94-.64,7.93-.98,11.96-1.03.64,0,.89.15.84.84-.05.89,0,.89.89.94.49,0,.94.05,1.43.1.64.05,1.28.15,1.97.1.59,0,.44-.25.25-.54-.25-.34-.49-.64-.74-.98-.1-.15-.2-.25-.3-.39-.25-.25-.49-.49-.69-.74-.69-.74-1.43-1.53-2.22-2.22l-.1-.1c-.1-.1-.15-.2-.3-.15-.15.05-.15.2-.15.3v1.72c-.2-.2-.44-.34-.64-.54-.54-.44-.98-.84-1.48-1.23-2.86-2.46-6.01-4.63-9.31-6.4-1.48-.79-3.1-1.38-4.78-1.72-.49-.15-1.08-.2-1.62-.1-.54.1-1.03.3-1.48.64s-.79.74-.98,1.23c-.25.49-.34,1.03-.3,1.58-.15,1.53-.05,3.05.2,4.58.2.94.49,1.82.84,2.66-.3.1-.34-.05-.39-.2h0c-1.23-2.51-1.92-5.22-1.97-8.03,0-1.03.3-2.02.89-2.86.39-.59.94-1.03,1.58-1.33s1.33-.44,2.02-.44c2.07.05,4.09.59,5.91,1.62,3.54,1.72,6.79,3.89,9.7,6.5.25.25.54.44.79.64.2.15.39.34.64.49.25.2.39.15.39-.15V5.32c0-.94-.15-.98-.94-.54-.2.1-.39.25-.54.44-.15.2-.25.39-.3.64-.54,2.17-1.33,4.28-2.36,6.25-.59,1.33-.94,2.76-1.08,4.18v.15c0,.2-.05.39-.3.54-.2-.64-.25-1.28-.15-1.92.15-1.18.39-2.31.79-3.45.15-.44.25-.89.34-1.33,0-.34.15-.64.39-.94.59-.59.98-1.38,1.03-2.26.25-1.67.98-2.95,2.86-3.25.3,0,.34-.25.34-.49V.79c0-.64.2-.79.79-.79h39.54c.44,0,.64,0,.79.1.1.1.1.34.1.79v71c0,.49,0,.74-.05.84-.1.1-.3.1-.84.1h-39.54c-.59,0-.84-.15-.79-.79v-2.56c0-.25,0,0,0-.05,0-.2,0-.34-.3-.39-.84-.1-1.62-.44-2.31-.89s-1.23-1.13-1.62-1.87c-1.13-1.72-2.02-3.59-2.56-5.56,0-.1-.1-.2-.1-.3s0-.2.05-.3c.2.1.3.3.34.44v.15c.79,1.92,1.97,3.69,3.5,5.17.64.64,1.48,1.08,2.36,1.28.44.05.64,0,.64-.49v-14.87h0v-.1c0-.15,0-.25-.15-.3-.1,0-.15,0-.25.1,0,0-.05.05-.1.1-.1.05-.15.15-.25.25-.15.15-.3.3-.49.34l-1.72,1.43-.15.1-.15.1c-3.45,2.95-7.39,5.22-11.72,6.65-.79.3-1.58.44-2.41.39-.84,0-1.62-.25-2.36-.64-.54-.34-.98-.79-1.33-1.28-.34-.54-.54-1.13-.59-1.77-.2-2.12.15-4.28.94-6.25.54-1.58,1.18-3.05,1.97-4.53.2-.44.2-.64-.34-.79-2.61-.69-5.07-1.87-7.24-3.5-.05-.05-.15-.1-.2-.2-.59-.34-1.08-.84-1.43-1.43-.05,0-.1-.05-.15-.1,0,0-.05-.1-.05-.15l.1.25ZM153.17,53.72h0s.1-.05.1-.1c.1-.1.15-.2.25-.3-.1.15-.25.25-.34.39ZM128.35,37.17v-.05h0v.05ZM160.41,23.58c.2-.64.25-1.28.1-1.92h0c-.15-.59-.2-1.23-.1-1.82q.15-1.28-1.13-1.38h0c-1.03-.1-1.18,0-1.08,1.03.25,1.23.3,2.51.25,3.74-.15.84,0,.94.89.84h.34c.34,0,.69,0,.74-.49ZM161.34,38.5c.15-.59.2-1.23.1-1.82h0c-.15-.74-.2-1.48-.05-2.22.1-.94,0-1.03-.89-1.03h-.59c-1.03-.05-1.18.05-1.08,1.13.25,1.33.3,2.66.2,3.99-.1.54.3.64.69.59h.3c.25,0,.54,0,.79-.05.15,0,.25-.05.39-.15.1-.1.15-.2.2-.34l-.05-.1ZM156.27,46.53c-.15.15-.1.44-.1,1.23h0c0,.59.25.64.69.64,1.77,0,3.54-.1,5.27-.25,1.62-.15,1.62-.1,1.18,1.48-.15,1.87-.44,3.69-.84,5.51-.05.25-.15.3-.34.15-.15-.1-.25-.2-.39-.3,0,0-.05,0-.1-.05-.39-.2-.79-.44-1.08-.79-.05,0-.15,0-.2-.1-.05,0-.1-.1-.1-.15-.39-.2-.74-.44-1.03-.79h-.05s-.15-.1-.2-.15c-.05,0-.1-.1-.1-.15-.64-.39-1.18-.89-1.67-1.43l-.2-.2s-.15,0-.2-.1c-.05,0-.1-.1-.1-.15-.3.25-.3.54-.25.84v.49h0s.1.1.15.1.1.1.1.15c.05,0,.15,0,.2.1.05,0,.1.1.1.15.34.2.69.49.94.84h.1v.1l.2.15h0s.15.05.2.1c.05,0,.1.1.1.2,1.08.79,2.12,1.58,3.2,2.36.15.1.3.25.2.44-.44,1.92-1.03,3.79-1.77,5.61-.05.44-.25.84-.54,1.13l-.15.25c-.15.49-.34.98-.69,1.33-.15.39-.44.74-.74,1.03h0l-.15.15c-.25.39-.64.74-1.08.89-.89.2-.89.74-.84,1.43,0,.49.25.54.59.44.34-.1.64-.25.94-.34.15-.05.3-.1.44-.15,0-.1.05-.15.15-.15.84-.84,1.62-1.77,2.31-2.71.25-.59.49-1.13.84-1.62l1.33-3.54v-.25c.1-.25.15-.49.2-.69.1-.49.25-.98.39-1.48.1-.34.25-.64.64-.25.25.2.49.39.79.54l.15.15c.1,0,.25,0,.3.1,1.43.79,2.9,1.48,4.43,2.02,1.33.54,2.71.69,4.14.49.79-.1,1.48-.49,2.02-.98.54-.54.94-1.23,1.08-2.02.34-1.82.25-3.74-.39-5.47-.59-2.12-1.38-4.14-2.46-6.01-.3-.54-.15-.64.39-.79,2.76-.69,5.32-1.92,7.63-3.59,1.28-.84,2.22-2.07,2.66-3.5.25-.84.25-1.77,0-2.61-.25-.84-.74-1.62-1.38-2.22-1.18-1.23-2.61-2.17-4.18-2.81-.44-.15-.84-.39-1.23-.59-.39-.2-.74-.39-1.13-.54-.25-.15-.54-.2-.79-.1,1.43.79,2.81,1.67,4.09,2.66,1.18.84,2.17,1.97,2.81,3.25.44.79.54,1.67.34,2.51s-.74,1.62-1.48,2.12c-1.87,1.43-4.04,2.56-6.3,3.25-.34.1-.64.2-.98.3s-.69.2-1.03.3c-.05,0-.15.05-.25.05h-.25c-.1,0-.15-.05-.2-.15-.05-.05-.1-.15-.15-.2-.2-.34-.39-.64-.59-.98-.64-1.03-1.23-2.12-1.97-3.1-.39-.64-.84-1.28-1.33-1.87-.3-.34-.25-.59,0-.94,2.46-2.95,4.58-6.15,6.4-9.55,1.48-2.61,2.46-5.47,2.9-8.42.2-1.03.05-2.12-.39-3.05-.44-.94-1.23-1.72-2.17-2.17-1.13-.39-2.31-.49-3.5-.25-.64.1-1.28.25-1.92.44-1.13.39-2.22.84-3.3,1.38.54-.1,1.08-.2,1.62-.34.54-.1,1.03-.25,1.58-.34,1.48-.3,3-.2,4.43.34.64.2,1.18.64,1.58,1.18.39.54.59,1.23.54,1.87-.05,2.07-.54,4.04-1.48,5.86-1.72,3.79-3.84,7.34-6.4,10.59-.1.1-.15.2-.25.34-.44.59-.89,1.18-1.38,1.77-.3.34-.15.54,0,.79h0c1.48,1.97,2.81,4.04,4.09,6.15,0,.05.1.1.1.2.1.15.15.25.25.39.25.34.15.49-.25.59-1.72.39-3.45.69-5.22.94-.59.1-.69-.1-.54-.64,0-.1,0-.15.05-.25.1-.39.2-.79.74-.94.3-.1.25-.39.2-.64v-.1c0-.3-.1-.59-.44-.59-.39,0-.39-.2-.39-.39h0v-1.08c0-1.77,0-3.5.2-5.27.15-1.53,0-3.1-.49-4.58-.1-.3-.1-.44.2-.59.15-.05.25-.2.3-.3.05-.15.05-.3,0-.44-.1-.34-.3-.39-.64-.39s-.39-.2-.44-.44h0c0-.25-.1-.54-.15-.79-.15-.74-.3-1.53-.34-2.26-.05-.69-.2-1.38-.39-2.07-.3-1.38-.54-2.81-.69-4.23-.1-.44-.15-.89-.25-1.33-.05-.3-.1-.59-.15-.89-.1-.39-.05-.69.34-.94.15-.1.3-.2.34-.39.05-.15.1-.34,0-.49-.1-.39-.39-.39-.74-.44h0c-.39,0-.49-.25-.64-.59-.59-1.48-.94-3.05-1.08-4.63,0-.1,0-.25-.05-.34-.44-.74-.79-1.53-1.08-2.31-.34-.94-.74-1.87-1.33-2.66-.59-.44-1.28-.74-2.02-.84-.34,0-.69,0-.44.49.2,0,.34,0,.54.05.05,0,.15,0,.2.05.25.05.49.15.59.44.3.25.49.54.59.89.84,1.87,1.48,3.79,1.92,5.76.2,1.08.49,2.17.84,3.2.2.64.1.89-.54.98-.59.1-1.23.15-1.87.2-.3,0-.54,0-.84.1h-.69c1.03.54,2.26.74,3.45.54.15,0,.3,0,.44-.1.44-.15.64.05.69.49,0,.39.05.74.1,1.13,0,.59.1,1.13.15,1.72.05,1.67.34,3.35.94,4.92.25.59.34,1.23.34,1.87,0,.74.05,1.43.15,2.17,0,.15.05.34,0,.49,0,.15-.1.3-.2.44-.1.15-.25.25-.39.3s-.3.1-.49.1c-.69.1-1.33.2-2.02.25-.3,0-.64.1-.94.1s-.54.1-.79.2c1.23.34,2.51.44,3.79.34,1.28-.15,1.53,0,1.67,1.33.05,1.77,0,3.54-.1,5.27,0,.49,0,1.03-.05,1.53,0,.89-.1,1.77,0,2.66,0,.2,0,.39-.05.59-.05.2-.15.34-.3.49-.15.15-.3.25-.49.34s-.39.1-.59.1c-.94,0-1.92.15-2.86.34l.59.39c.15-.05.3-.05.44,0s.3.05.39.15l.54.15s.1-.05.15-.05.1,0,.15.05c.54,0,1.08,0,1.58.2.15.05.3.2.39.34.1.15.1.34.1.54,0,.34-.25.34-.49.3h-.15c-1.87.2-3.79.3-5.71.34-.74,0-1.03,0-1.18.1l.44.05ZM157.75,9.26c-.39.1-.84.25-.69.89.2.54.3,1.13.3,1.72,0,.34,0,.69.1.98v.05c.05.15.1.3.25.3.39.05.79,0,1.13-.2.1-.1.2-.3.2-.44s0-.34-.1-.49c-.25-.74-.44-1.48-.54-2.26v-.15c0-.3-.1-.59-.54-.44h-.1v.05ZM155.68,49.97h0c.2-.15.3-.34.34-.59s0-.49,0-.69c-.15-.3-.44-.3-.74-.25h-.3c-5.27-.05-10.49-.69-15.61-1.92h-.39s-.1.05-.15.1c0,0-.1.1-.1.15-.64,1.18-1.23,2.36-1.67,3.64-.74,1.72-1.23,3.59-1.43,5.51-.15,2.71,1.33,4.14,4.04,3.74.49-.1,1.03-.2,1.53-.34,2.66-.89,5.17-2.12,7.43-3.74,1.53-.98,2.95-2.12,4.38-3.25.25-.2.49-.39.79-.59l.15-.15c.15-.25.39-.44.69-.54,0-.05.05-.1.1-.15,0,0,.1-.05.15-.1h0l.2-.2.1-.1.15-.15s.05-.15.1-.2c0-.05.1-.1.2-.15h0l.05-.05ZM156.07,31.9v-2.61h0c0-.39-.1-.64-.54-.59-.98.05-1.92.05-2.9.05-.1,0-.25,0-.34.1-.1.05-.2.15-.25.25-.94.98-1.87,1.97-2.81,2.95-.15.2-.34.39-.49.59-.39.49-.79.98-1.23,1.48-.15.15-.2.3-.15.44.69.74,1.08,1.72,1.13,2.76,0,1.03-.3,2.02-.89,2.86-.64.79-1.48,1.38-2.51,1.62-.98.25-2.02.1-2.95-.34-.2,0-.34.15-.49.39-.34.59-.69,1.18-1.08,1.77-.05.1-.15.2-.2.3-.39.64-.39.69.39.84,4.83,1.03,9.7,1.53,14.62,1.58.59,0,.74-.2.74-.79v-13.69l-.05.05ZM148.49,32.35h.15-.15ZM137.32,31.17c-.84.25-1.62.49-2.41.84h0c-2.46.79-4.58,2.31-6.06,4.38l-.25,1.08v.25c.39,1.33,1.23,2.46,2.36,3.25h0c2.26,1.43,4.73,2.51,7.29,3.2.3.1.54.15.74-.2.59-.98,1.23-2.02,1.87-3,.05-.1.1-.2.1-.34-.74-.74-1.18-1.72-1.23-2.76-.1-1.03.2-2.07.84-2.9.59-.84,1.48-1.43,2.51-1.67s2.07-.15,3,.34c.25,0,.39-.15.59-.39.25-.34.59-.64.89-.98.15-.15.25-.3.39-.44,0-.05,0-.15.1-.2,0-.05.1-.1.15-.1.64-.84,1.38-1.62,2.17-2.36h0v-.05c-.15-.2-.34-.15-.49-.1h-.2c-1.18.05-2.31.2-3.5.34-.69.1-1.38.2-2.12.25h-.39l-4.78,1.08c-.49.2-1.03.34-1.58.49h0ZM150.26,29.1v.1h0v-.1ZM168.73,59.13c-1.58-.69-3.1-1.53-4.53-2.46-.1-.05-.2-.15-.25-.3-.05-.1-.05-.25,0-.39.54-2.51.89-5.02,1.13-7.58,0-.44.2-.64.69-.69,2.22-.25,4.43-.64,6.6-1.23.25-.05.44-.1.59.15,1.72,3,2.81,6.35,3.15,9.85v.34c0,.25,0,.54-.1.84,0,.34-.15.74-.3,1.03s-.39.59-.69.84-.59.39-.98.49c-.34.1-.74.15-1.08.1-1.48,0-2.9-.34-4.18-.98h-.05Z"/>
  </g>
</svg>