<?xml version="1.0" encoding="UTF-8"?>
<svg id="Layer_1" data-name="Layer 1" xmlns="http://www.w3.org/2000/svg" viewBox="0 0 197.33 142.1">
  <defs>
    <style>
      .cls-1 {
        fill: #fff;
      }
    </style>
  </defs>
  <g>
    <polygon class="cls-1" points="95.44 31.81 90.26 37.06 90.26 69.78 95.44 75.03 100.62 69.78 100.62 37.06 95.44 31.81"/>
    <line class="cls-1" x1="81.63" y1="38.73" x2="85.94" y2="34.42"/>
    <line class="cls-1" x1="109.17" y1="38.7" x2="104.89" y2="34.39"/>
    <path class="cls-1" d="M109.1,24.93h21.38l-9.46-9.67h-15.92l4.31-4.31,3.44-3.44L120.22.14l-13.49-.14-11.26,11.26L84.21,0l-13.49.14,7.37,7.37,3.44,3.44,4.31,4.31h-15.92l-9.46,9.67h21.38l-11.09,11.09.14,13.49,7.37-7.37,11.02-11.02,6.22-6.22h0l6.01,6.01,11.2,11.2,7.37,7.37.14-13.49-11.06-11.06h-.07ZM95.44,24.93h0Z"/>
    <path class="cls-1" d="M196.33,99.47l-44.71-44.71-28.93,28.93,11.96.07,16.97-16.97,24.16,24.16h-71.31l-2.99-2.99,39.08-39.08-11.96-.07-33.13,33.13-33.13-33.13-12.13-.1,39.25,39.25-2.99,2.99h-10.92l-36.19-36.19-26.7,26.7h12.03l14.67-14.67,24.16,24.16H7.26L.45,99.47h89.56l5.46-5.46,5.46,5.46h95.4ZM151.65,66.72l-5.98-5.98h11.93l-5.95,5.98Z"/>
  </g>
  <g>
    <path class="cls-1" d="M9.52,130.55h-2.89l-1.29,2.57c-.17.35-.31.66-.42.97-.1.31-.17.63-.17.9h-1.6v-4.45H.45v11.23h2.71v-4.76h1.6c0,.28.07.56.17.9s.24.66.42.97l1.39,2.89h2.89l-2.78-5.77,2.68-5.46h0Z"/>
    <rect class="cls-1" x="11.05" y="130.55" width="2.71" height="11.23"/>
    <path class="cls-1" d="M23.05,137.23h-.1c0-.17,0-.35-.1-.52s-.17-.38-.35-.7l-3.44-5.49h-2.68v11.23h2.71v-6.71h.1c0,.17.03.35.1.52s.17.38.35.7l3.44,5.49h2.64v-11.23h-2.71v6.71h.03Z"/>
    <path class="cls-1" d="M32.82,137.33h1.36v2.54h-3.3v-6.08c0-.56.14-.9.42-1.08.28-.17.76-.24,1.46-.24s.56,0,.9.03c.35,0,.73.07,1.11.1s.73.1,1.04.17l.35-2.16c-.24-.07-.52-.14-.94-.21-.38-.07-.8-.1-1.22-.14-.42-.03-.83-.07-1.18-.07-.97,0-1.77.1-2.4.28s-1.11.49-1.5.94c-.38.45-.63,1.04-.76,1.81-.14.76-.21,1.74-.21,2.89s.07,2.16.17,2.92.35,1.36.66,1.81c.31.42.76.73,1.32.9.56.17,1.29.24,2.12.24s1.74-.07,2.43-.17,1.32-.28,1.95-.56v-6.01h-3.82v2.02l.03.07Z"/>
    <path class="cls-1" d="M51.94,130.55h-2.89l-1.29,2.57c-.17.35-.31.66-.42.97-.1.31-.17.63-.17.9h-1.6v-4.45h-2.71v11.23h2.71v-4.76h1.6c0,.28.07.56.17.9s.24.66.42.97l1.39,2.89h2.89l-2.78-5.77,2.68-5.46h0Z"/>
    <polygon class="cls-1" points="59.87 135.18 56.15 135.18 56.15 130.55 53.44 130.55 53.44 141.78 56.15 141.78 56.15 137.19 59.87 137.19 59.87 141.78 62.55 141.78 62.55 130.55 59.87 130.55 59.87 135.18"/>
    <path class="cls-1" d="M67.17,130.55l-3.13,11.23h2.71l.59-2.16h3.82l.59,2.16h2.71l-3.13-11.23h-4.17ZM67.9,137.61l1.25-4.55h.17l1.25,4.55h-2.71.03Z"/>
    <polygon class="cls-1" points="78.57 130.55 75.9 130.55 75.9 141.78 82.4 141.78 82.4 139.56 78.57 139.56 78.57 130.55"/>
    <rect class="cls-1" x="83.79" y="130.55" width="2.71" height="11.23"/>
    <path class="cls-1" d="M97.52,131.63c-.35-.42-.83-.7-1.5-.87-.63-.17-1.46-.24-2.43-.24h-4.55v11.23h4.55c.97,0,1.81-.07,2.43-.24s1.11-.45,1.5-.87c.35-.42.59-.97.76-1.7.14-.73.21-1.67.21-2.78s-.07-2.09-.21-2.82-.38-1.29-.76-1.7h0ZM95.61,138.41c0,.45-.1.8-.31.97s-.56.28-1.11.28h-2.43v-6.95h2.43c.52,0,.9.07,1.11.24s.31.49.31.97v4.52-.03Z"/>
    <path class="cls-1" d="M111.19,138.79c0,.24-.07.45-.17.59s-.31.24-.56.28c-.28.07-.66.07-1.18.07h-2.05v-9.21h-2.71v7.44c0,.8.07,1.5.21,2.02.14.52.38.94.73,1.25.35.31.83.52,1.43.63.59.1,1.39.17,2.33.17s1.7-.07,2.29-.17c.59-.1,1.08-.31,1.43-.63.35-.31.59-.73.73-1.25.14-.52.21-1.22.21-2.02v-7.44h-2.71v8.27h.03Z"/>
    <path class="cls-1" d="M123.01,137.23h-.1c0-.17,0-.35-.1-.52s-.17-.38-.35-.7l-3.44-5.49h-2.68v11.23h2.71v-6.71h.1c0,.17.03.35.1.52s.17.38.35.7l3.44,5.49h2.64v-11.23h-2.71v6.71h.03Z"/>
    <rect class="cls-1" x="128.33" y="130.55" width="2.71" height="11.23"/>
    <polygon class="cls-1" points="137.54 139.24 137.4 139.24 135.17 130.55 132.46 130.55 135.38 141.78 139.56 141.78 142.51 130.55 139.8 130.55 137.54 139.24"/>
    <polygon class="cls-1" points="150.92 132.74 151.27 130.55 143.9 130.55 143.9 141.78 151.24 141.78 151.24 139.56 146.61 139.56 146.61 137.16 150.58 137.16 150.58 135.18 146.61 135.18 146.61 132.74 150.92 132.74"/>
    <path class="cls-1" d="M161.08,137.3c.56-.59.83-1.5.83-2.78s-.14-1.74-.38-2.33c-.24-.59-.66-1.01-1.18-1.25s-1.29-.38-2.19-.38h-4.9v11.23h2.71v-3.62h1.81l1.7,3.62h2.92l-1.95-4.03c.24-.14.45-.28.63-.45h0ZM155.97,132.74h2.12c.38,0,.63.07.76.17s.21.31.21.59v1.88c0,.28-.07.49-.21.59-.14.1-.38.17-.76.17h-2.12v-3.41h0Z"/>
    <path class="cls-1" d="M170.6,135.45c-.56-.24-1.36-.42-2.29-.49l-1.67-.14v-2.19c.24-.03.49-.07.7-.07h.83c.56,0,1.04,0,1.53.07.49.03,1.01.14,1.6.24l.35-2.16c-.66-.14-1.29-.24-1.95-.31-.66-.07-1.32-.1-2.02-.1s-1.74.1-2.33.35-1.01.63-1.25,1.18c-.24.56-.38,1.29-.38,2.23s.07,1.08.17,1.46c.14.38.35.73.63.97.31.24.7.45,1.22.59s1.15.24,1.88.31l1.67.14v2.19c-.35.03-.66.07-.9.1h-.83c-.59,0-1.22-.03-1.84-.14-.63-.1-1.22-.21-1.77-.38l-.38,2.23c.66.21,1.36.31,2.02.42.7.07,1.39.14,2.16.14,1.08,0,1.95-.1,2.61-.35s1.15-.63,1.43-1.15c.31-.52.45-1.22.45-2.05s-.14-1.43-.38-1.91c-.24-.49-.66-.87-1.25-1.11l.03-.07Z"/>
    <rect class="cls-1" x="174.08" y="130.55" width="2.71" height="11.23"/>
    <polygon class="cls-1" points="178.25 132.74 181 132.74 181 141.78 183.71 141.78 183.71 132.74 186.49 132.74 186.49 130.55 178.25 130.55 178.25 132.74"/>
    <polygon class="cls-1" points="193.38 130.55 191.5 135.25 189.62 130.55 186.8 130.55 190.14 138.03 190.14 141.78 192.85 141.78 192.85 138.03 196.19 130.55 193.38 130.55"/>
  </g>
  <g>
    <path class="cls-1" d="M14.77,119.53h-3.44c-.17-2.29-.9-4.14-2.16-5.53-1.29-1.39-3.23-2.47-5.84-3.13l-.49-.14-1.01,2.99.56.14c1.84.49,3.23,1.22,4.07,2.23.73.87,1.15,2.02,1.29,3.44H.49v2.92h17.97v-16.17h-3.65v13.25h-.03Z"/>
    <path class="cls-1" d="M38.38,111.22c-.97,0-1.95.07-2.96.21l-.45.07v2.92l.63-.1c.73-.1,1.6-.17,2.57-.17,1.63,0,2.78.31,3.44.97.63.59.9,1.6.9,2.99s0,.94-.07,1.43h-17.18v-13.25h-3.65v16.17h24.06l.07-.45c.24-1.39.38-2.75.38-4.03,0-2.26-.63-3.96-1.84-5.04-1.25-1.15-3.27-1.7-5.95-1.7h.03Z"/>
    <path class="cls-1" d="M39.04,110.32c.56,0,1.01-.17,1.39-.52s.59-.8.59-1.32-.21-.97-.59-1.32-.83-.49-1.39-.49-1.01.17-1.36.52c-.38.35-.59.8-.59,1.32s.21.97.59,1.32.83.52,1.36.52v-.03Z"/>
    <path class="cls-1" d="M65.26,111.22h-1.84c-.28,0-1.22,0-1.22-.38s0-.24.7-.24.63,0,1.11.1l.52.07.42-2.47h-.56c-.66-.1-1.11-.14-1.36-.14-1.18,0-2.16.28-2.82.83-.63.52-.94,1.18-.94,1.95s0,.21,0,.31h-.94v2.47h6.92v-2.5Z"/>
    <path class="cls-1" d="M103.71,119.53h-3.48v-3.09c0-3.51-1.98-5.39-5.74-5.39s-3.65.59-4.83,1.74c-1.11,1.08-1.67,2.43-1.67,4.03s-.21,1.81-.63,2.19c-.35.31-.9.49-1.67.49h-7.72v-13.25h-3.65v13.25h-4.21v-13.25h-3.65v13.25h-4.8c-2.12,0-3.65-.35-4.49-1.04-.73-.59-1.11-1.63-1.11-3.09s.28-2.33.8-3.37l.49-.94-4.14.63-.1.28c-.49,1.11-.73,2.33-.73,3.69,0,2.23.7,3.93,2.09,5.04,1.46,1.18,3.75,1.77,6.85,1.77h25.59v-.07c1.36-.14,2.29-.63,2.85-1.43,1.11.97,2.85,1.46,5.25,1.46h12.27v-16.17h-3.65v13.25l.07.03ZM92.38,114.77c.49-.49,1.11-.73,1.98-.73s2.29.31,2.29,2.82v2.71h-1.56c-3.06,0-3.41-1.6-3.41-2.82s.24-1.5.7-1.98h0Z"/>
    <rect class="cls-1" x="110.39" y="106.28" width="3.65" height="16.17"/>
    <path class="cls-1" d="M125.23,110.6c.52,0,1.01-.17,1.36-.52.24-.21.38-.49.49-.76.1.31.24.56.49.8.38.35.83.52,1.36.52s.97-.17,1.36-.52c.38-.35.56-.8.56-1.29s-.21-.94-.56-1.29c-.38-.35-.83-.52-1.36-.52s-.97.17-1.36.52c-.24.21-.38.49-.49.76-.1-.28-.24-.56-.49-.76-.38-.35-.83-.52-1.36-.52s-.97.17-1.32.52c-.38.35-.56.8-.56,1.29s.21.97.59,1.32c.38.35.8.52,1.32.52l-.03-.07Z"/>
    <path class="cls-1" d="M163.02,111.08c-2.02,0-3.65.59-4.83,1.74-1.11,1.08-1.67,2.43-1.67,4.03s.21,1.98.66,2.71h-2.71c-.7,0-1.39-.14-2.02-.38,1.43-1.25,2.16-2.64,2.16-4.21s-.45-2.09-1.32-2.78c-.94-.76-2.26-1.15-3.96-1.15s-4.59.87-7.09,2.57l-.21.14-.28,2.36.45.14c1.04.28,2.54,1.22,4.38,2.75-1.43.38-3.06.59-4.94.59h-8.97v-7.54l-.35-.14c-1.46-.52-3.16-.8-5.01-.8s-3.75.59-4.94,1.77c-1.08,1.08-1.63,2.43-1.63,4.1,0,2.5,1.18,5.53,6.78,5.53h13.94c2.99,0,5.63-.49,7.82-1.39,1.5.94,3.13,1.39,4.87,1.39h14.6v-6.01c0-3.51-1.98-5.39-5.74-5.39v-.03ZM160.87,114.77c.49-.49,1.11-.73,1.98-.73s2.29.31,2.29,2.82v2.71h-1.56c-3.06,0-3.41-1.6-3.41-2.82s.24-1.5.7-1.98ZM149.05,113.83c.66,0,1.15.14,1.5.45.28.24.42.56.42.97,0,.8-.42,1.53-1.25,2.19-1.88-1.46-2.99-2.23-3.69-2.64,1.15-.63,2.16-.94,3.02-.94v-.03ZM125.06,114.73c.49-.49,1.11-.73,1.98-.73s1.46.1,2.02.28v5.25h-1.29c-3.06,0-3.41-1.63-3.41-2.85s.24-1.46.7-1.95Z"/>
    <path class="cls-1" d="M194.31,112.96h0c-1.25-1.15-3.27-1.7-5.95-1.7s-1.95.07-2.96.21l-.45.07v2.92l.63-.1c.73-.1,1.6-.17,2.57-.17,1.63,0,2.78.31,3.44.97.63.59.9,1.6.9,2.99s0,.94-.07,1.43h-17.18v-13.25h-3.65v16.17h24.06l.07-.45c.24-1.39.38-2.75.38-4.03,0-2.26-.63-3.96-1.84-5.04h.03Z"/>
    <path class="cls-1" d="M189.03,123.32c-.52,0-1.01.17-1.36.52-.38.35-.59.8-.59,1.32s.21.97.59,1.32c.38.35.83.52,1.36.52s1.01-.17,1.39-.52.59-.8.59-1.32-.21-.97-.59-1.32c-.38-.35-.83-.52-1.39-.52Z"/>
  </g>
</svg>