<?xml version="1.0" encoding="UTF-8"?>
<svg id="Layer_1" data-name="Layer 1" xmlns="http://www.w3.org/2000/svg" viewBox="0 0 197.45 148.57">
  <defs>
    <style>
      .cls-1 {
        fill: #fff;
      }

      .cls-2 {
        fill: none;
      }
    </style>
  </defs>
  <path class="cls-2" d="M129.63,144.78c0-1.33-1.08-2.41-2.41-2.41-1.23.09-2.21,1.07-2.3,2.3-.1,1.38.93,2.57,2.3,2.68.02,0,.05,0,.07,0,1.33-.04,2.38-1.15,2.34-2.48h0s0-.06,0-.09ZM127.84,146.63l-.86-1.49h-.35l-.04.07v1.4h-.79v-3.55h1.4c.91,0,1.49.28,1.49,1.07,0,.05,0,.11,0,.16-.03.45-.41.79-.86.76l.93,1.57h-.93Z"/>
  <path class="cls-2" d="M127.21,143.64h-.58v.77h.72c.36,0,.58-.07.58-.42s-.44-.35-.72-.35Z"/>
  <path class="cls-1" d="M175.05,109.75s-.05.06-.07.09c.02-.03.05-.06.07-.09Z"/>
  <path class="cls-1" d="M90.57,13.55c-3.28,2.32-7.69,4.97-13.44,7.57-3.82,1.59-7.78,2.8-11.81,3.63,4.24-.82,8.31-2.03,11.87-3.63,5.68-2.57,10.08-5.23,13.39-7.57Z"/>
  <path class="cls-1" d="M150.76,25.73c3-.26,5.82-.74,8.32-1.45-2.73.72-5.52,1.2-8.32,1.45Z"/>
  <path class="cls-1" d="M148.88,25.87c-1.18.06-2.36.08-3.54.06-1.84.02-3.67-.04-5.49-.18,3.07.24,6.12.28,9.04.12Z"/>
  <path class="cls-1" d="M52.26,26.03c-.11,0-.21,0-.32,0-.09,0-.18,0-.27,0,.19,0,.39,0,.58,0Z"/>
  <path class="cls-1" d="M181.21,93.89v-.51c-.49,5.29-2.24,10.36-5.09,14.8,2.76-4.3,4.51-9.19,5.09-14.29Z"/>
  <path class="cls-1" d="M176.1,108.22c-.08.13-.17.26-.26.39.09-.13.17-.26.26-.39Z"/>
  <path class="cls-1" d="M175.76,108.74c-.06.1-.13.19-.2.29.07-.1.13-.19.2-.29Z"/>
  <path class="cls-1" d="M175.41,109.26c-.04.06-.09.13-.13.19.04-.06.09-.13.13-.19Z"/>
  <polygon class="cls-1" points="165.35 21.97 165.35 21.97 165.36 21.97 165.35 21.97"/>
  <polygon class="cls-1" points="16.12 38.59 16.12 38.68 16.19 38.61 16.12 38.59"/>
  <path class="cls-1" d="M16.12,93.89c.42,3.69,1.44,7.26,3.02,10.58-1.64-3.47-2.67-7.21-3.02-11.07v.49Z"/>
  <path class="cls-1" d="M98.52,145.39c-2.23-.48-6.36-2.12-12.56-4.28,6.2,2.17,10.34,3.81,12.56,4.28Z"/>
  <path class="cls-1" d="M19.51,105.21s0,0,0,0h0Z"/>
  <path class="cls-1" d="M38.52,24.43c1.85.51,3.88.9,6.03,1.17-2.03-.27-4.04-.66-6.03-1.17Z"/>
  <path class="cls-1" d="M93.97,10.96c.06-.05.13-.11.19-.16-.06.05-.13.11-.19.16Z"/>
  <path class="cls-1" d="M139.45,25.71s.05,0,.07,0c-.02,0-.05,0-.07,0Z"/>
  <path class="cls-1" d="M149.01,25.86c.2-.01.39-.02.58-.04-.19.01-.39.03-.58.04Z"/>
  <path class="cls-1" d="M120.45,21.14c4.88,2.19,10.72,3.63,16.63,4.33-5.7-.69-11.29-2.14-16.63-4.33Z"/>
  <path class="cls-1" d="M150.04,25.79c.21-.02.41-.03.62-.05-.21.02-.41.03-.62.05Z"/>
  <path class="cls-1" d="M90.69,13.46c.05-.04.1-.07.15-.11-.05.04-.1.07-.15.11Z"/>
  <path class="cls-1" d="M19.33,104.85c-.05-.1-.1-.21-.15-.31.05.1.1.21.15.31Z"/>
  <path class="cls-1" d="M16.53,38.25l15.52-16.21s1.95.84,4.02,1.59c-1.38-.5-2.74-1.06-4.08-1.68h0l-.69-3.34h0l-.02.02.71,3.32-15.46,16.3Z"/>
  <path class="cls-1" d="M94.17,10.79c3.12-2.59,4.49-4.34,4.49-4.34h0s0,0,0,0V2.04s-.04.05-.06.07v4.33c-.13.16-1.47,1.86-4.44,4.34Z"/>
  <path class="cls-1" d="M121.29,18.55c1.51.62,3.04,1.19,4.58,1.69-1.53-.5-3.04-1.06-4.53-1.69-14.95-6.76-20.21-13.51-22.62-16.57,0,.01-.02.02-.03.04,2.43,3.08,7.72,9.81,22.59,16.54Z"/>
  <path class="cls-1" d="M119.41,141.3c-10.31,3.27-16.29,5.98-20.63,6.69v-2.57h-.22v2.57c-4.34-.72-10.31-3.42-20.63-6.69-4.53-1.4-18.57-6.26-28.39-9.82-10.04-3.64-18.72-8.49-25.03-14.83,6.32,6.39,15.04,11.27,25.13,14.93,9.82,3.56,23.86,8.42,28.39,9.82,10.31,3.27,16.29,5.98,20.63,6.69,4.34-.72,10.31-3.41,20.63-6.69,4.56-1.4,18.57-6.26,28.39-9.82,7.86-2.85,14.89-6.44,20.6-10.91-5.69,4.43-12.67,7.99-20.48,10.82-9.82,3.56-23.86,8.42-28.39,9.82Z"/>
  <path class="cls-1" d="M51.94,23.25c4.94.06,9.85-.5,14.63-1.63-4.75,1.11-9.62,1.66-14.52,1.63-4.49-.05-8.95-.63-13.3-1.71-2.53-.83-5.01-1.81-7.44-2.92,2.38,1.12,4.83,2.09,7.32,2.92,4.35,1.08,8.82,1.65,13.3,1.71Z"/>
  <polygon class="cls-1" points="183.85 37.49 183.85 37.49 166.03 18.62 166.02 18.65 183.85 37.49"/>
  <path class="cls-1" d="M145.4,23.25c4.49-.06,8.95-.63,13.3-1.71,2.48-.82,4.91-1.79,7.28-2.9h0c-2.39,1.1-4.84,2.07-7.34,2.9-4.35,1.08-8.82,1.66-13.3,1.71-6.62.04-13.19-.98-19.47-3.01,6.29,2.07,12.89,3.09,19.53,3.01Z"/>
  <path class="cls-1" d="M166.03,18.62s-.02,0-.03.01h0s.02,0,.03-.01Z"/>
  <path class="cls-1" d="M98.67,1.97v.07s.02-.02.03-.04c0-.01-.02-.02-.03-.04Z"/>
  <path class="cls-1" d="M166.02,18.65v-.04s-.01,0-.02.01l.02.02Z"/>
  <path class="cls-1" d="M98.67,6.45s6.05,7.69,21.54,14.58c.08.04.16.07.24.11,5.33,2.19,10.93,3.65,16.63,4.33.79.09,1.58.17,2.37.24.02,0,.05,0,.07,0,.11,0,.22.02.33.03,1.82.14,3.66.2,5.49.18,1.18.02,2.36,0,3.54-.06.04,0,.08,0,.13,0,.19-.01.39-.02.58-.04.15-.01.3-.02.45-.03.21-.02.41-.03.62-.05.03,0,.07,0,.1,0,2.81-.25,5.59-.74,8.32-1.45.14-.04.28-.08.42-.12,1.99-.61,3.94-1.34,5.84-2.2h.01s0,.01,0,.01h-.01s.64-3.33.64-3.33c-2.37,1.11-4.8,2.08-7.28,2.9-4.35,1.08-8.82,1.65-13.3,1.71-6.64.07-13.24-.95-19.53-3.01-1.55-.5-3.07-1.06-4.58-1.69-14.87-6.72-20.17-13.46-22.59-16.54,0,.01-.02.02-.03.04v4.41s0,0,0,0Z"/>
  <path class="cls-1" d="M165.98,18.62v.02s0,0,.01,0h-.01Z"/>
  <path class="cls-1" d="M181.21,38.67v-.11l2.64-1.07-17.83-18.84-.64,3.3s-.02,0-.03.01h0s15.85,16.7,15.85,16.7Z"/>
  <path class="cls-1" d="M166,18.63h0s-.01,0-.02,0h0s.01,0,.02,0Z"/>
  <path class="cls-1" d="M166.02,18.65l-.02-.02s-.01,0-.02,0l-.64,3.32h.01s.02,0,.03,0l.64-3.3Z"/>
  <polygon class="cls-1" points="31.28 18.64 31.28 18.62 13.48 37.49 13.48 37.49 31.28 18.64"/>
  <polygon class="cls-1" points="16.12 38.56 16.12 38.59 16.19 38.61 16.53 38.25 31.99 21.96 31.28 18.64 13.48 37.49 16.12 38.56"/>
  <polygon class="cls-1" points="31.31 18.62 31.31 18.62 31.31 18.62 31.31 18.62"/>
  <path class="cls-1" d="M98.61,2.12v-.14c-2.41,3.06-7.68,9.81-22.62,16.57-3.06,1.28-6.21,2.31-9.42,3.07,3.25-.76,6.44-1.79,9.54-3.07,14.7-6.65,20.05-13.31,22.51-16.43Z"/>
  <path class="cls-1" d="M36.07,23.63c.61.22,1.23.43,1.82.61.21.06.42.12.63.18,1.99.51,4,.9,6.03,1.17,2.26.28,4.66.42,7.12.43.09,0,.18,0,.27,0,.11,0,.21,0,.32,0,4.29-.02,8.77-.45,13.06-1.29,4.03-.82,7.99-2.03,11.81-3.63,5.75-2.6,10.16-5.25,13.44-7.57.04-.03.08-.06.12-.09.05-.04.1-.07.15-.11,1.19-.85,2.22-1.65,3.12-2.39.06-.05.13-.11.19-.16,0,0,0,0,.01,0,2.97-2.48,4.31-4.18,4.44-4.34V2.12c-2.46,3.12-7.81,9.78-22.51,16.43-3.1,1.28-6.29,2.31-9.54,3.07-4.78,1.13-9.69,1.69-14.63,1.63-4.49-.06-8.95-.63-13.3-1.71-2.5-.82-4.94-1.8-7.32-2.92,0,0,0,0,0,0l.69,3.34c1.34.61,2.7,1.17,4.08,1.68Z"/>
  <path class="cls-1" d="M13.43,94.12v-56.57h0l.06-.06-.17-.07v56.62c.73,6.89,3.45,13.42,7.83,18.79,1.03,1.32,2.15,2.59,3.36,3.8-1.17-1.18-2.26-2.42-3.26-3.71-4.38-5.38-7.09-11.92-7.82-18.82Z"/>
  <path class="cls-1" d="M77.93,141.3c10.31,3.27,16.29,5.98,20.63,6.69v-2.57h.11s-.1-.02-.15-.03c-2.23-.48-6.36-2.11-12.56-4.28-2.12-.74-4.47-1.54-7.07-2.37-4.46-1.4-18.5-6.26-28.32-9.82-11.61-4.21-21.13-9.96-27.18-17.72-1.51-1.86-2.81-3.87-3.87-5.98h0c-.06-.13-.12-.25-.18-.36-.05-.1-.1-.21-.15-.31-.01-.02-.02-.05-.03-.07-1.58-3.32-2.6-6.89-3.02-10.58v-.49s0,0,0,0c-.07-1.99-.14-4.13-.14-9.53,0-8.55.14-45.19.14-45.19h0v-.1l-2.69-1.04v56.57c.72,6.9,3.44,13.44,7.82,18.82,1,1.29,2.09,2.52,3.26,3.71,6.31,6.34,15,11.19,25.03,14.83,9.82,3.56,23.86,8.42,28.39,9.82Z"/>
  <polygon class="cls-1" points="13.43 37.55 13.43 37.55 13.48 37.49 13.48 37.49 13.43 37.55 13.43 37.55"/>
  <polygon class="cls-1" points="13.48 37.49 13.43 37.55 13.43 37.55 16.12 38.59 16.12 38.56 13.48 37.49"/>
  <path class="cls-1" d="M183.85,37.49l.06.06h-.01v56.6c-.77,6.88-3.48,13.4-7.83,18.79-2.19,2.83-4.81,5.39-7.79,7.72,3.03-2.35,5.69-4.95,7.91-7.82,4.38-5.37,7.1-11.9,7.83-18.79v-56.62l-.17.07Z"/>
  <path class="cls-1" d="M176.06,112.94c4.35-5.39,7.07-11.91,7.83-18.79v-56.59l-2.68,1.13c0,.77.14,36.73.14,45.17,0,5.4-.07,7.47-.14,9.53v.51c-.58,5.11-2.33,10-5.09,14.29,0,.01-.01.02-.02.03-.08.13-.17.26-.26.39-.03.04-.06.09-.09.13-.06.1-.13.19-.2.29-.05.07-.1.15-.15.22-.04.06-.09.13-.13.19-.07.1-.15.21-.22.31-.02.03-.05.06-.07.09-.33.45-.67.9-1.03,1.33-6.05,7.76-15.59,13.51-27.18,17.72-9.82,3.56-23.84,8.42-28.32,9.82-10.4,3.35-16.87,6.12-19.79,6.69h.11v2.57c4.34-.72,10.31-3.42,20.63-6.69,4.53-1.4,18.57-6.26,28.39-9.82,7.8-2.83,14.79-6.39,20.48-10.82,2.98-2.33,5.59-4.9,7.79-7.72Z"/>
  <polygon class="cls-1" points="183.91 37.55 183.85 37.49 183.85 37.49 183.91 37.55"/>
  <polygon class="cls-1" points="183.89 37.55 183.91 37.55 183.89 37.55 183.89 37.55"/>
  <path class="cls-1" d="M181.21,38.56v.11s0,0,0,.01l2.68-1.13h0s.01,0,.01,0l-.06-.06-2.64,1.07Z"/>
  <path class="cls-1" d="M113.18,99.24c-.62-.55-1.45-.81-2.27-.72l-1,.03v6.67h1c.63.05,1.27-.04,1.85-.28.39-.2.69-.53.86-.93.24-.68.33-1.41.28-2.13.12-.94-.13-1.89-.72-2.64Z"/>
  <path class="cls-1" d="M165.36,21.97h0c-1.88.85-3.83,1.59-5.81,2.18-.15.04-.31.08-.46.12-2.5.71-5.32,1.19-8.32,1.45-.03,0-.07,0-.1,0-.21.02-.41.03-.62.05-.15.01-.3.02-.45.03-.19.01-.39.03-.58.04-.04,0-.08,0-.13,0-2.92.16-5.97.12-9.04-.12-.11,0-.22-.02-.33-.03-.02,0-.05,0-.07,0-.79-.07-1.59-.15-2.37-.24-5.91-.7-11.74-2.15-16.63-4.33-.1-.04-.2-.08-.3-.12-15.51-6.88-21.2-14.13-21.49-14.57h0s-1.38,1.75-4.49,4.34c0,0,0,0-.01,0-.06.05-.13.11-.19.16-.9.74-1.93,1.54-3.12,2.39-.05.04-.1.07-.15.11-.04.03-.08.06-.12.09-3.3,2.34-7.71,5-13.39,7.57-3.56,1.59-7.63,2.8-11.87,3.63-4.29.87-8.66,1.31-13.06,1.29-.2,0-.39,0-.58,0-2.38.02-4.76-.12-7.12-.43-2.15-.27-4.18-.66-6.03-1.17-.23-.06-.46-.12-.69-.18-.59-.19-1.18-.4-1.76-.61-2.07-.75-4.02-1.59-4.02-1.59l-15.52,16.21-.34.36h0s-.07.07-.07.07v54.72c.35,3.86,1.38,7.6,3.02,11.07.01.02.02.05.03.07.05.1.1.21.15.31.06.12.12.24.18.35,0,0,0,0,0,0,1.07,2.11,2.36,4.11,3.87,5.97,6.05,7.76,15.59,13.51,27.18,17.72,9.82,3.56,23.84,8.42,28.32,9.82,2.6.84,4.96,1.64,7.07,2.38,6.2,2.16,10.34,3.81,12.56,4.28.05.01.1.02.15.03,2.92-.58,9.39-3.34,19.79-6.69,4.48-1.4,18.5-6.26,28.32-9.82,11.59-4.21,21.13-9.96,27.18-17.72.35-.44.7-.88,1.03-1.33.02-.03.05-.06.07-.09.07-.1.15-.21.22-.31.04-.06.09-.13.13-.19.05-.07.1-.15.15-.22.07-.1.13-.19.2-.29.03-.04.06-.09.09-.13.09-.13.17-.26.26-.39,0-.01.01-.02.02-.03,2.85-4.44,4.6-9.51,5.09-14.8v-54.7l-15.85-16.71ZM39.11,105.29c-.52.93-1.31,1.68-2.27,2.13-1.16.55-2.43.82-3.7.79-1.27.04-2.53-.18-3.7-.65-.97-.43-1.79-1.15-2.33-2.06-.66-1.09-.99-2.35-.94-3.62h0c-.11-1.75.54-3.46,1.78-4.7,1.4-1.19,3.22-1.78,5.05-1.64,1.85-.1,3.68.48,5.12,1.64,1.25,1.2,1.9,2.9,1.78,4.63.04,1.21-.23,2.41-.79,3.48ZM45.51,107.98h-4.13v-12.24h4.13v12.24ZM57.97,107.98h-10.47v-12.24h4.06v9.25h6.41v2.99ZM77.46,99.55c.02,1.1-.43,2.15-1.25,2.89-1.06.79-2.38,1.17-3.7,1.07h-2.16v4.56h-4.13v-12.32h6.76c1.2-.07,2.38.28,3.34,1,.78.72,1.19,1.75,1.14,2.81ZM85.29,129.48h-4.13v-12.24h4.13v12.24ZM84.52,104.29c-.17-.36-.41-.67-.72-.93-.29-.2-.64-.3-1-.28h-.35v4.98h-4.21v-12.32h6.83c.98-.04,1.96.05,2.92.28.65.2,1.23.6,1.64,1.14.42.58.63,1.29.6,2.01.03.63-.14,1.26-.49,1.78-.3.52-.74.94-1.28,1.21-.44.23-.92.39-1.4.49.37.09.73.23,1.07.42.25.17.47.39.65.65.23.23.42.5.58.79l1.99,3.56h-4.63l-2.2-3.78ZM103.87,105.29c-.52.93-1.31,1.68-2.27,2.13-1.16.55-2.43.82-3.7.79-1.27.04-2.53-.18-3.7-.65-.98-.43-1.8-1.15-2.34-2.06-.66-1.09-.99-2.35-.94-3.62-.11-1.75.54-3.46,1.78-4.7,1.4-1.19,3.22-1.78,5.05-1.64,1.86-.11,3.69.48,5.14,1.64,1.25,1.2,1.9,2.9,1.78,4.63.04,1.21-.23,2.41-.79,3.48ZM100.07,129.48h-3.82l-4.98-6.72v6.69h-3.83v-12.21h3.85l4.98,6.76v-6.76h3.8v12.24ZM113.19,127.84c-.51.62-1.18,1.1-1.92,1.4-.94.34-1.92.5-2.92.49-1.21.02-2.42-.17-3.56-.58-.98-.42-1.8-1.14-2.34-2.06-.7-1.13-1.04-2.45-1-3.77-.11-1.75.54-3.46,1.78-4.7,2.57-1.89,5.99-2.17,8.83-.72.98.7,1.72,1.68,2.13,2.81l-3.63.72c-.11-.3-.25-.59-.42-.86-.22-.29-.52-.52-.86-.65-.36-.14-.75-.22-1.14-.21-.85-.04-1.65.37-2.13,1.07-.43.73-.63,1.57-.58,2.41-.11.98.12,1.97.65,2.81.99.99,2.57,1.05,3.63.14.54-.4.91-.99,1.05-1.64h0l3.56,1c-.2.85-.59,1.65-1.14,2.34ZM111.93,107.97h-6.05v-12.22h-.03,6.05c.99-.03,1.98.11,2.92.42.71.27,1.34.71,1.85,1.28.51.57.87,1.25,1.07,1.99.23.76.34,1.55.35,2.34.06,1.04-.11,2.09-.49,3.06-.32.7-.8,1.31-1.4,1.78-.54.45-1.17.79-1.85,1-.79.21-1.6.32-2.41.35ZM119.42,129.48h-3.92v-3.41h3.92v3.41ZM131.83,103.11c0,.7-.13,1.4-.35,2.06-.24.65-.63,1.24-1.14,1.71-.45.47-1.02.82-1.64,1-.91.3-1.85.44-2.81.42-.65,0-1.4-.07-2.13-.14-.67-.03-1.32-.19-1.92-.49-.54-.25-1.02-.61-1.4-1.07-.4-.39-.69-.87-.86-1.4-.26-.67-.41-1.37-.42-2.09v-7.37h4.06v7.47c-.02.58.19,1.14.58,1.57.46.39,1.04.6,1.64.58.6.03,1.19-.17,1.64-.58.42-.41.63-.99.58-1.57v-7.47h4.18v7.37ZM144.6,106.28c-.51.62-1.18,1.1-1.92,1.4-.94.34-1.92.5-2.92.49-1.21.02-2.42-.17-3.56-.58-1.01-.39-1.87-1.11-2.44-2.03-.7-1.13-1.04-2.45-1-3.78-.11-1.75.54-3.46,1.78-4.7,2.57-1.89,5.99-2.17,8.83-.72.98.7,1.72,1.68,2.13,2.81l-3.63.72c-.11-.3-.25-.59-.42-.86-.22-.29-.52-.52-.86-.65-.36-.14-.75-.22-1.14-.21-.85-.04-1.65.37-2.13,1.07-.43.73-.63,1.57-.58,2.41-.11.98.12,1.97.65,2.81.99.99,2.57,1.05,3.63.14.6-.37,1.02-.97,1.15-1.67h0l3.56,1c-.2.85-.59,1.65-1.14,2.34ZM158.72,98.73h-4.21v9.25h-4.06v-9.25h-4.21l.03-2.99h12.45v2.99ZM170.21,106.28c-.52.66-1.21,1.18-1.99,1.49-1.02.37-2.11.54-3.2.49-1.66.16-3.32-.27-4.7-1.21-.86-.81-1.35-1.93-1.38-3.12h0l3.92-.21c.06.5.22.98.49,1.4.45.5,1.11.77,1.78.72.49.03.98-.09,1.4-.35.26-.22.44-.52.49-.86-.02-.33-.17-.64-.42-.86-.62-.4-1.33-.64-2.06-.72-1.38-.19-2.7-.7-3.85-1.49-.73-.56-1.15-1.43-1.14-2.34.02-.64.22-1.26.58-1.78.44-.59,1.02-1.06,1.68-1.36,1.05-.35,2.16-.52,3.27-.49,1.34-.09,2.67.21,3.85.86.93.64,1.51,1.68,1.57,2.81l-3.85.21c-.03-.48-.27-.91-.65-1.21-.41-.28-.91-.41-1.4-.35-.38-.05-.76.05-1.07.28-.21.18-.34.44-.35.72,0,.2.1.39.28.49.44.22.91.36,1.4.42,1.32.22,2.6.58,3.85,1.07.7.28,1.3.77,1.71,1.4.33.53.51,1.15.49,1.78,0,.79-.25,1.56-.72,2.2ZM178.15,87.35H19.25l.07-47.39,13.81-14.3s2.76,1.07,5.33,1.85c10.61,3.2,27.48,2.06,38.93-3.13,15.3-6.97,21.27-13.09,21.27-13.09,0,0,5.98,6.08,21.27,13.09,11.47,5.26,28.25,6.33,38.93,3.13,2.55-.79,5.19-1.85,5.19-1.85l14.16,14.16-.07,47.53Z"/>
  <path class="cls-1" d="M85.66,98.61c-.46-.24-.97-.34-1.49-.28h-1.8v2.4h0s1.71.01,1.71.01c.21,0,.58-.07,1.07-.14.24-.06.47-.18.65-.35.17-.2.26-.45.28-.72.03-.36-.13-.71-.42-.93Z"/>
  <path class="cls-1" d="M34.91,99.14c-.55-.53-1.3-.82-2.06-.79-.74-.03-1.47.26-1.99.79-.44.84-.66,1.78-.65,2.74h0c-.1.94.15,1.88.72,2.64.51.56,1.24.85,1.99.79.77.03,1.51-.25,2.06-.79.56-.82.82-1.82.72-2.81.06-.92-.22-1.84-.79-2.57Z"/>
  <path class="cls-1" d="M71.48,98.17h-1.14v2.81-.04h1c.57.05,1.14-.08,1.64-.35.29-.25.47-.61.49-1,0-.38-.15-.73-.42-1-.45-.34-1.01-.49-1.57-.42Z"/>
  <path class="cls-1" d="M99.66,99.14c-.55-.53-1.3-.82-2.06-.79-.74-.03-1.47.26-1.99.79-.44.84-.66,1.78-.65,2.74h0c-.1.94.15,1.88.72,2.64.51.56,1.24.85,1.99.79.77.03,1.51-.25,2.06-.79.56-.82.82-1.82.72-2.81.06-.92-.22-1.84-.79-2.57Z"/>
  <path class="cls-1" d="M137.07,25.47c.79.1,1.58.18,2.37.24-.79-.07-1.58-.15-2.37-.24Z"/>
  <path class="cls-1" d="M139.52,25.72c.11,0,.22.02.33.03-.11,0-.22-.02-.33-.03Z"/>
  <path class="cls-1" d="M149.59,25.82c.15,0,.3-.02.45-.03-.15.01-.3.02-.45.03Z"/>
  <path class="cls-1" d="M150.66,25.74s.07,0,.1,0c-.03,0-.07,0-.1,0Z"/>
  <path class="cls-1" d="M120.15,21.02c.1.04.2.08.3.12-.08-.04-.16-.07-.24-.11-15.49-6.89-21.54-14.57-21.54-14.58.28.44,5.98,7.69,21.49,14.57Z"/>
  <path class="cls-1" d="M148.88,25.87s.08,0,.13,0c-.04,0-.08,0-.13,0Z"/>
  <path class="cls-1" d="M165.35,21.97h-.01c-1.9.85-3.85,1.58-5.84,2.19-.14.04-.28.08-.42.12.15-.04.31-.08.46-.12,1.98-.6,3.92-1.33,5.81-2.19Z"/>
  <polygon class="cls-1" points="181.21 38.68 181.21 38.67 165.36 21.97 181.21 38.68"/>
  <polygon class="cls-1" points="16.53 38.25 16.19 38.61 16.19 38.61 16.53 38.25"/>
  <path class="cls-1" d="M90.84,13.35c1.19-.85,2.23-1.65,3.12-2.39-.9.74-1.94,1.54-3.12,2.39Z"/>
  <path class="cls-1" d="M94.16,10.8s0,0,.01,0c0,0,0,0-.01,0Z"/>
  <path class="cls-1" d="M90.57,13.55s.08-.06.12-.09c-.04.03-.08.06-.12.09Z"/>
  <path class="cls-1" d="M65.32,24.74c-4.3.83-8.77,1.26-13.06,1.29,4.4.02,8.77-.41,13.06-1.29Z"/>
  <path class="cls-1" d="M38.52,24.43c-.21-.06-.42-.12-.63-.18-.59-.18-1.21-.39-1.82-.61.58.21,1.17.42,1.76.61.23.06.46.12.69.18Z"/>
  <path class="cls-1" d="M51.67,26.03c-2.46,0-4.85-.15-7.12-.43,2.36.31,4.74.46,7.12.43Z"/>
  <path class="cls-1" d="M19.5,105.2c-.06-.12-.12-.24-.18-.35.06.12.12.24.18.35Z"/>
  <path class="cls-1" d="M19.18,104.54s-.02-.05-.03-.07c.01.02.02.05.03.07Z"/>
  <path class="cls-1" d="M98.67,145.42h0s-.1-.02-.15-.03c.05.01.1.02.15.03Z"/>
  <path class="cls-1" d="M16.12,38.68s-.14,36.64-.14,45.19c0,5.4.07,7.54.14,9.53,0,0,0,0,0,0v-54.72h0Z"/>
  <path class="cls-1" d="M50.56,128.91c-11.59-4.21-21.13-9.96-27.18-17.72-1.51-1.86-2.8-3.86-3.87-5.97,1.07,2.12,2.36,4.13,3.87,5.98,6.05,7.76,15.58,13.51,27.18,17.72,9.82,3.56,23.86,8.42,28.32,9.82,2.6.83,4.96,1.63,7.07,2.37-2.12-.74-4.47-1.54-7.07-2.38-4.48-1.4-18.5-6.26-28.32-9.82Z"/>
  <path class="cls-1" d="M175.27,109.45c-.07.1-.15.21-.22.31.07-.1.15-.21.22-.31Z"/>
  <path class="cls-1" d="M175.85,108.61s-.06.09-.09.13c.03-.04.06-.09.09-.13Z"/>
  <path class="cls-1" d="M175.56,109.03c-.05.07-.1.15-.15.22.05-.07.1-.15.15-.22Z"/>
  <path class="cls-1" d="M174.98,109.85c-.33.45-.67.9-1.03,1.33.35-.44.7-.88,1.03-1.33Z"/>
  <path class="cls-1" d="M181.21,38.68v54.7c.07-2.06.14-4.13.14-9.53,0-8.44-.14-44.41-.14-45.17h0s0,0,0,0Z"/>
  <path class="cls-1" d="M176.12,108.19s-.01.02-.02.03c0-.01.01-.02.02-.03Z"/>
  <path class="cls-1" d="M181.21,38.68h0s0,0,0,0c0,0,0-.01,0-.01h0Z"/>
  <path class="cls-1" d="M156.05,46.32c-.01-.06-.02-.12-.02-.19,0,.06,0,.13.02.19Z"/>
  <path class="cls-1" d="M128.7,144.3c0-.05,0-.11,0-.16,0-.79-.58-1.07-1.49-1.07h-1.4v3.55h.79v-1.4l.04-.07h.35l.86,1.49h.93l-.93-1.57c.45.03.83-.31.86-.76ZM127.35,144.41h-.72v.07h0s0,0,0,0v-.84h.58c.28,0,.72,0,.72.35s-.21.42-.58.42Z"/>
  <path class="cls-1" d="M127.47,141.59c-.09,0-.17,0-.26,0-1.8-.09-3.32,1.3-3.41,3.1,0,.06,0,.11,0,.17-.03,1.77,1.38,3.24,3.15,3.28.09,0,.17,0,.26,0,1.8.09,3.32-1.3,3.41-3.1,0-.06,0-.11,0-.17.03-1.77-1.38-3.24-3.15-3.28ZM127.28,147.34s-.05,0-.07,0c-1.38-.1-2.41-1.3-2.3-2.68.09-1.23,1.07-2.21,2.3-2.3,1.33,0,2.41,1.08,2.41,2.41,0,.02,0,.05,0,.07h0c.04,1.35-1.01,2.46-2.34,2.5Z"/>
  <path class="cls-1" d="M66.15,46.3c2.52-.58,5.14-.51,7.62.21,4.98,1.07,5.19,4.98,10.17,5.91,2.54.62,5.2.54,7.7-.22l9.68-13.44s-4.48,2.34-8.18,1.28c-3.7-1.07-3.63-3.78-7.4-4.98-3.14-.85-6.36-1.32-9.61-1.4l1.92-1.92s.35-.93-.21-1.28c-.56-.35-.79,0-.79,0l-20.08,24.67h1.88l7.28-8.81ZM81.94,50.05c-.64-.26-1.2-.67-1.64-1.21-.4-.45-.78-.91-1.14-1.4l1.71-1.87c.24.47.55.9.93,1.28.62.36,1.26.67,1.92.93l-1.78,2.27ZM83.76,47.68l2.27-2.53s1,.42,1.99.79c.92.25,1.86.42,2.81.49l-2.81,2.81c-.82.12-1.65.02-2.41-.28-.79-.49-.79-.65-1.85-1.28ZM91.06,51.64c-.75.17-1.51.27-2.27.28-.74-.08-1.48-.22-2.2-.42l1.4-2.06h.03c.81.21,1.65.3,2.48.28.81,0,1.61-.16,2.34-.49l-1.78,2.41ZM90.25,39.96h0c.8.7,1.78,1.14,2.83,1.28.81,0,1.62-.07,2.41-.21l-2.21,2.63c.31.02,1.31.07,1.97.07.96-.28,1.9-.63,2.81-1.07l-2.2,2.92c-.5.41-1.1.67-1.74.76-1.09.1-2.18.15-3.27.14l2.29-2.74c-.81-.05-1.61-.14-2.4-.27-.81-.15-1.6-.41-2.34-.79l1.85-2.71ZM86.15,45.15s-.79-.49-1.78-1.21c-.56-.42-1.09-.89-1.57-1.4l2.34-2.48v-.03c.31.45.67.86,1.08,1.21.71.46,1.45.89,2.2,1.28l-2.27,2.64ZM82.02,35.75h0c.99-.23,2.02-.2,2.99.08.82.31,1.56.82,2.13,1.49l-2.06,2.71s-1.07-1.78-2.27-2.06c-1.04-.1-2.09.04-3.06.42l2.27-2.64ZM77.39,38.01c.75.25,1.55.37,2.34.35v.04s-1.49,2.2-1.49,2.2c-.64.08-1.29.06-1.92-.07-.93-.21-2.57-.72-2.57-.72l1.78-2.67c.57.37,1.2.66,1.85.86ZM76.04,34.84v.07c-1,1.75-2.09,3.43-3.28,5.05-1.33,1.41-2.81,2.67-4.41,3.78l7.69-8.9ZM71.48,42.32l4.77,1.21-.03.03s.01,0,.02,0l2.03-2.87c.94-.15,1.9-.08,2.81.21.67.45,1.21,1.06,1.57,1.78l-1.85,2.81c-.37-.78-1-1.41-1.78-1.78-.9-.28-1.85-.33-2.77-.15l-.03.05v-.03l-.81.75-.86,1.57c-1.03-.29-2.07-.5-3.13-.65-1.11-.11-2.23-.08-3.34.07l3.41-2.99Z"/>
  <path class="cls-1" d="M76.21,43.6l.03-.05s-.01,0-.02,0h-.01v.04Z"/>
  <path class="cls-1" d="M76.21,43.56h.01s0-.01-.01-.01h0Z"/>
  <path class="cls-1" d="M93.19,43.67l-.05.06s.05,0,.08,0l.07-.08c-.06,0-.09,0-.09,0h0Z"/>
  <path class="cls-1" d="M35.01,50.43s-.03.03-.03.03v-1.07h0v-.86h0v-.76h0v-.86h0v-.77c1.72-.93,3.67-1.35,5.61-1.21,1.44.11,2.87.32,4.28.64l.21-.5-.49-.42h.56l.21-.51.14.51h.65l-.49.42.14.51-.44-.35-.49.35c.64.14,1.27.31,1.9.49l.21-10.34c-1.77-1.16-3.84-1.77-5.96-1.76-2-.1-3.99.15-5.91.72.02-.08.02-.16.01-.23-.05-.35-.37-.6-.73-.55h.06s-.35.36-.35.36l-1.08,49.52,1.4-1.69.57-31.69ZM45.73,43.09l.21.58-.51-.35-.49.35.21-.58-.49-.35h.56l.21-.49.22.49h.56l-.49.35ZM45.87,41.39l-.51-.29-.49.29.21-.58-.42-.28h.49l.21-.51.21.51h.58l-.49.28.21.58ZM45.73,38.82l.21.51-.51-.29-.49.29.21-.51-.49-.35h.56l.21-.51.22.51h.56l-.49.35ZM45.16,36.41l.14-.51.21.51h.65l-.49.28.14.58-.51-.29-.49.29.21-.58-.42-.28h.56ZM42.1,42.25l-.49-.36-.51.36.21-.58-.49-.35h.63l.15-.44.14.44h.63l-.49.35.21.58ZM42.03,40.03l-.51-.35-.42.35.14-.56-.49-.36h.63l.14-.49.15.49h.63l-.49.36.21.56ZM44.16,44.66l-.56-.28-.51.28.21-.51-.42-.35h.56l.15-.49.21.49h.63l-.49.35.21.51ZM44.16,40.54l-.49-.35-.51.35.21-.58-.49-.35h.63l.15-.51.14.51h.63l-.42.35.14.58ZM44.09,42.18l.07.56-.42-.28-.51.28.21-.56-.49-.29h.65l.14-.49.14.49h.63l-.42.29ZM44.09,37.97l.07.51-.42-.36-.51.36.21-.51-.49-.42h.65l.14-.51.14.51h.63l-.42.42ZM43.45,35.48l.15-.51.14.51h.63l-.42.35.14.58-.49-.36-.51.36.21-.58-.49-.35h.63ZM41.89,37.41l.21.56-.49-.35-.51.35.21-.56-.49-.36h.63l.15-.49.14.49h.63l-.49.36ZM41.24,34.98l.21-.49.15.49h.63l-.49.36.21.56-.51-.42-.42.42.14-.56-.49-.36h.56ZM41.31,43.67l.21-.51.15.51h.56l-.42.35.21.51-.51-.36-.49.36.14-.51-.49-.35h.63ZM36.4,43.09l-.49-.35-.51.35.14-.56-.42-.35h.58l.21-.51.14.51h.65l-.51.35.21.56ZM36.33,40.82l-.49-.28-.51.28.15-.49-.44-.36h.58l.21-.49.14.49h.65l-.51.36.21.49ZM38.11,44.87l-.49-.28-.51.28.21-.49-.42-.36h.56l.15-.49.21.49h.63l-.49.36.14.49ZM38.11,40.4l-.42-.36-.51.36.21-.58-.49-.35h.56l.22-.44.21.44h.56l-.49.35.14.58ZM38.04,42.09l.14.51-.42-.35-.51.35.21-.51-.49-.42h.58l.21-.49.21.49h.58l-.51.42ZM40.04,44.52l-.49-.36-.44.36.21-.51-.49-.35h.56l.15-.51.21.51h.63l-.49.35.14.51ZM40.11,40.03l-.51-.35-.49.35.21-.56-.49-.36h.63l.14-.49.22.49h.56l-.42.36.14.56ZM40.04,41.67l.14.58-.49-.36-.51.36.21-.58-.49-.35h.65l.14-.44.21.44h.56l-.42.35ZM40.04,37.41l.14.56-.49-.35-.51.35.21-.56-.49-.36h.65l.14-.49.21.49h.56l-.42.36ZM39.39,34.98l.15-.49.21.49h.56l-.42.36.14.56-.49-.42-.51.42.21-.56-.49-.36h.63ZM38.04,37.76l.14.58-.42-.36-.51.36.21-.58-.49-.28h.58l.21-.51.21.51h.58l-.51.28ZM37.47,35.34l.15-.51.14.51h.63l-.42.35.07.49-.42-.28-.51.36.21-.58-.49-.35h.63ZM36.19,38.26l.21.49-.49-.28-.51.35.14-.56-.42-.36h.58l.21-.49.14.49h.65l-.51.36ZM35.54,35.84l.22-.49.21.49h.56l-.49.29.21.56-.49-.28-.51.28.14-.56-.42-.29h.56ZM35.63,44.52l.21-.51.14.51h.56l-.42.28.14.58-.42-.29-.51.29.15-.58-.51-.28h.65Z"/>
  <polygon class="cls-1" points="33.03 84 33.08 83.94 33.03 83.94 33.03 84"/>
  <path class="cls-1" d="M163.73,54.63c-2.33-.02-4.65.39-6.83,1.21-2.07.76-4.03,1.79-5.84,3.06-1.67,1.24-3.19,2.65-4.56,4.21-1.85,2.27-2.78,4.2-2.57,5.61.21,1.42,1.57,2.62,4.06,3.48,1.56.51,2.34,1.07,2.41,1.64.02.76-.29,1.49-.86,1.99-.71.87-1.58,1.6-2.57,2.13-.98.55-2.08.84-3.2.86-1.43,0-2.06-.58-1.85-1.78.36-1.14.94-2.21,1.71-3.13l-7.4.49.03.07c-2.27,2.92-3.41,5.44-3.34,7.33.07,1.88,2.06,2.81,6.12,2.81,2.34-.02,4.65-.46,6.83-1.28,2.31-.85,4.49-2.02,6.47-3.48,2.02-1.48,3.86-3.2,5.47-5.12,1.15-1.26,2.04-2.74,2.64-4.34.46-1.06.3-2.29-.42-3.2-1.37-1.25-3.04-2.13-4.84-2.57-1-.28-1.57-.65-1.64-1.07.02-.45.19-.87.49-1.21.56-.66,1.24-1.21,1.99-1.64.76-.44,1.61-.69,2.48-.72,1.07,0,1.64.28,1.78.93-.12,1.03-.54,2.01-1.21,2.81l7.4-.49c2.22-2.98,3.06-5.19,2.57-6.54-.49-1.35-2.27-2.06-5.33-2.06Z"/>
  <path class="cls-1" d="M135.52,55.12l-32.94,28.82h7.54l5.12-4.77h8.42l-2.81,4.77h7.76l14.96-28.82h-8.06ZM127.62,72.34l-.35.65h-5.26l11.23-10.38-5.61,9.74Z"/>
  <polygon class="cls-1" points="64.3 55.12 58.87 55.12 58.39 55.69 56.52 55.69 56.51 55.71 56.47 55.69 56.52 55.69 56.99 55.12 56.9 55.12 34.44 82.12 34.44 82.29 33.08 83.94 51.85 83.94 57.75 76.83 46.22 76.83 64.3 55.12"/>
  <path class="cls-1" d="M99.66,55.12h-7.33l-14.51,17.63c-1.17,1.48-2.59,2.74-4.21,3.7-1.21.79-2.61,1.23-4.06,1.28-1.21,0-1.92-.42-1.85-1.28.24-1.42.91-2.72,1.92-3.75l14.58-17.58h-7.4l-14.23,17.12c-1.22,1.54-2.34,3.16-3.34,4.86-.65,1.01-1.06,2.15-1.21,3.34-.19.83-.04,1.7.42,2.41.64.7,1.53,1.13,2.48,1.21,1.18.16,2.37.25,3.56.28,2.04.02,4.06-.31,5.98-1,1.72-.58,3.37-1.37,4.91-2.34,1.93-1.11,3.75-2.42,5.4-3.92,1.71-1.47,3.28-3.09,4.7-4.84l14.16-17.12Z"/>
  <path class="cls-1" d="M111.69,72.7l-7.26.21h-.07c-1.33,1.32-2.83,2.45-4.48,3.34-1.29.86-2.79,1.34-4.34,1.4-1.5,0-2.15-.65-1.92-1.78.22-1.14,1.64-3.34,4.21-6.54,1.7-2.11,3.63-4.03,5.77-5.7,1.67-1.4,3.74-2.24,5.91-2.41.59-.06,1.17.15,1.57.58.34.45.42,1.05.21,1.57-.5,1.16-1.07,2.28-1.73,3.35l7.26.21c3.06-3.48,4.41-8.39,3.34-10.17-.79-1.35-2.27-2.27-5.26-2.27-4.31.14-8.5,1.47-12.1,3.85-4.68,2.95-8.82,6.68-12.24,11.03-2.37,2.59-4.27,5.58-5.61,8.83-.72,2.36-.65,3.93.28,4.84s2.62,1.4,5.26,1.4c2.12.02,4.22-.37,6.19-1.14,2.17-.91,4.24-2.03,6.19-3.34,3.11-2.2,6.06-4.62,8.81-7.26Z"/>
  <path class="cls-1" d="M46.94,46.78c-2.28-.71-4.63-1.14-7.02-1.28-1.67.06-3.32.44-4.84,1.14v.24c2.13-.86,4.44-1.22,6.74-1.03,4.27.22,6.97,2.78,10.38,2.71,2.23-.08,4.38-.88,6.12-2.27l-.07,1.14c-1.86,1.15-4,1.77-6.19,1.78v-.03c-3.34,0-6.68-2.6-10.24-2.81-2.33-.11-4.65.36-6.76,1.37v.77c2.13-.87,4.45-1.23,6.76-1.04,4.27.24,6.97,2.88,10.38,2.81,2.23-.08,4.38-.88,6.12-2.27l-.07,1.21c-1.78,1.31-3.98,1.94-6.19,1.78h0c-3.34-.08-6.68-2.65-10.24-3-2.34-.11-4.67.37-6.79,1.38l-.02,1.06c.23-.2,1.87-1.51,5.81-1.38,4.27.14,5.26,2.06,8.9,2.71,3.26.72,6.66-.15,9.18-2.34l-.07-15.16c-1.86,1.73-4.3,2.69-6.83,2.71-3.77-.21-4.98-1.49-4.98-1.49h-.01v.25s0,0,.01.01l-.07,11.03ZM47.36,36.5h0s0,0,0,0c0,0,1.36,1.54,4.84,1.4,2.23-.08,4.38-.88,6.12-2.27v1.14c-1.89,1.14-4.05,1.76-6.26,1.78-1.62.1-3.24-.22-4.7-.93v-1.12ZM47.36,38.33v-.04s1.36,1.47,4.84,1.4c2.23-.08,4.38-.88,6.12-2.27v1.14c-1.89,1.14-4.05,1.75-6.26,1.77-1.61.09-3.22-.21-4.7-.86v-1.14ZM47.36,40.05h0s0,0,0,0c0,0,1.36,1.54,4.84,1.4,2.23-.08,4.38-.88,6.12-2.27l.07,1.07c-1.92,1.14-4.1,1.78-6.33,1.85-1.62.1-3.24-.22-4.7-.93v-1.12ZM47.36,41.83h0s0,0,0,0c0,0,1.36,1.47,4.84,1.4,2.23-.08,4.38-.88,6.12-2.27l.07,1.07c-1.9,1.18-4.09,1.82-6.33,1.85-1.62.1-3.24-.22-4.7-.93v-1.12ZM47.36,43.67v-.03c1.37,1.07,3.11,1.57,4.84,1.4,2.23-.08,4.38-.88,6.12-2.27v1.11c-1.89,1.14-4.05,1.76-6.26,1.78-1.61.09-3.22-.21-4.7-.86v-1.14ZM47.36,45.39h0s0,0,0,0c0,0,1.36,1.47,4.84,1.4,2.23-.08,4.38-.88,6.12-2.27v1.14c-1.89,1.14-4.05,1.76-6.26,1.78-1.62.1-3.24-.22-4.7-.93v-1.12Z"/>
  <polygon class="cls-1" points="32.92 83.94 33.03 83.94 33.04 83.8 32.92 83.94"/>
  <polygon class="cls-1" points="56.51 55.71 56.52 55.69 56.47 55.69 56.51 55.71"/>
  <polygon class="cls-1" points="58.39 55.69 58.87 55.12 56.99 55.12 56.52 55.69 58.39 55.69"/>
  <path class="cls-1" d="M34.98,49.39v1.07s.01-.01.03-.03l.02-1.06s-.03.01-.05.02Z"/>
  <polygon class="cls-1" points="34.44 82.12 33.04 83.8 33.03 83.94 33.08 83.94 34.44 82.29 34.44 82.12"/>
  <path class="cls-1" d="M35.06,47.74s-.05.02-.08.04v.76s.04-.02.06-.03v-.77Z"/>
  <path class="cls-1" d="M44.88,45.59h0s0,0,0,0c-1.41-.32-2.84-.53-4.28-.64-1.95-.15-3.9.27-5.61,1.21v.77s.06-.02.09-.04v-.24c1.53-.69,3.17-1.08,4.85-1.14,2.38.14,4.74.57,7.02,1.28l.07-11.03s-.01,0-.02-.01l-.21,10.34c-.63-.19-1.26-.35-1.9-.49Z"/>
  <polygon class="cls-1" points="44.88 45.59 44.88 45.58 44.88 45.59 44.88 45.59"/>
  <rect class="cls-1" x="34.98" y="46.92" width="0" height=".86"/>
  <path class="cls-1" d="M35.08,46.88s-.06.02-.09.04v.86s.05-.02.08-.04l.02-.86Z"/>
  <rect class="cls-1" x="34.98" y="48.54" width="0" height=".86"/>
  <path class="cls-1" d="M35.05,48.51s-.04.02-.06.03v.86s.03-.01.05-.02l.02-.86Z"/>
  <polygon class="cls-1" points="172.34 48.27 169.54 48.27 169.54 47.41 171.81 47.41 171.81 46.14 169.54 46.14 169.54 45.35 172.24 45.35 172.24 43.95 167.68 43.95 167.68 49.64 167.64 49.67 172.34 49.67 172.34 48.27"/>
  <path class="cls-1" d="M156.05,46.32c.01.05.03.1.05.15v-.06s-.03-.06-.05-.09Z"/>
  <polygon class="cls-1" points="114.1 48.27 111.3 48.27 111.3 47.41 113.57 47.41 113.57 46.14 111.3 46.14 111.3 45.35 114.1 45.35 114.1 43.95 109.49 43.95 109.49 49.64 109.4 49.67 114.1 49.67 114.1 48.27"/>
  <polygon class="cls-1" points="105.15 37.97 106.86 37.97 106.86 40.19 108.71 40.19 108.71 34.49 106.86 34.49 106.86 36.41 105.15 36.41 105.15 34.49 103.3 34.49 103.3 40.17 105.15 40.17 105.15 37.97"/>
  <rect class="cls-1" x="113.25" y="37.34" width="1.99" height="1.49"/>
  <path class="cls-1" d="M163.85,43.82c-.79-.07-1.58.22-2.13.79-1.04,1.28-1.04,3.12,0,4.41.57.54,1.34.82,2.13.79.7.03,1.38-.2,1.92-.65.51-.42.8-1.05.79-1.71h-1.71c-.06.29-.19.56-.36.79-.18.15-.41.23-.65.21-.34.01-.66-.15-.86-.42-.23-.33-.33-.74-.28-1.14-.04-.42.06-.85.28-1.21.15-.28.46-.45.79-.42.26-.03.52.04.72.21.18.17.28.4.28.65h1.8c-.02-.65-.3-1.27-.79-1.71-.55-.41-1.23-.61-1.92-.58Z"/>
  <path class="cls-1" d="M105.18,47.85h1.07c.59.06,1.18-.12,1.64-.49.39-.4.59-.93.58-1.49,0-.32-.07-.64-.21-.93-.13-.26-.33-.49-.58-.65-.24-.14-.51-.23-.79-.28-.4-.07-.8-.09-1.21-.07h-2.39v5.61h1.88v-1.71ZM105.11,45.38h.58c.27-.02.54.03.79.14.04.03.08.07.11.11.18.24.13.57-.11.75-.25.1-.52.15-.79.14h-.53l-.04-1.14Z"/>
  <path class="cls-1" d="M117.16,47.64h.79c.21-.02.43.06.58.21.1.2.15.42.14.65v.79c.03.12.05.23.07.35h1.85v-.21c-.07,0-.14-.14-.14-.35v-.79c.02-.3-.06-.6-.21-.86-.18-.22-.43-.37-.72-.42.29-.11.54-.31.72-.58.15-.26.23-.56.21-.86.05-.5-.17-.98-.58-1.28-.58-.27-1.22-.39-1.85-.35h-2.71v5.7h1.85v-2.01ZM117.16,45.25h.79c.22,0,.44.04.65.14.1.12.15.27.14.42,0,.21,0,.35-.14.42-.17.11-.37.16-.58.14h-.86v-1.12Z"/>
  <polygon class="cls-1" points="111.97 34.49 110.12 34.49 110.12 40.17 111.97 40.19 111.97 34.49"/>
  <path class="cls-1" d="M141.96,45.91c.07.21.11.43.14.65,0,.14.07.28.07.42l.67,2.81h1.28l.72-2.81v-.11c.07-.35.14-.72.21-1v3.77h1.64v-5.68h-2.2l-.79,2.81c-.03.12-.05.23-.07.35,0,.17-.02.33-.07.49-.07-.18-.12-.38-.14-.58-.05-.09-.07-.18-.07-.28l-.79-2.81h-2.2v5.7h1.6v-3.73Z"/>
  <path class="cls-1" d="M149.62,48.86h1.78l.21.79h1.78l-1.94-5.7h-1.85l-1.99,5.7h1.8l.21-.79ZM150.59,45.66l.51,1.99h-1.14l.63-1.99Z"/>
  <path class="cls-1" d="M156.09,46.48c-.02-.05-.03-.1-.05-.15-.02-.06-.03-.12-.02-.19,0,.06.01.13.02.19.01.03.03.06.05.09v.06c.02.05.04.1.07.15.07.14.07.28.14.35l1.59,2.6h1.71v-5.7h-1.71v3.48c0-.17-.05-.34-.14-.49-.07-.07-.07-.21-.14-.28l-1.59-2.64h-1.71v5.53h1.78v-3Z"/>
  <path class="cls-1" d="M135.81,47.64h.79c.21-.02.43.06.58.21.1.2.15.42.14.65v.79c.03.12.05.23.07.35h1.85v-.21c-.07,0-.14-.14-.14-.35v-.79c.02-.3-.06-.6-.21-.86-.18-.22-.43-.37-.72-.42.29-.11.54-.31.72-.58.15-.26.23-.56.21-.86.05-.5-.17-.98-.58-1.28-.58-.27-1.22-.39-1.85-.35h-2.71v5.7h1.85v-2.01ZM135.7,45.25h.79c.22,0,.44.04.65.14.1.12.15.27.14.42,0,.21,0,.35-.14.42-.17.11-.37.16-.58.14h-.81l-.04-1.12Z"/>
  <polygon class="cls-1" points="121.72 49.64 121.72 49.6 121.67 49.6 121.72 49.64"/>
  <polygon class="cls-1" points="123.52 47.61 125.51 47.61 125.51 46.21 123.52 46.21 123.52 45.35 125.93 45.35 125.93 43.95 121.72 43.95 121.72 49.6 123.52 49.6 123.52 47.61"/>
  <path class="cls-1" d="M127.63,49c.57.54,1.34.82,2.13.79.79.05,1.56-.23,2.13-.79,1.04-1.28,1.04-3.12,0-4.41-.57-.54-1.34-.82-2.13-.79-.79-.05-1.56.23-2.13.79-.53.61-.81,1.4-.79,2.2-.03.81.26,1.59.79,2.2ZM128.98,45.59c.23-.23.53-.36.86-.35.44,0,.72.07.86.35.23.36.32.78.28,1.21,0,.42-.09.83-.28,1.21-.23.23-.53.36-.86.35-.33.05-.66-.08-.86-.35-.23-.36-.32-.78-.28-1.21-.04-.42.06-.85.28-1.21Z"/>
</svg>