<?xml version="1.0" encoding="UTF-8"?>
<svg id="Layer_1" data-name="Layer 1" xmlns="http://www.w3.org/2000/svg" viewBox="0 0 197.33 148.57">
  <defs>
    <style>
      .cls-1 {
        fill: #fff;
      }
    </style>
  </defs>
  <path class="cls-1" d="M37.97,132.06c-2.44.63-3.39.86-4.43.86-1.9,0-3.44-.46-4.46-1.32-.17-.14-.31-.31-.42-.51-.37-.66-.23-1.56.34-2.19.06-.06.12-.12.14-.16,1.93-.58,4.27-.99,6.57-1.17h.07s.46-2.11.46-2.11h-.13c-1.55.2-2.99.45-4.23.75-1.93-.36-3.35-1.93-3.56-3.87.75-1.45,2.34-2.46,3.86-2.46.78,0,1.49.18,2.83.72l.08.03.43-.79-.08-.05c-.49-.32-.88-.6-1.25-.88-.49-.37-.95-.71-1.67-1.1-2.73,0-5.66,2.11-5.66,5.25,0,1.55.94,3.16,2.35,4.07-.14.07-.59.34-.59.34-.29.18-.55.49-.79.93-.85,1.57-.76,3.44.25,4.74.61.79,1.44,1.34,2.4,1.58.9.23,1.92.34,3.02.34h.04c.86-.38,1.59-.72,2.3-1.05.79-.36,1.55-.71,2.44-1.09l.08-.04-.32-.83-.08.02ZM84.59,117.55c-2.78,0-4.55,4.05-4.55,6.17,0,1.73,1.92,2.96,6.26,3.97h-44c-.06-5.03-.18-7.75-.42-12.66l-.1-2.04h-2.17v.1c.62,6.88.86,11.28,1.06,16.57v.09h47.7v-.08c.1-.45.38-3.44.38-4.18,0-4.98-1.56-7.95-4.17-7.95M87.13,126.02c-2.65-.54-3.94-1.09-5.63-2.33.19-2.22,1.52-4.18,2.83-4.18,1.65,0,2.8,2.6,2.8,6.33v.17ZM86.16,114.59l-1.66-1.59-1.76,1.82,1.8,1.63,1.62-1.86ZM157.3,116.11l-1.66-1.59-1.76,1.83,1.8,1.63,1.62-1.86ZM136.62,116.14l-1.66-1.62-1.76,1.82,1.8,1.63,1.62-1.83ZM132.84,116.11l-1.66-1.59-1.76,1.82,1.8,1.63,1.62-1.86ZM143.38,119.38l-2.02,1.15.04.08c1.4,2.73,2.25,4.95,2.76,7.15-.77,2.46-2.42,4.41-4.31,5.1-.85.38-2.18.62-3.56.66h-.09s-.04.88-.04.88l4.7.63c2.9-2.2,4.55-5.07,4.55-7.87,0-1.74-.62-4.11-2.01-7.67l-.04-.1ZM151.15,129.75c-.15-6.91-.28-10.08-.57-16.67v-.09h-2.17v.1c.5,6.41.7,10.16.98,15.36l.07,1.29h1.69ZM157.18,119.38l-2.02,1.15.04.08c1.4,2.73,2.25,4.95,2.76,7.15-.77,2.46-2.42,4.41-4.31,5.1-.85.38-2.17.62-3.56.66h-.09s-.04.88-.04.88l4.7.63c2.9-2.2,4.55-5.07,4.55-7.87,0-1.74-.62-4.11-2.01-7.67l-.04-.1ZM166.3,119.04c-2.61,0-4.58,3.69-4.58,6.07,0,2.05,2.24,3.4,6.83,4.15-.73,1.67-2.04,3.03-3.53,3.66-.82.36-2.08.57-3.75.6h-.09s-.08.88-.08.88l4.71.63c3-2.23,4.65-5.2,4.65-8.38,0-4.62-1.64-7.6-4.17-7.6M163.18,125.1c.25-2.17,1.59-4.08,2.86-4.08,1.59,0,2.69,2.38,2.95,6.38-2.95-.43-4.75-1.16-5.82-2.3M112.45,113.09v-.09h-2.17v.1c.46,5.89.67,9.46.94,14.59h-9.69c-.92,0-1.59-.51-2.18-1.64-.86-1.62-1.42-4.02-1.74-7.53v-.13s-1.88.81-1.88.81v.07c.51,3.53,1.38,6.45,2.44,8.21.06.11.13.2.2.3-1.09.19-2.14.23-3.36.23-1.47,0-2.76-.14-4.18-.44l-.1-.02-.35,1.97.09.02c1.42.35,3,.55,4.35.55s2.84-.04,4.19-.32h.06s.23-.9.23-.9c.66.58,1.37.88,2.08.89l.07.02h11.59s0-.1,0-.1c-.15-6.97-.28-9.94-.57-16.57M138.24,127.47c0-1.24-2.05-5.56-3.73-8.15-.42.21-1.14.75-1.59,1.1-2.36,1.9-4,4.41-4,6.13,0,1.95,2.04,3.53,4.55,3.53,1.54,0,3.03-.39,4.13-1.11l.64-1.5ZM133.63,128.07c-1.33,0-2.54-.58-3.22-1.47.62-1.87,1.89-3.6,3.48-4.76,1.12,1.76,1.88,3.36,2.61,5.49-.89.55-2.06.74-2.88.74M118.49,129.75c-.15-6.91-.28-10.08-.57-16.67v-.09h-2.17v.1c.5,6.41.7,10.16.98,15.36l.07,1.29h1.69Z"/>
  <polygon class="cls-1" points="31.97 143.54 28.64 138.85 26.87 138.85 27.47 139.7 27.47 148.38 28.68 148.38 28.68 141.38 31.73 145.66 34.92 141.4 34.92 148.38 36.36 148.38 36.36 138.85 35.55 138.85 31.97 143.54"/>
  <polygon class="cls-1" points="84.87 143 82.7 138.93 82.66 138.85 81.06 138.85 83.96 144.36 83.96 148.38 85.41 148.38 85.41 144.46 88.52 138.85 87.17 138.85 84.87 143"/>
  <path class="cls-1" d="M78.32,143.76c.22-.15.43-.34.62-.56.19-.22.36-.48.49-.78.13-.3.2-.64.2-1.01,0-.45-.09-.85-.26-1.19-.17-.34-.41-.62-.71-.84-.3-.22-.66-.39-1.07-.51-.41-.11-.86-.17-1.34-.17-.59,0-1.09.03-1.48.09-.35.05-.7.11-1.05.19l-.11.02v9.37h1.44v-3.86h1.38s2.76,3.86,2.76,3.86h1.8l-3.26-4.3c.18-.07.38-.18.59-.32M78.07,142.24c-.08.2-.19.39-.32.55-.13.16-.26.3-.4.41-.11.09-.24.18-.43.27h-1.87v-3.68h.81c.79,0,1.38.14,1.76.41.38.27.57.72.57,1.34,0,.25-.04.49-.12.69"/>
  <rect class="cls-1" x="39.38" y="138.85" width="1.44" height="9.52"/>
  <rect class="cls-1" x="54.25" y="138.85" width="1.44" height="9.52"/>
  <polygon class="cls-1" points="50.02 145.39 44.8 138.85 42.99 138.85 43.95 140.05 43.95 148.38 45.15 148.38 45.15 141.57 50.57 148.38 51.24 148.38 51.24 138.85 50.02 138.85 50.02 145.39"/>
  <polygon class="cls-1" points="64.91 140.03 67.74 140.03 67.74 148.38 69.18 148.38 69.18 140.03 71.77 140.03 72.22 138.85 64.91 138.85 64.91 140.03"/>
  <path class="cls-1" d="M63.18,144.37h0c-.17-.19-.35-.37-.55-.51-.2-.15-.39-.28-.56-.39l-.87-.55c-.19-.11-.37-.21-.53-.32-.17-.11-.32-.23-.45-.35-.13-.13-.24-.27-.32-.41-.08-.15-.12-.32-.12-.51,0-.23.05-.44.15-.62s.23-.33.4-.45c.16-.12.35-.21.57-.27.21-.06.44-.09.67-.09.44,0,.84.09,1.17.27.24.13.45.28.64.44l.24.21v-1.5l-.07-.04c-.08-.05-.18-.1-.29-.15-.15-.07-.32-.13-.5-.19-.18-.06-.37-.11-.59-.15-.69-.13-1.35-.05-1.9.14-.39.13-.73.31-1.01.56-.28.24-.5.54-.65.88-.15.34-.23.72-.23,1.14,0,.47.14.9.42,1.3.28.4.73.8,1.35,1.18l1.24.75c.14.08.28.19.42.31.14.12.25.26.35.42.1.16.15.34.15.54s-.05.41-.14.58c-.09.17-.22.32-.38.44-.16.12-.34.22-.54.29-.2.07-.41.1-.63.1-.51,0-.96-.09-1.34-.26-.29-.13-.57-.29-.83-.48l-.26-.18.21,1.65.08.03c.31.12.65.21,1.01.29.38.08.8.13,1.23.13s.84-.07,1.22-.19c.38-.13.7-.31.97-.55.27-.24.49-.53.64-.86.15-.34.23-.71.23-1.12,0-.3-.06-.57-.16-.82-.11-.24-.25-.47-.42-.66"/>
  <path class="cls-1" d="M161.94,144.37c-.17-.19-.35-.36-.55-.51-.19-.14-.38-.28-.56-.38l-.87-.55c-.19-.11-.36-.22-.53-.33-.16-.11-.31-.22-.45-.35-.13-.13-.24-.27-.32-.41-.08-.15-.12-.32-.12-.51,0-.23.05-.44.15-.62.1-.18.23-.33.4-.45.17-.12.36-.21.57-.27.21-.06.44-.09.67-.09.44,0,.83.09,1.17.27.24.13.46.28.65.44l.24.21v-1.5l-.07-.04c-.08-.05-.18-.1-.29-.15-.15-.07-.32-.14-.51-.19-.18-.06-.38-.11-.59-.15-.7-.13-1.35-.05-1.9.13-.39.13-.73.32-1.01.56-.28.24-.5.54-.65.88-.15.34-.23.72-.23,1.14,0,.46.14.9.42,1.3.28.4.73.79,1.35,1.18l1.24.75c.14.08.28.19.42.31.14.12.26.26.35.42.1.16.15.34.15.54s-.05.41-.14.58c-.09.17-.22.32-.38.44-.16.12-.34.22-.54.29-.2.07-.41.1-.63.1-.51,0-.96-.09-1.34-.26-.29-.13-.57-.29-.83-.48l-.26-.19.21,1.65.08.03c.31.12.65.21,1.01.29.38.08.8.13,1.23.13s.84-.07,1.22-.19c.38-.13.7-.31.97-.55.27-.24.49-.53.64-.86.15-.34.23-.71.23-1.12,0-.3-.06-.57-.16-.82-.11-.25-.25-.47-.42-.66"/>
  <polygon class="cls-1" points="140.75 144.1 143.42 144.1 143.86 142.98 140.75 142.98 140.75 139.97 144.04 139.97 144.5 138.85 139.3 138.85 139.3 148.38 144.16 148.38 144.76 147.22 140.75 147.22 140.75 144.1"/>
  <polygon class="cls-1" points="132.18 148.38 133.63 148.38 133.63 144.31 136.37 144.31 136.83 143.19 133.63 143.19 133.63 139.97 137.01 139.97 137.46 138.85 132.18 138.85 132.18 148.38"/>
  <path class="cls-1" d="M100.58,140.08c-.41-.44-.91-.78-1.49-1.02-.57-.24-1.2-.36-1.88-.36s-1.31.12-1.88.36c-.57.24-1.07.58-1.48,1.02-.41.44-.74.97-.97,1.56-.23.6-.35,1.27-.35,1.99s.12,1.4.35,2c.23.6.56,1.12.97,1.56.41.43.91.77,1.48,1.02.57.24,1.2.36,1.88.36s1.31-.12,1.88-.36c.57-.24,1.07-.59,1.48-1.02.41-.44.74-.96.97-1.57.23-.6.35-1.27.35-1.99s-.12-1.39-.35-1.99c-.23-.6-.56-1.13-.97-1.56M100.37,143.63c0,.55-.07,1.06-.21,1.52-.14.46-.35.85-.61,1.18-.26.33-.6.59-.99.77-.39.19-.84.28-1.34.28s-.95-.09-1.34-.28c-.39-.19-.73-.45-1-.77-.27-.33-.48-.72-.61-1.18-.14-.46-.21-.97-.21-1.52s.07-1.04.21-1.51c.14-.46.35-.86.61-1.19.27-.33.6-.59.99-.77.39-.19.84-.28,1.34-.28s.95.09,1.34.28c.39.19.72.45.99.77.27.33.47.73.61,1.19.14.46.21.97.21,1.51"/>
  <polygon class="cls-1" points="166.44 147.22 166.44 144.1 169.12 144.1 169.56 142.98 166.44 142.98 166.44 139.97 169.74 139.97 170.2 138.85 165 138.85 165 148.38 169.86 148.38 170.46 147.22 166.44 147.22"/>
  <polygon class="cls-1" points="153.22 145.39 147.99 138.85 146.19 138.85 147.15 140.05 147.15 148.38 148.35 148.38 148.35 141.57 153.77 148.38 154.44 148.38 154.44 138.85 153.22 138.85 153.22 145.39"/>
  <polygon class="cls-1" points="125.91 144.1 128.59 144.1 129.02 142.98 125.91 142.98 125.91 139.97 129.21 139.97 129.66 138.85 124.47 138.85 124.47 148.38 129.33 148.38 129.93 147.22 125.91 147.22 125.91 144.1"/>
  <polygon class="cls-1" points="104.02 148.38 105.47 148.38 105.47 144.31 108.22 144.31 108.67 143.19 105.47 143.19 105.47 139.97 108.85 139.97 109.31 138.85 104.02 138.85 104.02 148.38"/>
  <path class="cls-1" d="M121.05,140.05c-.42-.43-.94-.76-1.54-.99-.61-.23-1.3-.35-2.05-.35-.61,0-1.15.03-1.6.09-.41.05-.8.12-1.15.19l-.11.02v9.18l.11.03c.33.09.72.17,1.16.24.48.08,1.02.12,1.59.12.74,0,1.42-.12,2.02-.36.61-.24,1.13-.58,1.55-1.01.42-.44.76-.96.99-1.55.23-.59.35-1.26.35-2s-.11-1.45-.33-2.05c-.22-.61-.55-1.13-.96-1.56M120.81,143.68c0,.48-.08.95-.23,1.4-.15.45-.37.86-.65,1.21-.28.35-.64.64-1.05.85-.62.31-1.42.39-2.24.24-.26-.05-.47-.09-.62-.13v-7.46h1.07c.6,0,1.13.1,1.59.29.46.19.85.46,1.16.8.31.34.55.75.72,1.23.17.48.25,1.01.25,1.57"/>
  <g>
    <path class="cls-1" d="M100.14,4.19h-2.95c0-.66.43-1.22,1.03-1.41.14-.05.29-.07.45-.07.81,0,1.48.66,1.48,1.48"/>
    <path class="cls-1" d="M100.14,4.19c0,.81-.66,1.48-1.48,1.48-.05,0-.1,0-.15,0-.47-.05-.88-.32-1.12-.71-.13-.22-.21-.48-.21-.76h2.95Z"/>
    <path class="cls-1" d="M98.67,0h0c-.3.84-1.07,2.16-1.07,2.16h2.14s-.77-1.32-1.07-2.16"/>
    <path class="cls-1" d="M98.67,2.16h-1.07l.62.62c.14-.04.29-.07.45-.07s.31.02.45.07l.62-.62h-1.07Z"/>
    <path class="cls-1" d="M83.11,31.36c-.14.09-.28.18-.42.28l.3.38c.14-.1.28-.19.43-.28,3.76-2.43,8.13-3.99,12.82-4.39,0-.16.01-.32.02-.49-4.82.4-9.3,2-13.15,4.5"/>
    <path class="cls-1" d="M78.37,29.37c-2.52,1.97-4.75,4.3-6.61,6.91l-.43-.24c1.89-2.67,4.17-5.05,6.74-7.06l.3.38Z"/>
    <path class="cls-1" d="M98.67,93.25c-.49,0-.98,0-1.46-.03.06.07.13.14.19.2l.29.3c.33,0,.66.01.99.01s.66,0,.99-.01l.29-.3c.06-.07.13-.13.19-.2-.49.02-.98.03-1.47.03"/>
    <path class="cls-1" d="M93.96,73.18c1.02.28,1.94.44,2.97.54v.49c-.98-.09-1.84-.23-2.81-.48l-.17-.55Z"/>
    <path class="cls-1" d="M61.4,46.31c.13.05.28.1.46.16h0c3.42-14.11,14.76-25.15,29.02-28.14-.06-.14-.14-.29-.23-.45-14.38,3.07-25.79,14.21-29.26,28.44"/>
    <path class="cls-1" d="M69.13,40.66c-1.02,2.03-1.83,4.18-2.41,6.42-.17,0-.34,0-.5,0,.59-2.31,1.43-4.53,2.47-6.63l.44.2Z"/>
    <path class="cls-1" d="M66.09,50.08c-.28,1.73-.43,3.5-.43,5.3,0,2.35.25,4.64.72,6.85-.15.06-.31.11-.46.17-.49-2.26-.74-4.61-.74-7.02,0-1.83.15-3.63.43-5.38l.48.08Z"/>
    <path class="cls-1" d="M118.87,29.3c2.84,2.21,5.32,4.87,7.31,7.87.19-.01.38-.02.57-.02-2.05-3.15-4.62-5.94-7.58-8.24l-.3.38Z"/>
    <path class="cls-1" d="M111.17,41.22c.55.48,1.07,1,1.55,1.54l-.45.23c-.44-.49-.91-.95-1.4-1.38l.3-.39Z"/>
    <path class="cls-1" d="M113.21,36.6c1.47,1.14,2.79,2.44,3.96,3.89l-.44.23c-1.12-1.38-2.41-2.63-3.81-3.73l.3-.38Z"/>
    <path class="cls-1" d="M115.89,33.14c1.98,1.53,3.74,3.33,5.25,5.33.15-.07.3-.14.45-.21-1.55-2.07-3.37-3.92-5.41-5.5l-.3.38Z"/>
    <path class="cls-1" d="M61.13,47.48c-.54,2.55-.82,5.2-.82,7.9,0,4.53.79,8.89,2.24,12.93l.44-.22c-1.42-3.97-2.19-8.25-2.19-12.71,0-2.52.25-4.98.72-7.36-.17-.2-.29-.37-.38-.54h0Z"/>
    <path class="cls-1" d="M70.14,52.99c-.07.79-.1,1.59-.1,2.4,0,1.96.2,3.87.57,5.72l.48-.07c-.37-1.82-.57-3.71-.57-5.64,0-.79.03-1.57.1-2.34-.17-.02-.33-.04-.48-.06h0Z"/>
    <path class="cls-1" d="M74.9,55.33c0,1.73.18,3.42.53,5.04l.48-.07c-.34-1.6-.53-3.26-.52-4.96h0c-.16,0-.4,0-.49-.01Z"/>
    <path class="cls-1" d="M79.85,57.22c.07.72.18,1.42.33,2.11l.45-.23c-.13-.62-.22-1.25-.29-1.89h0c-.2,0-.31,0-.49,0h0Z"/>
    <path class="cls-1" d="M81.91,83.81c4.14,2.46,8.81,4.01,13.86,4.45,0,0-1.46.06-2.55.17-4.2-.69-7.95-2.05-11.48-4.16,0,0,.14-.36.17-.47"/>
    <path class="cls-1" d="M83.72,79.22c1.1.7,2.12,1.25,3.32,1.79.07.17.14.34.22.51l.07.16c-1.37-.59-2.55-1.22-3.8-2.01l.19-.44Z"/>
    <path class="cls-1" d="M92.04,93.17c-.07-.17-.14-.35-.19-.53-5.45-.99-10.5-3.16-14.87-6.22h0c-.87-.4-2.73-1.47-2.73-1.47,5.02,4.15,11.11,7.05,17.78,8.22"/>
    <path class="cls-1" d="M85.87,74.82c.44.29.89.57,1.35.83l-.2.44c-.48-.27-.94-.55-1.39-.85l.25-.42Z"/>
    <path class="cls-1" d="M96.93,78.6v.49c-2.6-.19-5.08-.8-7.38-1.75-.11-.15-.21-.31-.3-.47-.05-.08-.09-.16-.13-.25,2.41,1.09,5.05,1.78,7.81,1.99"/>
    <path class="cls-1" d="M73.11,42.5c-.71,1.39-1.3,2.85-1.77,4.36.18-.01.35-.02.52-.03.46-1.43,1.02-2.8,1.69-4.12l-.44-.2Z"/>
    <path class="cls-1" d="M77.88,43.87c-.51.91-.96,1.87-1.34,2.85.17.01.34.02.51.04.37-.92.79-1.81,1.27-2.67l-.43-.22Z"/>
    <path class="cls-1" d="M82.21,46.08c-.36.63-.68,1.28-.96,1.95h0c.14.08.28.17.42.26.29-.68.61-1.35.98-1.99l-.43-.22Z"/>
    <path class="cls-1" d="M86.42,41.64l-.3-.39c-.82.73-1.58,1.53-2.27,2.4l.44.23c.65-.8,1.36-1.55,2.12-2.24"/>
    <path class="cls-1" d="M84.03,36.67c-1.74,1.36-3.28,2.96-4.58,4.74l.44.22c1.26-1.72,2.76-3.26,4.44-4.58l-.3-.38Z"/>
    <path class="cls-1" d="M81.06,32.83c-2.06,1.61-3.89,3.5-5.44,5.6l.43.24c1.52-2.05,3.31-3.89,5.31-5.46l-.3-.38Z"/>
    <path class="cls-1" d="M135.94,46.31c-.13.05-.29.1-.46.16-3.42-14.11-14.76-25.15-29.02-28.14.06-.14.14-.29.23-.45,14.37,3.07,25.79,14.21,29.26,28.44"/>
    <path class="cls-1" d="M103.23,73.73c-.93.24-1.88.39-2.83.48v-.49c1-.09,1.98-.26,2.97-.53l-.14.54Z"/>
    <path class="cls-1" d="M115.67,84.23c-3.49,2.07-7.39,3.52-11.55,4.2-1.09-.11-2.55-.17-2.55-.17,5.06-.44,9.79-2.03,13.94-4.5l.16.47Z"/>
    <path class="cls-1" d="M113.84,79.65c-1.22.77-2.5,1.44-3.84,2.02l.07-.16c.08-.17.16-.34.22-.51,1.15-.53,2.27-1.13,3.33-1.8l.21.44Z"/>
    <path class="cls-1" d="M123.07,84.95h0s-1.86,1.07-2.73,1.46h0c-4.37,3.07-9.42,5.23-14.87,6.22-.04.18-.11.36-.19.53,6.68-1.17,12.77-4.07,17.78-8.22"/>
    <path class="cls-1" d="M111.36,74.89c-.41.27-.82.52-1.25.76l.2.45c.44-.25.87-.51,1.29-.78l-.24-.42Z"/>
    <path class="cls-1" d="M108.22,76.61c-.04.08-.09.16-.13.25-.09.16-.19.32-.3.47-2.3.96-4.78,1.57-7.38,1.76v-.49c2.77-.21,5.4-.9,7.81-1.99"/>
    <path class="cls-1" d="M127.48,39.29c1.36,2.43,2.42,5.04,3.14,7.79.17,0,.34,0,.5,0-.75-2.91-1.87-5.67-3.32-8.22-.1.14-.21.28-.32.42"/>
    <path class="cls-1" d="M123.74,42.6c.69,1.35,1.27,2.76,1.74,4.22.17.01.35.02.52.03-.49-1.56-1.11-3.07-1.85-4.51-.32.21-.38.24-.41.26"/>
    <path class="cls-1" d="M119.42,44.84c.32.62.61,1.26.87,1.92.17-.02.34-.03.51-.04-.28-.72-.6-1.42-.95-2.1l-.43.22Z"/>
    <path class="cls-1" d="M115.09,47.05l.43-.22c.2.39.39.79.56,1.2-.14.08-.28.17-.42.26-.18-.42-.37-.84-.58-1.24"/>
    <path class="cls-1" d="M131.73,50l-.48.08c.28,1.73.43,3.5.43,5.3,0,2.6-.3,5.13-.87,7.56h.5c.56-2.44.86-4.97.86-7.56,0-1.83-.15-3.63-.43-5.38"/>
    <path class="cls-1" d="M127.2,52.99c-.16.02-.31.04-.48.06.06.77.1,1.55.1,2.34,0,2.08-.23,4.1-.66,6.05l.45.21c.45-2.02.69-4.11.69-6.26,0-.81-.03-1.61-.1-2.4h0Z"/>
    <path class="cls-1" d="M121.95,55.34c.06,0,.12,0,.18,0h.03c.1,0,.19,0,.28,0,0,1.86-.21,3.66-.61,5.4h-.5c.41-1.73.62-3.53.62-5.38"/>
    <path class="cls-1" d="M116.99,57.22c.15,0,.29,0,.43,0h.06c-.11,1.11-.31,2.2-.61,3.25l-.44-.23c.27-.98.46-1.99.56-3.03h0Z"/>
    <path class="cls-1" d="M77.11,13.81c-1.59,1.38-2.79,2.92-3.58,4.51-.79,1.59-1.14,3.13-1.16,4.57,1.04-3.06,2.6-6.14,4.75-9.08"/>
    <path class="cls-1" d="M81.3,12.49c-1.67,1.16-2.98,2.49-3.91,3.9-.93,1.41-1.43,2.82-1.61,4.17,1.34-2.77,3.15-5.5,5.52-8.08"/>
    <path class="cls-1" d="M85.5,11.57c-1.73.95-3.12,2.08-4.16,3.32-1.04,1.24-1.67,2.51-1.99,3.75,1.59-2.47,3.62-4.86,6.15-7.07"/>
    <path class="cls-1" d="M72.96,15.6h0c-1.49,1.62-2.54,3.36-3.17,5.12-.63,1.76-.81,3.42-.65,4.94h0c.71-3.34,1.94-6.74,3.82-10.06"/>
    <path class="cls-1" d="M66.55,97.35c4.1,1.56,8.32,2.08,12.16,1.69,3.52-.36,6.54-1.43,8.95-2.91-.15-.03-.3-.07-.44-.1-6.54,1.88-13.61,2.42-20.67,1.32"/>
    <path class="cls-1" d="M60.19,91.43c3.52,2.13,7.26,3.3,10.81,3.55,3.36.24,6.36-.33,8.86-1.41-.08-.04-.16-.07-.24-.11-6.3.78-12.96.17-19.44-2.03"/>
    <path class="cls-1" d="M55.33,84.79h0c2.95,2.56,6.23,4.25,9.46,5.05,3.14.78,6.05.69,8.58.03-.04-.03-.07-.05-.11-.08-5.96-.25-12.1-1.87-17.92-5"/>
    <path class="cls-1" d="M51.83,77.73c2.42,2.87,5.23,4.98,8.12,6.23,2.84,1.23,5.59,1.6,8.07,1.35-.02-.02-.04-.04-.06-.06-5.51-1.17-11.04-3.67-16.13-7.52"/>
    <path class="cls-1" d="M49.56,70.5c1.91,3.08,4.27,5.49,6.81,7.11,2.49,1.59,5.02,2.37,7.38,2.51-.02-.02-.03-.05-.05-.07-4.97-1.97-9.83-5.16-14.14-9.55"/>
    <path class="cls-1" d="M48.39,63.31c1.43,3.19,3.35,5.81,5.54,7.72,2.13,1.86,4.39,2.97,6.6,3.47-.02-.03-.03-.07-.05-.1-4.39-2.62-8.54-6.34-12.09-11.09"/>
    <path class="cls-1" d="M48.2,56.32c.98,3.22,2.49,5.97,4.33,8.09,1.77,2.04,3.75,3.41,5.75,4.21-.01-.05-.03-.09-.04-.14-3.78-3.12-7.24-7.22-10.03-12.16"/>
    <path class="cls-1" d="M48.86,49.68c.57,3.18,1.68,5.99,3.17,8.25,1.42,2.15,3.1,3.7,4.87,4.74,0-.06-.02-.13-.03-.19-3.16-3.48-5.93-7.8-8.02-12.8"/>
    <path class="cls-1" d="M50.27,43.47c.19,3.08.93,5.88,2.09,8.23,1.09,2.2,2.48,3.88,4.03,5.11,0-.07,0-.14,0-.2-2.73-3.85-4.74-8.32-6.12-13.13"/>
    <path class="cls-1" d="M52.32,37.76c-.15,2.94.24,5.68,1.09,8.05.79,2.21,1.92,3.99,3.25,5.35,0-.07.01-.14.02-.21-2.08-3.92-3.57-8.5-4.36-13.19"/>
    <path class="cls-1" d="M54.91,32.62c-.46,2.76-.38,5.4.17,7.74.51,2.2,1.4,4.03,2.51,5.5.02-.07.03-.13.05-.19-1.4-3.85-2.47-8.53-2.72-13.04"/>
    <path class="cls-1" d="M57.94,28.06c-.73,2.55-.94,5.06-.67,7.33.25,2.17.9,4.02,1.82,5.55.02-.05.04-.1.05-.14-.93-3.84-1.44-8.4-1.2-12.74"/>
    <path class="cls-1" d="M61.34,24.09c-.97,2.33-1.43,4.66-1.43,6.85,0,2.1.44,3.96,1.15,5.53.02-.03.03-.06.05-.09-.48-3.79-.48-8.13.23-12.28"/>
    <path class="cls-1" d="M65.02,20.71c-1.18,2.1-1.87,4.24-2.1,6.3-.23,2.01,0,3.83.52,5.42.01-.02.02-.03.03-.05-.07-3.69.4-7.75,1.54-11.67"/>
    <path class="cls-1" d="M68.91,17.88h0c-1.35,1.86-2.24,3.81-2.68,5.72-.44,1.9-.42,3.65-.09,5.22,0,0,.01-.01.02-.02.33-3.54,1.21-7.28,2.75-10.92"/>
    <path class="cls-1" d="M94.68,97.89c-6.29,2.67-13.1,4.19-20.15,4.33,4.7.85,9.38.59,13.49-.53,2.57-.7,4.82-1.7,6.72-2.9-.04-.1-.06-.22-.06-.33v-.57Z"/>
    <path class="cls-1" d="M75.11,18.31c.83-1.55,1.51-3.04,1.99-4.5-2.15,2.94-3.7,6.01-4.75,9.08.99-1.52,1.92-3.03,2.75-4.58"/>
    <path class="cls-1" d="M78.92,16.52c.96-1.37,1.77-2.71,2.38-4.04-2.37,2.57-4.18,5.3-5.52,8.08,1.11-1.33,2.17-2.66,3.14-4.04"/>
    <path class="cls-1" d="M82.8,15.14c1.07-1.2,1.99-2.39,2.71-3.57-2.53,2.21-4.56,4.6-6.15,7.07,1.21-1.14,2.38-2.3,3.45-3.5"/>
    <path class="cls-1" d="M94.68,97.25c-3.31.82-6.44,1.53-9.45,2.22-3.94.91-7.49,1.75-10.7,2.76,7.05-.14,13.86-1.66,20.15-4.33v-.65h0Z"/>
    <path class="cls-1" d="M94.85,96.36c-20.19-1.52-34.37-15.97-37.03-34.54-2.71-19.31,7.18-36.39,23.04-43.59,1.96-.92,4.14-1.62,4.67-1.8l-.03-.08s-.44.13-1.25.39c-5.89,1.9-10.97,4.99-15.11,8.93.84-1.7,1.62-3.4,2.29-5.11.67-1.71,1.2-3.36,1.53-4.94-1.88,3.32-3.12,6.72-3.82,10.06h0c-1.04.99-2.02,2.03-2.95,3.12.65-1.85,1.24-3.69,1.72-5.53.49-1.87.85-3.66,1-5.36-1.54,3.64-2.42,7.38-2.75,10.92,0,0-.01.01-.02.02-.94,1.11-1.81,2.27-2.62,3.47.43-1.97.81-3.91,1.09-5.85.29-2.02.44-3.93.4-5.73-1.14,3.91-1.61,7.98-1.54,11.67-.01.02-.02.03-.03.05-.82,1.22-1.57,2.49-2.25,3.8.2-2.05.35-4.07.41-6.08.06-2.15,0-4.16-.26-6.05-.71,4.15-.71,8.49-.23,12.28-.02.03-.03.06-.05.09-.69,1.33-1.3,2.71-1.84,4.11-.04-2.1-.12-4.18-.3-6.23-.2-2.25-.5-4.35-.98-6.29-.24,4.35.27,8.9,1.2,12.74-.02.05-.04.1-.05.14-.54,1.44-1,2.92-1.38,4.42-.29-2.13-.62-4.23-1.04-6.3-.47-2.32-1.04-4.47-1.76-6.44.25,4.52,1.32,9.2,2.72,13.04-.02.07-.03.13-.05.19-.37,1.55-.66,3.13-.86,4.73-.55-2.15-1.15-4.26-1.82-6.34-.77-2.35-1.6-4.52-2.58-6.48.79,4.69,2.28,9.27,4.36,13.19,0,.07-.02.14-.02.21-.19,1.67-.28,3.35-.27,5.04-.85-2.15-1.72-4.27-2.67-6.34-1.08-2.34-2.2-4.48-3.45-6.4,1.38,4.81,3.39,9.28,6.12,13.13,0,.07,0,.14,0,.2.03,1.78.18,3.56.44,5.34-1.17-2.14-2.37-4.25-3.63-6.3-1.4-2.27-2.82-4.34-4.34-6.16,2.09,5,4.85,9.32,8.02,12.8,0,.06.02.13.03.19.29,1.86.71,3.72,1.25,5.57-1.55-2.09-3.09-4.15-4.71-6.14-1.74-2.14-3.47-4.09-5.25-5.77,2.8,4.94,6.25,9.04,10.03,12.16.01.05.03.09.04.14.57,1.89,1.28,3.76,2.13,5.6-1.95-1.95-3.87-3.88-5.84-5.73-2.08-1.95-4.11-3.71-6.17-5.18,3.55,4.75,7.7,8.47,12.09,11.09.02.03.03.07.05.1.9,1.92,1.94,3.73,3.09,5.43-2.35-1.7-4.65-3.4-6.98-5.02-2.42-1.68-4.76-3.19-7.07-4.41,4.32,4.39,9.17,7.59,14.14,9.55.02.02.03.05.05.07,1.24,1.8,2.61,3.48,4.1,5.02-2.75-1.34-5.41-2.71-8.07-4-2.76-1.34-5.39-2.52-7.95-3.42,5.09,3.85,10.62,6.35,16.13,7.52.02.02.04.04.06.06,1.56,1.59,3.25,3.04,5.04,4.33-3.07-.87-6.03-1.79-8.95-2.65-3.09-.91-6-1.7-8.77-2.21,5.82,3.12,11.97,4.75,17.92,5,.04.03.07.05.11.08,1.85,1.3,3.81,2.44,5.86,3.4-3.29-.32-6.43-.71-9.5-1.06-3.41-.39-6.56-.71-9.52-.77,6.48,2.2,13.14,2.8,19.44,2.03.08.04.16.07.24.11,2.11.95,4.32,1.71,6.6,2.29-3.4.27-6.62.44-9.75.62-3.69.21-7.06.44-10.18.88,7.06,1.1,14.14.56,20.67-1.32.15.03.3.07.44.1,2.28.5,4.62.82,7.01.94h0v-.18c0-.2.06-.38.17-.54"/>
    <path class="cls-1" d="M120.23,13.81c1.59,1.38,2.79,2.92,3.58,4.51.79,1.59,1.14,3.13,1.16,4.57-1.04-3.06-2.6-6.14-4.75-9.08"/>
    <path class="cls-1" d="M116.03,12.49c1.67,1.16,2.98,2.49,3.91,3.9.93,1.41,1.43,2.82,1.61,4.17-1.34-2.77-3.15-5.5-5.52-8.08"/>
    <path class="cls-1" d="M111.83,11.57c1.73.95,3.12,2.08,4.16,3.32,1.04,1.24,1.67,2.51,1.99,3.75-1.59-2.47-3.62-4.86-6.15-7.07"/>
    <path class="cls-1" d="M124.37,15.6h0c1.49,1.62,2.54,3.36,3.17,5.12.63,1.76.81,3.42.65,4.94h0c-.7-3.34-1.94-6.74-3.82-10.06"/>
    <path class="cls-1" d="M130.78,97.35c-4.1,1.56-8.32,2.08-12.16,1.69-3.52-.36-6.54-1.43-8.95-2.91.15-.03.3-.07.44-.1,6.54,1.88,13.61,2.42,20.67,1.32"/>
    <path class="cls-1" d="M137.14,91.43c-3.52,2.13-7.26,3.3-10.81,3.55-3.36.24-6.36-.33-8.86-1.41.08-.04.16-.07.24-.11,6.3.78,12.96.17,19.44-2.03"/>
    <path class="cls-1" d="M142,84.79h0c-2.95,2.56-6.23,4.25-9.46,5.05-3.14.78-6.05.69-8.58.03.04-.03.07-.05.11-.08,5.96-.25,12.1-1.87,17.92-5"/>
    <path class="cls-1" d="M145.5,77.73c-2.42,2.87-5.23,4.98-8.12,6.23-2.84,1.23-5.59,1.6-8.07,1.35.02-.02.04-.04.06-.06,5.51-1.17,11.04-3.67,16.13-7.52"/>
    <path class="cls-1" d="M147.77,70.5c-1.91,3.08-4.27,5.49-6.81,7.11-2.49,1.59-5.02,2.37-7.38,2.51.02-.02.03-.05.05-.07,4.97-1.97,9.83-5.16,14.14-9.55"/>
    <path class="cls-1" d="M148.94,63.31c-1.43,3.19-3.35,5.81-5.54,7.72-2.13,1.86-4.39,2.97-6.6,3.47.02-.03.03-.07.05-.1,4.39-2.62,8.54-6.34,12.09-11.09"/>
    <path class="cls-1" d="M149.14,56.32c-.98,3.22-2.49,5.97-4.33,8.09-1.77,2.04-3.75,3.41-5.75,4.21.01-.05.03-.09.04-.14,3.78-3.12,7.24-7.22,10.03-12.16"/>
    <path class="cls-1" d="M148.47,49.68c-.57,3.18-1.68,5.99-3.17,8.25-1.42,2.15-3.1,3.7-4.87,4.74,0-.06.02-.13.03-.19,3.16-3.48,5.93-7.8,8.02-12.8"/>
    <path class="cls-1" d="M147.06,43.47c-.19,3.08-.93,5.88-2.09,8.23-1.09,2.2-2.49,3.88-4.03,5.11,0-.07,0-.14,0-.2,2.73-3.85,4.74-8.32,6.12-13.13"/>
    <path class="cls-1" d="M145.01,37.76c.15,2.94-.24,5.68-1.09,8.05-.79,2.21-1.92,3.99-3.25,5.35,0-.07-.02-.14-.02-.21,2.08-3.92,3.57-8.5,4.36-13.19"/>
    <path class="cls-1" d="M142.43,32.62c.46,2.76.38,5.4-.17,7.74-.51,2.2-1.4,4.03-2.51,5.5-.02-.07-.03-.13-.05-.19,1.4-3.85,2.47-8.53,2.72-13.04"/>
    <path class="cls-1" d="M139.39,28.06c.73,2.55.94,5.06.68,7.33-.25,2.17-.91,4.02-1.82,5.55-.02-.05-.04-.1-.05-.14.93-3.84,1.44-8.4,1.2-12.74"/>
    <path class="cls-1" d="M136,24.09c.97,2.33,1.43,4.66,1.43,6.85,0,2.1-.44,3.96-1.15,5.53-.02-.03-.03-.06-.05-.09.48-3.79.48-8.13-.23-12.28"/>
    <path class="cls-1" d="M132.32,20.71c1.18,2.1,1.87,4.24,2.1,6.3.23,2.01,0,3.83-.52,5.42-.01-.02-.02-.03-.03-.05.07-3.69-.4-7.75-1.54-11.67"/>
    <path class="cls-1" d="M128.42,17.88h0c1.35,1.86,2.24,3.81,2.68,5.72.44,1.9.42,3.65.09,5.22,0,0-.01-.01-.02-.02-.33-3.54-1.21-7.28-2.75-10.92"/>
    <path class="cls-1" d="M102.65,97.89c6.29,2.67,13.1,4.19,20.15,4.33-4.7.85-9.38.59-13.49-.53-2.57-.7-4.82-1.7-6.72-2.9.04-.1.06-.22.06-.33v-.57h0Z"/>
    <path class="cls-1" d="M122.22,18.31c-.83-1.55-1.51-3.04-1.99-4.5,2.15,2.94,3.7,6.01,4.75,9.08-.99-1.52-1.92-3.03-2.75-4.58"/>
    <path class="cls-1" d="M118.42,16.52c-.96-1.37-1.77-2.71-2.39-4.04,2.37,2.57,4.18,5.3,5.52,8.08-1.11-1.33-2.18-2.66-3.14-4.04"/>
    <path class="cls-1" d="M114.54,15.14c-1.07-1.2-1.99-2.39-2.71-3.57,2.53,2.21,4.56,4.6,6.15,7.07-1.21-1.14-2.38-2.3-3.45-3.5"/>
    <path class="cls-1" d="M102.65,97.25c3.31.82,6.44,1.53,9.45,2.22,3.94.91,7.49,1.75,10.7,2.76-7.05-.14-13.86-1.66-20.15-4.33v-.65Z"/>
    <path class="cls-1" d="M102.49,96.36c20.19-1.52,34.37-15.97,37.03-34.54,2.71-19.31-7.18-36.39-23.04-43.59-1.96-.92-4.14-1.62-4.67-1.8l.03-.08s.44.13,1.25.39c5.89,1.9,10.97,4.99,15.11,8.93-.84-1.7-1.62-3.4-2.29-5.11-.67-1.71-1.2-3.36-1.53-4.94,1.88,3.32,3.12,6.72,3.82,10.06h0c1.04.99,2.02,2.03,2.95,3.12-.65-1.85-1.24-3.69-1.72-5.53-.49-1.87-.84-3.66-1-5.36,1.54,3.64,2.42,7.38,2.75,10.92,0,0,0,.01.02.02.94,1.11,1.81,2.27,2.62,3.47-.43-1.97-.81-3.91-1.08-5.85-.29-2.02-.44-3.93-.4-5.73,1.14,3.91,1.61,7.98,1.54,11.67.01.02.02.03.03.05.82,1.22,1.57,2.49,2.25,3.8-.2-2.05-.35-4.07-.41-6.08-.06-2.15,0-4.16.26-6.05.71,4.15.71,8.49.23,12.28.02.03.03.06.05.09.69,1.33,1.3,2.71,1.84,4.11.04-2.1.12-4.18.3-6.23.2-2.25.5-4.35.98-6.29.24,4.35-.27,8.9-1.2,12.74.02.05.04.1.05.14.54,1.44,1,2.92,1.38,4.42.29-2.13.62-4.23,1.04-6.3.47-2.32,1.04-4.47,1.76-6.44-.25,4.52-1.32,9.2-2.72,13.04.02.07.03.13.05.19.37,1.55.66,3.13.86,4.73.56-2.15,1.15-4.26,1.82-6.34.77-2.35,1.6-4.52,2.58-6.48-.79,4.69-2.28,9.27-4.36,13.19,0,.07.02.14.02.21.19,1.67.28,3.35.27,5.04.85-2.15,1.72-4.27,2.67-6.34,1.08-2.34,2.2-4.48,3.45-6.4-1.38,4.81-3.39,9.28-6.12,13.13,0,.07,0,.14,0,.2-.03,1.78-.18,3.56-.44,5.34,1.17-2.14,2.36-4.25,3.63-6.3,1.4-2.27,2.82-4.34,4.34-6.16-2.09,5-4.85,9.32-8.02,12.8,0,.06-.02.13-.03.19-.29,1.86-.71,3.72-1.25,5.57,1.55-2.09,3.09-4.15,4.71-6.14,1.74-2.14,3.47-4.09,5.25-5.77-2.8,4.94-6.25,9.04-10.03,12.16-.01.05-.03.09-.04.14-.57,1.89-1.28,3.76-2.13,5.6,1.95-1.95,3.87-3.88,5.84-5.73,2.08-1.95,4.11-3.71,6.17-5.18-3.55,4.75-7.7,8.47-12.09,11.09-.02.03-.03.07-.05.1-.9,1.92-1.94,3.73-3.09,5.43,2.35-1.7,4.65-3.4,6.98-5.02,2.42-1.68,4.76-3.19,7.07-4.41-4.32,4.39-9.17,7.59-14.14,9.55-.02.02-.03.05-.05.07-1.24,1.8-2.61,3.48-4.1,5.02,2.75-1.34,5.41-2.71,8.07-4,2.76-1.34,5.39-2.52,7.95-3.42-5.09,3.85-10.62,6.35-16.13,7.52-.02.02-.04.04-.06.06-1.56,1.59-3.25,3.04-5.04,4.33,3.07-.87,6.03-1.79,8.95-2.65,3.09-.91,6-1.7,8.77-2.21-5.82,3.12-11.97,4.75-17.93,5-.04.03-.07.05-.11.08-1.85,1.3-3.81,2.44-5.86,3.4,3.29-.32,6.43-.71,9.5-1.06,3.41-.39,6.56-.71,9.53-.77-6.48,2.2-13.14,2.8-19.44,2.03-.08.04-.16.07-.24.11-2.11.95-4.32,1.71-6.6,2.29,3.4.27,6.62.44,9.75.62,3.69.21,7.06.44,10.18.88-7.06,1.1-14.14.56-20.67-1.32-.15.03-.3.07-.44.1-2.28.5-4.62.82-7.01.94v-.18c0-.2-.06-.38-.17-.54"/>
    <path class="cls-1" d="M98.67,91.99h3.39c.51-.76.96-1.58,1.32-2.43l.24-.57v-.02s-4.95,0-4.95,0h-4.96l.25.59c.28.66.61,1.3.99,1.92.11.17.22.34.33.51h3.39Z"/>
    <path class="cls-1" d="M101.17,99.42h.53c.41,0,.76-.26.89-.62.04-.1.06-.22.06-.33v-1.57c0-.2-.06-.38-.17-.54-.1-.15-.25-.27-.42-.34l2.36-2.71c.68-.78.76-1.92.2-2.79l-1-1.55v.02s-.25.57-.25.57c-.36.85-.8,1.66-1.32,2.43-.46.68-.97,1.31-1.53,1.9l-1.86,1.94-1.86-1.94c-.57-.59-1.08-1.22-1.53-1.9-.11-.17-.22-.34-.33-.51-.38-.61-.71-1.25-.99-1.92l-.25-.59-1,1.55c-.56.87-.48,2.01.2,2.79l2.36,2.71c-.17.07-.32.19-.42.34-.1.15-.17.34-.17.54v1.57c0,.12.02.23.06.33.14.36.48.62.89.62h.53c-1.5,1.6-3.49,3.05-6.1,4.28h3.69s2.82-2.3,3.81-4.28h2.19c.99,1.99,3.81,4.28,3.81,4.28h3.69c-2.61-1.24-4.6-2.68-6.1-4.28"/>
    <path class="cls-1" d="M93.76,103.7v3.62c2.26-2.52,4.05-5.08,4.91-7.7.86,2.62,2.65,5.17,4.92,7.7v-3.62s-2.83-2.3-3.83-4.28h-2.19c-.99,1.99-3.81,4.28-3.81,4.28"/>
    <path class="cls-1" d="M98.67,67.9c-6.86,0-12.41-5.56-12.41-12.41s5.56-12.41,12.41-12.41,12.41,5.56,12.41,12.41c0,6.86-5.56,12.41-12.41,12.41"/>
    <path class="cls-1" d="M107.9,56.35c-2.69,0-6.41,1.91-8.54,3.15-.41-4.54-.26-7.48-.13-9.01,0,0,.01-.01.02,0,1.32.83.95,3.15.67,3.81,0,.01.01.02.02.01,1.64-1.94.84-4.09.5-4.63,0-.01,0-.02.02-.02,1.47,1.19,1.4,2.78,1.32,3.67,0,.01.02.02.03,0,.6-1.17.78-3.16-1.05-4.77-.01,0,0-.03.01-.02,1.63.4,2.3,1.95,2.31,3.1,0,.02,0,.04,0,.06,0,.02.02.02.03,0,.24-.87.18-1.57-.03-2.13-.47-1.27-1.76-1.83-2.38-1.91-.02,0-.01-.02,0-.03,1.22-.11,1.96.27,2.38.64.26.23.4.46.46.56,0,.01.03,0,.03,0-.05-.47-.22-.85-.48-1.16-.72-.86-2.08-1.1-2.95-.73-.01,0-.02,0-.02-.02.57-.81,1.7-.9,2.3-.61.01,0,.02,0,.02-.02-.9-1.03-2.38-1.05-3.16.14,0,0-.02,0-.02,0-.09-.15-.17-.32-.24-.5-.17-.39-.24-.83-.32-1.26,0-.02-.03-.02-.03,0-.07.44-.15.87-.32,1.26-.08.18-.16.35-.25.5,0,0-.02,0-.02,0-.79-1.19-2.27-1.17-3.16-.14,0,.01,0,.03.01.02.6-.29,1.73-.2,2.3.61,0,.01,0,.02-.01.02-.88-.37-2.23-.13-2.95.73-.26.31-.44.69-.48,1.16,0,.01.02.02.02,0,.06-.1.2-.33.46-.56.42-.37,1.16-.75,2.38-.64.02,0,.02.02,0,.03-.62.08-1.91.63-2.38,1.91-.21.56-.26,1.27-.03,2.13,0,.01.03.01.02,0,0-.02,0-.04,0-.06.01-1.16.67-2.71,2.31-3.1.01,0,.02.01.01.02-1.83,1.61-1.65,3.6-1.05,4.77,0,.01.03,0,.02,0-.08-.89-.14-2.47,1.32-3.67.01,0,.03,0,.02.02-.34.54-1.14,2.69.5,4.63,0,.01.03,0,.02-.01-.28-.66-.65-2.98.67-3.81,0,0,.02,0,.02,0,.13,1.52.28,4.47-.13,9.01-2.13-1.24-5.85-3.15-8.54-3.15-.83,0-1.52.22-1.48.23,3.56.56,7.78,3.04,9.55,4.16-1.14.71-4.81,2.98-5.25,2.98-.22,0-.25-.27-.44-.27-.17,0-.17.12-.17.17,0,.76,1.04,1.26,1.88.86l5.14-2.97,5.14,2.97c.84.39,1.88-.1,1.88-.86,0-.05,0-.17-.17-.17-.19,0-.22.27-.44.27-.44,0-4.1-2.27-5.25-2.98,1.77-1.12,5.99-3.6,9.55-4.16.05,0-.65-.23-1.47-.23"/>
    <path class="cls-1" d="M119.21,53.66c1.72.14,5.34.59,6.45-.21.06.31-1.11,1.46-4.74,1.22-3.05-.2-7.02-.65-8.13.27.29-1.31,2.86-1.58,6.41-1.29"/>
    <polygon class="cls-1" points="63.58 66.84 63.97 67.6 73.49 62.75 63.58 66.84"/>
    <polygon class="cls-1" points="130.8 62.95 129.51 62.97 131.38 63.83 131.93 62.92 131.3 62.94 130.8 62.95"/>
    <path class="cls-1" d="M129.23,68.07l-8.91-4.64c-1.22-.64-2.62-.88-3.98-.69l4.17,5.86,6.55,3.7-.41.98,3.21,1.63.96-1.88c.92-1.81.21-4.03-1.59-4.97"/>
    <path class="cls-1" d="M109.78,75.84c-.17-.34-.36-.68-.59-1.02.41,3.3-1.72,4.81-1.72,4.81l1.4-.97s-1.15,3.19-3.71,4.4c-2.56,1.21-6.49,2.51-6.49,2.92,0-.42-4.13-1.71-6.7-2.92-2.56-1.22-3.71-4.4-3.71-4.4l2.1.88.76-.14c-.82-.51-1.63-1.35-2.2-2.34-.13-.23-.25-.46-.35-.7-.21-.49-.36-1.01-.41-1.53-.23.34-.42.68-.59,1.02-.07.15-.14.3-.2.45-.67,1.65-.58,3.33.25,5.06l.57-.8c1.56,4.55,8.12,4.33,10.49,7.6h0c2.36-3.27,8.93-3.05,10.49-7.6l.57.8c.83-1.73.91-3.41.25-5.06-.06-.15-.13-.3-.2-.45"/>
    <path class="cls-1" d="M78.12,53.66c-1.72.14-5.35.59-6.45-.21-.06.31,1.11,1.46,4.74,1.22,3.05-.2,7.02-.65,8.13.27-.29-1.31-2.86-1.58-6.41-1.29"/>
    <path class="cls-1" d="M82.01,52.4c-.11-.18-.24-.35-.37-.49-1.78-2-5.21-.87-8.8-.54-3.1.28-4.32.03-5.32-.39-.66-.28-.71-.4-.71-.4,0,0,0,.02,0,.05,0,.46,1.56,2.11,6.11,1.79,4.11-.29,7.36-1.07,9.09-.01"/>
    <path class="cls-1" d="M115.33,52.4c.11-.18.24-.35.37-.49,1.78-2,5.21-.87,8.8-.54,3.1.28,4.32.03,5.32-.39.66-.28.71-.4.71-.4,0,0,0,.02,0,.05,0,.46-1.56,2.11-6.12,1.79-4.11-.29-7.36-1.07-9.09-.01"/>
    <polygon class="cls-1" points="125.27 71.3 127.06 72.31 126.65 73.29 125.27 71.3"/>
    <path class="cls-1" d="M83.86,43.65l-3.96-2.02-.44-.22-.82-.42.11-.2c.14-.27.04-.6-.23-.74l-2.48-1.38-.43-.24-3.85-2.15-.43-.24-2.63-1.47-.57,1.11-1.03,2.03-.54,1.07.65.33.04-.07c.55-1.08,1.87-1.51,2.95-.96l7.9,3.99-.51.99.41-.1c.8-.19,1.64-.09,2.37.28l7.73,3.89c.29-.3.6-.59.92-.86l-4.72-2.41-.44-.23Z"/>
    <path class="cls-1" d="M107.47,79.64s2.12-1.51,1.72-4.81c-.06.52-.2,1.04-.41,1.53-.1.24-.22.47-.35.7-.57.99-1.38,1.83-2.21,2.35l1.25.24Z"/>
    <path class="cls-1" d="M102.8,82.69c-.26,0-.51-.03-.74-.08h0c-1.28.39-2.13.78-2.66,1.07-.53.29-.73.48-.73.48v-16c-.45,0-.9-.02-1.35-.06v11.63c0,.94-.25,1.67-.75,2.19-1.58,1.62-5.39.55-6.7-2.29l.49-.09-2.1-.88s1.15,3.19,3.71,4.4c2.56,1.22,6.7,2.51,6.7,2.92,0-.41,3.92-1.71,6.49-2.92,2.56-1.21,3.71-4.4,3.71-4.4l-1.4.97c-.9,1.94-2.95,3.05-4.67,3.05"/>
    <path class="cls-1" d="M100.22,26.41c-.31.07-.79.15-1.55.2-.47.03-.97.03-1.68.03,0,0,.01.11.15.24.05.04.1.09.18.14.19.12.49.23.96.3.12.02.25.03.39.04v15.46c-1.28,0-2.53.15-3.72.45v-5.6c0-.35.2-.67.51-.83l.79-.45c-.39.22-.6.67-.52,1.11l.04.26.83,4.81v-15.07c0-1.44.26-2.87.77-4.21l1.3-3.62v5.41c0,.78.09,1.25,1.55,1.32"/>
    <polygon class="cls-1" points="75.45 66.58 65.92 71.44 66.32 72.2 75.45 66.58"/>
    <path class="cls-1" d="M75.8,55.63s0-.01-.01-.02c0,0,0,.01.01.02"/>
    <path class="cls-1" d="M84.53,54.95h0c-1.74-.51-7.61.83-8.75.67,0,0,0,.01.01.02.26.32,2.38.29,4.86.21.79-.02,2.43-.19,3.97.35-.06-1.03-.09-1.24-.09-1.24"/>
    <path class="cls-1" d="M84.51,54.85c-.21-.77-.93-1.72-2.21-2.32-.1-.05-.2-.09-.3-.12-1.4-.5-2.78.11-7.37.88-.85.14-2.56.26-2.96.17,0,0,0,0,0,0,1.11.8,4.74.35,6.46.21,3.55-.29,6.12-.02,6.41,1.29,0-.03-.02-.07-.03-.1"/>
    <path class="cls-1" d="M81.88,52.21c-.67-1.04-1.33-1.67-2.04-2.02-1.47-.75-3.15-.31-5.57-.01-3.27.4-6.32.84-7.46.4,0,0,.05.11.71.4.99.43,2.21.68,5.32.39,3.59-.33,7.02-1.46,8.8.55.13.15.25.31.37.49-.04-.07-.08-.13-.12-.19"/>
    <path class="cls-1" d="M121.54,55.63s0-.01.01-.02c0,0,0,.01-.01.02"/>
    <path class="cls-1" d="M112.8,54.95h0c1.74-.51,7.61.83,8.75.67,0,0,0,.01-.01.02-.26.32-2.38.29-4.86.21-.79-.02-2.43-.19-3.97.35.06-1.03.09-1.24.09-1.24"/>
    <path class="cls-1" d="M112.83,54.85c.21-.77.93-1.72,2.21-2.32.1-.05.2-.09.29-.12,1.4-.5,2.78.11,7.37.88.85.14,2.56.26,2.96.17,0,0,0,0,0,0-1.11.8-4.74.35-6.45.21-3.55-.29-6.12-.02-6.41,1.29,0-.03.02-.07.03-.1"/>
    <path class="cls-1" d="M115.45,52.21c.67-1.04,1.33-1.67,2.04-2.02,1.48-.75,3.15-.31,5.57-.01,3.27.4,6.32.84,7.46.4,0,0-.05.11-.71.4-.99.43-2.21.68-5.32.39-3.59-.33-7.02-1.46-8.81.55-.13.15-.25.31-.37.49.04-.07.08-.13.12-.19"/>
    <path class="cls-1" d="M80.18,59.34l-.89.45-3.38.51-.48.07-4.34.65-.48.07-.42.06c-1.3.27-2.57.63-3.81,1.07-.15.06-.31.11-.46.17-.97.37-1.92.79-2.85,1.26l-.88.45,1.39,2.73,9.91-4.09-9.52,4.86-.98.49-.44.22c.49,1.36,1.05,2.68,1.69,3.97-.55-1.08-.12-2.41.96-2.97l19.99-10.18c-.21-.64-.37-1.3-.47-1.97-.06-.02-.12-.04-.18-.06l-3.92,2-.45.23Z"/>
    <path class="cls-1" d="M81.25,48.03c-1.22-.72-2.57-1.11-4.21-1.27-.17-.02-.34-.03-.51-.04-.37-.02-.75-.04-1.14-.04-1.08,0-2.27.06-3.54.14-.17.01-.35.02-.52.03-.67.04-1.31.09-1.96.13-.9.05-1.8.09-2.66.1-.17,0-.34,0-.5,0h-.57c-1.09-.01-2.78-.32-3.79-.62-.18-.05-.33-.11-.46-.16-.11-.04-.2-.08-.26-.12-.02-.01-.04-.03-.06-.04,0,0,.1.11.1.11,2.86,3.02,7.08,1.95,15.24,1.63,3.84-.15,6.34,2.68,8.3,5.93.08-.52.19-1.02.33-1.52h0c-.47-.92-1.13-2.04-1.88-2.75-.49-.49-.98-.9-1.51-1.25-.14-.09-.27-.18-.42-.26"/>
    <path class="cls-1" d="M115.66,48.29c.14-.09.28-.18.42-.26h0c1.22-.72,2.57-1.11,4.21-1.27.17-.01.34-.03.51-.04.37-.02.75-.04,1.14-.04,1.08,0,2.27.06,3.53.14.17.01.35.02.52.03.67.04,1.31.09,1.96.13.9.05,1.8.09,2.66.1.17,0,.34,0,.5,0h.57c1.09-.01,2.78-.32,3.79-.62.18-.05.33-.11.46-.16.11-.04.19-.08.26-.12.02-.01.04-.03.06-.04,0,0-.1.11-.1.11-2.86,3.02-7.08,1.95-15.24,1.63-3.84-.15-6.34,2.68-8.3,5.93-.08-.52-.19-1.02-.33-1.52h0c.48-.92,1.13-2.04,1.88-2.75.49-.49.98-.9,1.51-1.25"/>
    <path class="cls-1" d="M98.67,5.67c-.04.25-.18.47-.39.72-.21.25-.48.52-.76.88-1.49.73-5.66.25-5.66,4.42,0,1.14.54,2.23,1.47,2.92-1.16-.26-2.24-1.11-2.62-2.85-.35-1.86.7-3.57,2.37-4.41,1.59-.8,4.73-.72,5.45-1.69.05,0,.1,0,.15,0"/>
    <path class="cls-1" d="M90.37,8.82c-.08.14-.16.29-.24.45-.01.03-.03.05-.04.08h0c-1.36.32-2.37,1.54-2.37,3,0,.58.12,1.15.44,1.59.06.08.13.16.19.24h0s0,0,0,0c-1.44-1.41-1.31-3.19-.3-4.66.58-.85,1.46-1.6,2.5-2.13,0,0,.01,0,.02-.01-.14.4-.23.95-.2,1.45"/>
    <path class="cls-1" d="M89.32,15.63h0c1.27.74,2.33,2.28,2.5,3.78,2.24-.87,3.83-1.4,6.85-1.4-3.12-2.95-7.68-2.34-9.35-2.38"/>
    <path class="cls-1" d="M98.67,5.67c.04.25.18.47.39.72.21.25.48.52.76.88,1.49.73,5.66.25,5.66,4.42,0,1.14-.54,2.23-1.47,2.92,1.16-.26,2.24-1.11,2.62-2.85.35-1.86-.7-3.57-2.37-4.41-1.59-.8-4.73-.72-5.45-1.69-.05,0-.1,0-.15,0"/>
    <path class="cls-1" d="M106.96,8.82c.08.14.16.29.24.45.01.03.03.05.04.08h0c1.36.32,2.37,1.54,2.37,3,0,.58-.12,1.15-.44,1.59-.06.08-.13.16-.19.24h0s0,0,0,0c1.44-1.41,1.31-3.19.3-4.66-.58-.85-1.46-1.6-2.5-2.13,0,0-.01,0-.02-.01.14.4.23.95.2,1.45"/>
    <path class="cls-1" d="M106.76,7.37s.01,0,.02.01c1.04.53,1.91,1.28,2.5,2.13,1.01,1.47,1.14,3.25-.3,4.66h0s0,0,0,0c-1.11,1.23-2.73.98-3.21.87-.09-.02-.12-.03-.13-.03.31.07,2.09-1.21,2.09-3.33,0-.44-.05-.88-.14-1.28-.09-.4-.21-.76-.34-1.05-.01-.03-.03-.05-.04-.08-.08-.16-.16-.31-.24-.45-2.06-3.58-5.3-2.43-7.03-3.87-.12.19-.28.36-.47.48-.19.12-.41.2-.65.23.71.96,3.85.89,5.45,1.69,1.67.84,2.73,2.55,2.37,4.41-.38,1.74-1.46,2.59-2.62,2.85-.87-.19-1.48-.34-2.11-.45-.64-.11-1.3-.18-2.29-.21.28-.58.48-1.2.62-1.85.12-.55.18-1.13.18-1.72,0-1.05-.19-2.09-.6-3.1h0c-.57-.72-1.08-1.1-1.15-1.6-.08.5-.58.88-1.15,1.6h0c-.41,1.01-.6,2.05-.6,3.1,0,.59.07,1.17.18,1.72.14.65.34,1.27.62,1.85-.99.03-1.66.1-2.29.21-.64.11-1.24.27-2.11.45-1.16-.26-2.24-1.11-2.62-2.85-.35-1.86.7-3.57,2.37-4.41,1.59-.8,4.73-.72,5.45-1.69-.24-.02-.46-.1-.65-.23-.19-.12-.35-.29-.47-.48-1.72,1.44-4.96.29-7.03,3.87-.08.14-.16.29-.24.45-.01.02-.03.05-.04.08-.13.29-.25.65-.34,1.05s-.14.84-.14,1.28c0,2.12,1.79,3.4,2.09,3.33,0,0-.04.01-.13.03-.48.11-2.11.36-3.21-.87h0s0,0,0,0c-1.44-1.41-1.31-3.19-.3-4.66.58-.85,1.46-1.6,2.5-2.13,0,0,.01,0,.02-.01-2.64.12-4.75,2.3-4.75,4.97,0,.83.21,1.61.57,2.3.06.12.13.23.2.34.09,0,.18-.01.28-.01.89,0,1.73.23,2.45.65,0,0,0,0,0,0h0c1.66.05,6.22-.56,9.34,2.38h0c3.12-2.95,7.68-2.34,9.34-2.38h0c.72-.42,1.56-.65,2.45-.65.09,0,.18,0,.28.01.07-.11.14-.23.2-.34.36-.69.57-1.47.57-2.3,0-2.67-2.11-4.85-4.75-4.97"/>
    <path class="cls-1" d="M108.01,15.63h0c-1.27.74-2.33,2.28-2.5,3.78-2.24-.87-3.83-1.4-6.85-1.4,3.12-2.95,7.68-2.34,9.35-2.38"/>
    <path class="cls-1" d="M136.25,46.15s-.1.11-.1.11c-2.86,3.02-7.08,1.95-15.24,1.63-3.84-.15-6.34,2.68-8.3,5.93-.08-.52-.19-1.02-.33-1.52-.15-.52-.34-1.03-.56-1.52-.09-.19-.17-.38-.27-.56,0,0,0-.01,0-.02,0-.01-.01-.02-.02-.03-.26-.51-.56-.99-.89-1.46l12.24-6.24c2.41-1.23,4.29-3.07,5.55-5.25,0,0-3.56,1.8-3.57,1.8-.07.04-1.66.91-1.22,2.18,0,0-1.37-1.57-1.5-2.65,0,0-.07.89.03,1.83l-13.01,6.6c-.57-.57-1.18-1.05-1.79-1.47l4.22-5.43-.21-1.72,9.56-12.33-.41-.33-8.83,11.37-5.81,7.54s-.03-.02-.05-.03h0c-1.23-.65-2.25-1.03-3.36-1.3v-5.61c0-.35-.2-.67-.51-.82,0,0-1.13-.64-1.14-.65v-8.69c0-1.44-.26-2.87-.77-4.21l-1.3-3.62v5.41c0,.78.09,1.25,1.55,1.32-.31.07-.79.15-1.55.2-.47.03-.97.03-1.68.03,0,0,.02.19.33.38.19.12.49.23.96.3.12.02.25.03.39.04v15.46c-1.28,0-2.53.16-3.72.45-1.19.29-2.6.85-3.43,1.32l-14.62-18.88-.42.31,9.56,12.33-.21,1.72,4.22,5.43c-.37.26-.72.52-1.02.78-.32.27-.63.56-.92.86l-7.73-3.89c-.73-.37-1.57-.47-2.37-.28l-.41.1.51-.99-7.9-3.99c-1.08-.55-2.4-.11-2.95.96l-.03.07,9.54,4.4c.27.13.6.01.74-.25l.1-.2,9.74,4.94c-1.03,1.26-1.82,2.73-2.28,4.3-.14.49-.25,1-.33,1.52-1.96-3.25-4.47-6.08-8.3-5.93-8.16.32-12.38,1.39-15.24-1.63,0,0-.1-.11-.1-.11-.08.22.19.69.33.9.74,1.1,2.83,2.72,7.31,2.47,4.57-.24,6.91-.41,8.44-.27,1.05.09,1.92.43,2.68.94.71.36,1.36.98,2.04,2.02.04.06.08.13.12.19.1.03.2.08.29.12,1.28.6,2,1.55,2.21,2.32,0,.03.02.07.03.1,0,0,.03.21.09,1.24-1.54-.54-3.18-.37-3.97-.35-2.48.07-4.6.1-4.86-.21,0,0,0,0,0,0,.24.34,1.7,1.01,4.18.96,1.12-.03,2.92,0,4.57.52.06.02.12.04.18.06.1.68.26,1.33.47,1.97l-19.99,10.18c-1.08.55-1.52,1.88-.96,2.97l1.69-.85,9.52-4.85-9.13,5.62,1.39,2.72.88-.45c2.25-1.15,4.34-2.59,6.21-4.29l6.54-6.59,4.76-2.43s0,0,0,0c.37.67.8,1.29,1.29,1.88,1.59,1.92,3.76,3.41,6.24,4.27,1.17.41,2.41.67,3.69.78.44.04.89.06,1.35.06v16s.82-.77,3.39-1.56c-.5-.11-.95-.33-1.29-.68-.5-.52-.75-1.25-.75-2.19v-11.63c1.28-.11,2.52-.38,3.69-.78,2.49-.86,4.66-2.35,6.24-4.27.39-.47.74-.96,1.05-1.48h0c.24-.39.45-.8.65-1.21h0s4.68,2.38,4.68,2.38c-.59-1.22-1.57-2.17-2.68-2.73l-1.55-.78c.25-.74.41-1.39.51-2.07.06-.02.12-.04.18-.06,1.64-.52,3.45-.55,4.57-.52,2.48.05,3.94-.62,4.18-.96,0,0,0,0,0,0-.26.32-2.38.29-4.86.21-.79-.02-2.43-.19-3.97.35.06-1.03.09-1.24.09-1.24,0-.03.02-.07.03-.1.21-.77.93-1.72,2.21-2.32.1-.05.2-.09.29-.12.04-.07.08-.13.12-.19.67-1.04,1.33-1.67,2.04-2.02.76-.51,1.64-.85,2.68-.94,1.53-.14,3.87.03,8.44.27,4.49.24,6.57-1.38,7.31-2.47.15-.22.4-.68.33-.9M98.67,67.9c-6.86,0-12.41-5.56-12.41-12.41s5.56-12.41,12.41-12.41,12.41,5.56,12.41,12.41c0,6.86-5.56,12.41-12.41,12.41"/>
    <path class="cls-1" d="M131.93,62.92l-.55.9-1.87-.85-2.91-1.33-.45-.21-1.62-.74-2.71.03h-.5s-3.87.04-3.87.04l-.58-.3-.44-.23-4.02-2.06c-.08.34-.18.68-.31,1.04l1.55.78c1.1.55,2.07,1.49,2.67,2.69,0,.01.01.02.02.03,1.37-.19,2.76.05,3.98.69l8.91,4.64c1.8.94,2.51,3.16,1.59,4.97l-.96,1.88,5.28-10.36-3.21-1.64Z"/>
    <path class="cls-1" d="M105.76,44.58h0s.03.02.05.03l5.81-7.54,8.83-11.37-.74-.59-7.36,9.46-6.2,8,5.32-8.69-5.46,6.66-.84.03-2.33,2.82c.95.26,1.85.62,2.91,1.18"/>
    <path class="cls-1" d="M111.46,33.89h0s-.73-.58-.73-.58c-.18-.13-.34-.24-.52-.29-.53-.13-.98.29-1.09,1.29l-.44,2.96,2.77-3.38Z"/>
    <path class="cls-1" d="M109.13,34.32c0-.09.03-.16.04-.24-2.47-1.22-5.18-2.03-8.04-2.33v.49c2.84.3,5.52,1.11,7.96,2.34l.04-.26Z"/>
    <polygon class="cls-1" points="112.33 34.6 111.47 33.89 106.15 42.58 112.33 34.6"/>
    <path class="cls-1" d="M76.9,25.72l14.62,18.88c.73-.41,1.9-.89,2.98-1.2l-2.33-2.82-.84-.03-5.46-6.66-.88.69-7.36-9.46-.73.6Z"/>
    <path class="cls-1" d="M88.64,37.28l-.44-2.96c-.11-.99-.56-1.41-1.09-1.28-.18.04-.34.16-.52.28l-.72.57,2.78,3.39Z"/>
    <path class="cls-1" d="M88.16,34.07c.02.08.03.16.04.24l.04.26c2.44-1.23,5.13-2.04,7.96-2.34v-.49c-2.86.3-5.57,1.1-8.04,2.33"/>
    <polygon class="cls-1" points="91.18 42.58 85.87 33.89 84.99 34.58 91.18 42.58"/>
    <path class="cls-1" d="M117.17,40.49l-.44.23-4.01,2.04-.45.23-4.98,2.54c.6.41,1.21.89,1.77,1.46l13.01-6.6c-.1-.94-.04-1.83-.04-1.83.02.14.05.28.1.43.1.29.25.6.43.89.09.14.18.29.27.42.36.53.7.92.7.92-.06-.16-.08-.31-.08-.46,0-.66.52-1.17.9-1.46.13-.1.24-.17.31-.21.12-.07-.24.11,3.66-1.85-.55-.06-1.09-.08-1.57-.07h0c-.19,0-.38,0-.57.02-1.54.09-3.09.44-4.58,1.09-.15.07-.3.13-.45.21-.11.05-.22.1-.33.16l-3.64,1.86Z"/>
    <path class="cls-1" d="M113.76,66.76c.82-1.09,1.53-2.27,2.11-3.53l-.43-.22c-.54,1.19-1.22,2.31-2,3.36l.32.39Z"/>
    <path class="cls-1" d="M116.45,71.12c1-1.13,1.9-2.34,2.67-3.64l-.31-.43c-.77,1.32-1.66,2.56-2.67,3.7l.31.38Z"/>
    <path class="cls-1" d="M119.57,74.91c1.23-1.32,2.35-2.75,3.32-4.29l-.42-.24c-.94,1.48-2.02,2.87-3.21,4.15l.31.38Z"/>
    <path class="cls-1" d="M122.69,78.7c1.42-1.46,2.71-3.06,3.85-4.76l-.3-.43c-1.14,1.72-2.43,3.33-3.86,4.81l.31.38Z"/>
    <path class="cls-1" d="M74.96,78.32c-1.39-1.44-2.66-3-3.77-4.68-.14.09-.28.17-.41.26h0c1.14,1.72,2.44,3.32,3.88,4.8l.31-.38Z"/>
    <path class="cls-1" d="M78.07,74.53c-1.12-1.2-2.14-2.49-3.03-3.87,0,0-.32.29-.36.33.91,1.4,1.95,2.71,3.08,3.92l.31-.38Z"/>
    <path class="cls-1" d="M81.19,70.74c-.98-1.12-1.87-2.33-2.63-3.63l-.35.36c.77,1.3,1.67,2.52,2.67,3.65l.31-.38Z"/>
    <path class="cls-1" d="M83.9,66.37c-.61-.82-1.16-1.68-1.62-2.6l-.43.22c.5.97,1.09,1.89,1.74,2.76l.32-.39Z"/>
    <path class="cls-1" d="M80.01,27.58c-.1.07-.21.14-.31.21l.3.38c.1-.07.21-.14.32-.22,4.9-3.29,10.72-5.28,16.99-5.54l.18-.49c-6.45.23-12.45,2.27-17.47,5.65"/>
    <path class="cls-1" d="M90.12,39.08c.15-.08.29-.16.44-.23,1.26-.62,2.61-1.1,4.01-1.42.04-.2.12-.39.25-.55-1.61.33-3.14.87-4.58,1.59-.15.07-.3.15-.44.23l.31.38Z"/>
    <path class="cls-1" d="M106.77,38.85c.15.07.3.15.44.23l.32-.38c-.15-.08-.29-.16-.44-.23-1.43-.71-2.97-1.25-4.58-1.59.12.16.21.35.25.55,1.41.32,2.75.8,4.01,1.42"/>
    <path class="cls-1" d="M114.34,32.02l.3-.39c-.14-.09-.28-.19-.42-.28-3.85-2.5-8.33-4.1-13.15-4.5,0,.16.02.32.02.49,4.69.4,9.06,1.96,12.82,4.39.14.09.29.19.43.28"/>
    <path class="cls-1" d="M117.33,28.18l.3-.38c-.1-.07-.2-.14-.31-.21-5.03-3.39-11.02-5.43-17.47-5.65l.18.49c6.27.26,12.09,2.25,16.99,5.54.11.07.21.14.32.22"/>
    <path class="cls-1" d="M95.77,37.77l.83,4.81v-6.38l-.34.2c-.39.22-.6.67-.53,1.11l.04.26Z"/>
    <path class="cls-1" d="M79.05,79.11s.46,2.49.88,4.62c-.03-.07-.06-.13-.09-.2s-.22-.57-.68-1.28c-.37-.56-.72-1.03-1.24-1.56h0c-1.99-.27-4.99,0-6.22,1.59-.08.09-.12.21-.12.32,0,.17.08.33.24.43l8.05,3.99c.08.05.17.08.27.08.13,0,.26-.05.36-.15.11-.11.16-.27.21-.54,1.88-7.38,5.87-13.54,6.85-14.96.16-.23.21-.28.24-.31.11-.11.26-.18.42-.18s.31.07.42.17c.11.11.14.21.27.61,0,.03,1.21,3.69,1.25,3.84.06.2.14.35.25.46.13.13.28.19.45.19.2,0,.43-.08.67-.25l2.17-1.52s.07-.05.08-.07c.07-.07.11-.17.11-.28,0-.1-.04-.2-.11-.28-.07-.07-.17-.1-.2-.1l-2.27-.42s0,0,0,.01h0c-.29.52-.63,1.2-.84,1.81.03-.46.16-2.6.21-3.4l-1.28-3.29c-.14-.36-.47-.62-.85-.68-.39-.06-.77.1-1.01.41l-8.5,10.94Z"/>
    <path class="cls-1" d="M71.66,82.34s0,0,0,0c0,0,0-.02.01-.02,0,0,.01-.02.02-.03h0c.05-.06.1-.12.16-.18-2.79-2.79-5.1-5.96-6.92-9.5l-.44.21c1.85,3.6,4.25,6.88,7.09,9.71,0-.06.03-.13.07-.18"/>
    <path class="cls-1" d="M71.79,82.18c1.28-1.49,4.19-1.76,6.14-1.49h0c.52.53.87,1,1.24,1.56.46.71.65,1.21.68,1.28.03.07.06.13.09.2-.43-2.13-.88-4.62-.88-4.62l8.5-10.94c.24-.31.62-.46,1.01-.41.39.06.71.31.85.68l1.29,3.29c-.05.8-.18,2.94-.21,3.4.21-.61.55-1.29.84-1.81h0s0,0,0-.01l2.27.42s.13.03.2.1c.04.04.07.08.08.13-.17-.57-2.25-7.52-2.25-7.52-1.65-.86-3.1-2.02-4.24-3.4-.13-.15-.25-.31-.37-.47l-5.42,6.57.06,1.02-9.87,12.01Z"/>
    <path class="cls-1" d="M118.29,79.11s-.46,2.49-.88,4.62c.03-.07.06-.13.09-.2.03-.07.22-.57.68-1.28.37-.56.72-1.03,1.24-1.56h0c1.99-.27,4.99,0,6.22,1.59.08.09.12.21.12.32,0,.17-.08.33-.24.43l-8.05,3.99c-.08.05-.17.08-.27.08-.13,0-.26-.05-.36-.15-.11-.11-.16-.27-.21-.54-1.88-7.38-5.87-13.54-6.85-14.96-.15-.23-.21-.28-.24-.31-.11-.11-.26-.18-.42-.18s-.31.07-.42.17c-.11.11-.14.21-.27.61,0,.03-1.21,3.69-1.25,3.84-.06.2-.14.35-.25.46-.13.13-.28.19-.45.19-.2,0-.43-.08-.67-.25l-2.17-1.52s-.07-.05-.08-.07c-.07-.07-.11-.17-.11-.28,0-.1.04-.2.11-.28.07-.07.17-.1.2-.1l2.27-.42s0,0,0,.01h0c.29.52.63,1.2.84,1.81-.03-.46-.16-2.6-.21-3.4l1.29-3.29c.14-.36.47-.62.85-.68.39-.06.77.1,1.01.41l8.5,10.94Z"/>
    <path class="cls-1" d="M137.02,55.38c0-2.71-.28-5.35-.82-7.9-.09.17-.27.41-.39.54.47,2.38.72,4.84.72,7.36,0,6.39-1.59,12.41-4.39,17.69h0c-1.78,3.35-4.01,6.36-6.67,9.02.05.06.11.12.15.18t0,0s.02.02.02.03c0,0,0,.01.01.02,0,0,0,0,0,0,.03.06.06.12.07.18,2.71-2.71,5.03-5.81,6.84-9.23,2.84-5.35,4.45-11.45,4.45-17.92"/>
    <path class="cls-1" d="M125.55,82.18c-1.28-1.49-4.19-1.76-6.14-1.49h0c-.52.53-.87,1-1.24,1.56-.46.71-.65,1.21-.68,1.28-.03.07-.06.13-.09.2.43-2.13.88-4.62.88-4.62l-8.5-10.94c-.24-.31-.62-.46-1.01-.41-.39.06-.71.31-.85.68l-1.29,3.29c.05.8.18,2.94.21,3.4-.21-.61-.55-1.29-.84-1.81,0,0,0,0,0-.01l-2.27.42s-.13.03-.2.1c-.04.04-.07.08-.08.13.17-.57,2.25-7.52,2.25-7.52,1.65-.86,3.1-2.02,4.24-3.4.13-.15.25-.31.37-.47l5.42,6.57-.06,1.02,9.87,12.01Z"/>
  </g>
</svg>