<?xml version="1.0" encoding="UTF-8"?>
<svg id="Layer_1" xmlns="http://www.w3.org/2000/svg" version="1.1" xmlns:xlink="http://www.w3.org/1999/xlink" viewBox="0 0 197.4 148.6">
  <!-- Generator: Adobe Illustrator 30.3.0, SVG Export Plug-In . SVG Version: 2.1.3 Build 182)  -->
  <defs>
    <style>
      .st0 {
        fill: #fff;
        fill-rule: evenodd;
      }

      .st1 {
        fill: none;
      }

      .st2 {
        clip-path: url(#clippath-1);
      }

      .st3 {
        clip-path: url(#clippath-2);
      }

      .st4 {
        clip-path: url(#clippath);
      }
    </style>
    <clipPath id="clippath">
      <rect class="st1" x="2.4" y="52" width="96.9" height="44.5"/>
    </clipPath>
    <clipPath id="clippath-1">
      <rect class="st1" x="88.2" y="52" width="50.1" height="44.5"/>
    </clipPath>
    <clipPath id="clippath-2">
      <rect class="st1" x="170.6" y="72.4" width="24.4" height="23.8"/>
    </clipPath>
  </defs>
  <g id="surface1">
    <g class="st4">
      <path class="st0" d="M60.8,70.8c1.2-.7,2.2-1.6,3.3-2.5,6.7-5.2,13.3-10.5,20-15.8.3-.3.6-.5,1.2-.5,4.6,0,9.2,0,13.9,0-1.2.9-2.5,1.9-3.7,2.8-2.3,1.8-4.7,3.4-6.9,5.2-4.1,3-8.1,6-12.2,9-.6.5-.4.8-.2,1.3,3.6,8.4,7.3,16.9,10.9,25.3,0,.2.2.4.3.7-.3.2-.6.1-.9.1-3.6,0-7.2,0-10.8,0-.7,0-1.1-.2-1.3-.9-2.4-6.2-4.8-12.3-7.1-18.5-.3-.7-.4-.9-1.1-.3-2.6,2.1-5.2,4.1-7.9,6.2-.5.4-.7.8-.9,1.4-.8,3.8-1.7,7.5-2.5,11.3-.1.6-.3.8-1,.8-16.9,0-33.7,0-50.6,0-.6,0-.8-.2-.7-.8.4-2.4.8-4.7,1.2-7.1,0-.5.5-.7.8-1,9-8.4,18-16.8,27-25.1.8-.7,1.6-1.5,2.4-2.3-.4-.3-.7-.2-1.1-.2-6.7,0-13.3,0-20,0-.9,0-1.1-.2-.9-1.1.4-2.1.8-4.1,1.2-6.2,0-.6.3-.8.9-.8,11.6,0,23.1,0,34.7,0,.7,0,.8.2.7.8-.4,2-.9,3.9-1.3,5.9-.1.6-.4,1-.8,1.4-10.1,9.3-20.2,18.5-30.3,27.8-.2.2-.4.4-.6.6.2.3.5.2.7.2,9.5,0,19,0,28.4,0s.9-.2,1-.9c2.6-11.6,5.3-23.1,7.9-34.7.2-.7.4-1,1.2-1,2.9,0,5.7,0,8.6,0,.9,0,1,.2.8,1-1.4,5.6-2.7,11.1-4.1,16.7,0,.3-.1.7-.2,1,0,0,0,0-.1.1,0,0,0,0,0,0,0,0,0,0,.1-.1"/>
    </g>
    <g class="st2">
      <path class="st0" d="M88.5,60.1c2.2-1.9,4.6-3.5,6.9-5.2,1.2-.9,2.5-1.9,3.7-2.8h39c-.8,2.6-1.6,5.2-2.4,7.7-.2.6-.7.4-1,.4-4.2,0-8.4,0-12.5,0-.7,0-1,.2-1.2.9-3.4,11.5-6.9,23-10.3,34.5-.2.8-.5,1-1.3,1-2.6,0-5.2,0-7.8,0-.8,0-1-.2-.7-1,3.2-11,6.4-22.1,9.5-33.1.7-2.4.7-2.3-1.7-2.3-6.7,0-13.3,0-20,0"/>
    </g>
    <g class="st3">
      <path class="st0" d="M188.6,79h-14.8c.6-3.8,2-5.2,5.6-5.5,4.1-.3,8.3-.3,12.4,0,2.6.2,3.6,1.5,3.1,4-1,4.8-2.1,9.6-3.3,14.4-.6,2.4-2.4,3.7-5.3,3.8-3.9.1-7.8,0-11.7,0-.7,0-1.3-.2-2-.4-1.2-.4-1.7-1.2-1.8-2.5,0-1.2.3-2.3.6-3.4.5-2.3,1-4.6,1.5-6.9.1-.6.4-.9,1.1-.9,1.4,0,2.8,0,4.2,0,.9,0,1,.3.8,1-.5,2.1-1,4.3-1.5,6.4-.2.8,0,1,.8,1,2.4,0,4.8,0,7.1,0,.5,0,.8,0,.9-.6.8-3.5,1.6-6.9,2.4-10.5"/>
    </g>
    <path class="st0" d="M134.5,95.7c-3.2,0-6.3,0-9.5,0-.7,0-.9-.1-.7-.9,1-4.1,1.9-8.3,2.8-12.4.1-.6.4-.8,1-.8,4.4,0,8.8,0,13.2,0,.9,0,1,.3.8,1-.3,1.3-.7,2.6-.9,4-.1.6-.4.7-.9.7-2.4,0-4.8,0-7.2,0-.7,0-1,.2-1.1.9-.4,1.9-.4,1.8,1.5,1.8,4,0,7.9,0,11.9,0,.8,0,1.1.2.8,1-.4,1.3-.7,2.6-.9,3.9-.1.7-.4.8-1,.8-3.2,0-6.5,0-9.7,0"/>
    <path class="st0" d="M169.8,87.4c-.4,1.5-.7,3-1.1,4.5-.8,2.6-2.8,3.6-5.3,3.7-3.9.1-7.9,0-11.8,0-.6,0-1.1-.2-1.7-.3-1.5-.5-2.2-1.5-2-3,.5-3.5,1.5-6.8,2.2-10.2,0-.3.2-.5.6-.5,1.7,0,3.3,0,5,0,.6,0,.5.3.4.7-.5,2.3-1,4.6-1.6,6.9-.1.6,0,.8.6.8,2.5,0,5,0,7.4,0,.6,0,.7-.2.8-.7.5-2,.5-2,2.6-2,1.2,0,2.4,0,3.6,0,0,0,.1,0,.3.1"/>
    <path class="st0" d="M158.3,79c-2.2,0-4.4,0-6.6,0-.6,0-.8,0-.6-.8.8-3.2,2.1-4.5,5.4-4.7,4.2-.3,8.4-.3,12.6,0,2.6.2,3.5,1.6,3.1,4.1-.2,1.2-.5,2.4-.8,3.6,0,.4-.2.6-.7.6-1.6,0-3.3,0-4.9,0-.5,0-.6-.2-.5-.6.1-.7.7-1.6.3-2-.4-.5-1.4-.1-2.2-.1-1.7,0-3.4,0-5.1,0"/>
    <path class="st0" d="M138.4,79c-3.2,0-6.4,0-9.6,0-.7,0-1-.2-.8-.9.4-1.3.7-2.7.9-4.1.1-.5.3-.7.9-.7,6.5,0,13,0,19.5,0,.6,0,.7.1.6.8-.4,1.4-.7,2.8-.9,4.2-.1.6-.4.8-1,.8-3.2,0-6.4,0-9.6,0"/>
    <path class="st0" d="M60.8,70.8s0,0-.1.1c0,0,0,0,0,0,0,0,0,0,.1-.1h0"/>
  </g>
</svg>