<svg xmlns="http://www.w3.org/2000/svg" viewBox="0 0 24 28" width="72" height="84" shape-rendering="crispEdges">
  <!-- Maintenance Drone — Idle Frame 0 -->
  <!-- Asset ID: ce_drone_idle_v01 -->
  <!-- Canvas: 24×28px native, 3× display (72×84px) -->
  
  <!-- Antenna tip (Electric Cyan — pulsing) -->
  <rect x="11" y="0" width="2" height="2" fill="#22D3EE" opacity="0.8"/>
  
  <!-- Antenna shaft (Electric Cyan — 40% opacity) -->
  <rect x="11" y="2" width="2" height="4" fill="#22D3EE" opacity="0.4"/>
  
  <!-- Head highlight (White — 1px on top) -->
  <rect x="8" y="6" width="8" height="1" fill="#F8FAFC" opacity="0.6"/>
  
  <!-- Head (Dark Indigo) -->
  <rect x="7" y="7" width="10" height="1" fill="#1E1B4B"/>
  <rect x="7" y="8" width="10" height="1" fill="#1E1B4B"/>
  <rect x="7" y="9" width="10" height="1" fill="#1E1B4B"/>
  <rect x="7" y="10" width="10" height="1" fill="#1E1B4B"/>
  <rect x="7" y="11" width="10" height="1" fill="#1E1B4B"/>
  <rect x="7" y="12" width="10" height="1" fill="#1E1B4B"/>
  
  <!-- Eye (Electric Cyan — 2×2px) -->
  <rect x="10" y="9" width="2" height="2" fill="#22D3EE"/>
  
  <!-- Eye glow (Electric Cyan — 20% opacity, 1px border) -->
  <rect x="9" y="8" width="1" height="1" fill="#22D3EE" opacity="0.2"/>
  <rect x="12" y="8" width="1" height="1" fill="#22D3EE" opacity="0.2"/>
  <rect x="9" y="11" width="1" height="1" fill="#22D3EE" opacity="0.2"/>
  <rect x="12" y="11" width="1" height="1" fill="#22D3EE" opacity="0.2"/>
  <rect x="9" y="9" width="1" height="2" fill="#22D3EE" opacity="0.15"/>
  <rect x="12" y="9" width="1" height="2" fill="#22D3EE" opacity="0.15"/>
  <rect x="10" y="8" width="2" height="1" fill="#22D3EE" opacity="0.15"/>
  <rect x="10" y="11" width="2" height="1" fill="#22D3EE" opacity="0.15"/>
  
  <!-- Neck (Dark Indigo — narrower) -->
  <rect x="9" y="13" width="6" height="1" fill="#1E1B4B"/>
  
  <!-- Body (Dark Indigo) -->
  <rect x="6" y="14" width="12" height="1" fill="#1E1B4B"/>
  <rect x="6" y="15" width="12" height="1" fill="#1E1B4B"/>
  <rect x="6" y="16" width="12" height="1" fill="#1E1B4B"/>
  <rect x="6" y="17" width="12" height="1" fill="#1E1B4B"/>
  <rect x="6" y="18" width="12" height="1" fill="#1E1B4B"/>
  <rect x="6" y="19" width="12" height="1" fill="#1E1B4B"/>
  <rect x="6" y="20" width="12" height="1" fill="#1E1B4B"/>
  <rect x="6" y="21" width="12" height="1" fill="#1E1B4B"/>
  
  <!-- Core (Deep Purple — 2×2px) -->
  <rect x="11" y="17" width="2" height="2" fill="#6D28D9"/>
  
  <!-- Core glow (Deep Purple — 30% opacity) -->
  <rect x="10" y="16" width="1" height="1" fill="#6D28D9" opacity="0.3"/>
  <rect x="13" y="16" width="1" height="1" fill="#6D28D9" opacity="0.3"/>
  <rect x="10" y="19" width="1" height="1" fill="#6D28D9" opacity="0.3"/>
  <rect x="13" y="19" width="1" height="1" fill="#6D28D9" opacity="0.3"/>
  <rect x="10" y="17" width="1" height="2" fill="#6D28D9" opacity="0.2"/>
  <rect x="13" y="17" width="1" height="2" fill="#6D28D9" opacity="0.2"/>
  
  <!-- Body bottom (Dark Indigo — shadow) -->
  <rect x="6" y="22" width="12" height="1" fill="#1E1B4B"/>
  <rect x="7" y="23" width="10" height="1" fill="#1E1B4B"/>
  <rect x="8" y="24" width="8" height="1" fill="#1E1B4B"/>
  
  <!-- Left wing (Electric Cyan — 25% opacity) -->
  <rect x="2" y="16" width="4" height="3" fill="#22D3EE" opacity="0.25"/>
  
  <!-- Right wing (Electric Cyan — 25% opacity) -->
  <rect x="18" y="16" width="4" height="3" fill="#22D3EE" opacity="0.25"/>
</svg>
