<svg xmlns="http://www.w3.org/2000/svg" viewBox="0 0 24 28" width="72" height="84" shape-rendering="crispEdges">
  <!-- Maintenance Drone — Inspect State (eye brightens) -->
  <!-- Asset ID: ce_drone_inspect_v01 -->
  <!-- Canvas: 24×28px native, 3× display (72×84px) -->

  <!-- Antenna tip (Electric Cyan — brighter during inspect) -->
  <rect x="11" y="0" width="2" height="2" fill="#22D3EE" opacity="1"/>
  
  <!-- Antenna shaft -->
  <rect x="11" y="2" width="2" height="4" fill="#22D3EE" opacity="0.5"/>
  
  <!-- Head highlight -->
  <rect x="8" y="6" width="8" height="1" fill="#F8FAFC" opacity="0.7"/>
  
  <!-- Head -->
  <rect x="7" y="7" width="10" height="6" fill="#1E1B4B"/>
  
  <!-- Eye (brighter during inspect) -->
  <rect x="10" y="9" width="2" height="2" fill="#22D3EE"/>
  
  <!-- Eye glow (expanded during inspect) -->
  <rect x="9" y="8" width="1" height="1" fill="#22D3EE" opacity="0.4"/>
  <rect x="12" y="8" width="1" height="1" fill="#22D3EE" opacity="0.4"/>
  <rect x="9" y="11" width="1" height="1" fill="#22D3EE" opacity="0.4"/>
  <rect x="12" y="11" width="1" height="1" fill="#22D3EE" opacity="0.4"/>
  <rect x="9" y="9" width="1" height="2" fill="#22D3EE" opacity="0.3"/>
  <rect x="12" y="9" width="1" height="2" fill="#22D3EE" opacity="0.3"/>
  <rect x="10" y="8" width="2" height="1" fill="#22D3EE" opacity="0.3"/>
  <rect x="10" y="11" width="2" height="1" fill="#22D3EE" opacity="0.3"/>
  
  <!-- Neck -->
  <rect x="9" y="13" width="6" height="1" fill="#1E1B4B"/>
  
  <!-- Body -->
  <rect x="6" y="14" width="12" height="8" fill="#1E1B4B"/>
  <rect x="7" y="22" width="10" height="1" fill="#1E1B4B"/>
  <rect x="8" y="23" width="8" height="1" fill="#1E1B4B"/>
  <rect x="9" y="24" width="6" height="1" fill="#1E1B4B"/>
  
  <!-- Core (pulses during inspect) -->
  <rect x="11" y="17" width="2" height="2" fill="#6D28D9"/>
  
  <!-- Core glow (expanded during inspect) -->
  <rect x="10" y="16" width="1" height="1" fill="#6D28D9" opacity="0.5"/>
  <rect x="13" y="16" width="1" height="1" fill="#6D28D9" opacity="0.5"/>
  <rect x="10" y="19" width="1" height="1" fill="#6D28D9" opacity="0.5"/>
  <rect x="13" y="19" width="1" height="1" fill="#6D28D9" opacity="0.5"/>
  <rect x="10" y="17" width="1" height="2" fill="#6D28D9" opacity="0.4"/>
  <rect x="13" y="17" width="1" height="2" fill="#6D28D9" opacity="0.4"/>
  
  <!-- Left wing -->
  <rect x="2" y="16" width="4" height="3" fill="#22D3EE" opacity="0.3"/>
  
  <!-- Right wing -->
  <rect x="18" y="16" width="4" height="3" fill="#22D3EE" opacity="0.3"/>
</svg>
